<?xml version="1.0" encoding="UTF-8"?>
<svg xmlns="http://www.w3.org/2000/svg" version="1.1" viewBox="0 0 178 178">
  <defs>
    <style>
      .cls-1 {
        fill: #fecc0b;
      }

      .cls-2 {
        fill: #fff;
      }

      .cls-3 {
        fill: #22297c;
      }
    </style>
  </defs>
  <!-- Generator: Adobe Illustrator 28.6.0, SVG Export Plug-In . SVG Version: 1.2.0 Build 709)  -->
  <g>
    <g id="Calque_1">
      <rect class="cls-2" width="178" height="178" rx="36.1" ry="36.1"/>
      <g>
        <path id="path3" class="cls-1" d="M115.1,97.5c-14.9,9.7-27.8,15.7-38.8,18.7v-8.3s-15.8,4.8-15.8,4.8v5.9c-33.9.4-38.5-35.9-15.4-60-15.5,35.9,37.3,30,60.1,33.4,6,.9,9.9,2.4,9.9,5.5Z"/>
        <polygon id="polygon5" class="cls-3" points="130.1 120.8 130.1 125.1 120.3 128.1 120.3 123.8 130.1 120.8"/>
        <polygon id="polygon7" class="cls-3" points="78.6 134.9 78.6 139.7 76.3 140.4 68.5 142.8 68.5 138 76.3 135.6 78.6 134.9"/>
        <polygon id="polygon9" class="cls-3" points="66.9 139 66.9 143.8 60.5 145.7 56.8 146.8 56.8 142 60.5 140.9 66.9 139"/>
        <path id="path11" class="cls-3" d="M134.6,100.6v8.9c0,1.7-1.5,3.8-4.9,5l-10,3-3.7,1.1v13.3c0,2.6-2.1,3.9-3.8,4.5l-11.4,3.5-5.1,1.6s-11.2,3.4-11.3,3.4c-2.3.5-3.2-.6-3.3-1.7v-9.1l14.6-4.5v5.4c0,1.6,5.1,1.2,5.1-1v-23.2l14.9-4.5v5.9c.9,1.7,4.5,1.3,4.5-1.1v-6.1l9.8-3,4.4-1.4Z"/>
        <path id="path13" class="cls-3" d="M116.2,96.1c22.3-17.1,36.3-49.4-95.4-61.6,115.2-51.9,155.3,20,95.4,61.6Z"/>
        <path id="path15" class="cls-3" d="M95.8,112.4v10.2c0,1.1-1,2.6-2.9,3l-11.8,3.6-2.6.8-2.3.7-7.8,2.4-1.6.5-6.4,1.9-3.7,1.1-.5.2-10.5,3.2c-2.4.4-4.7-.4-5.1-2.2v-8.6l15.6-4.7v6.6c.3,1.1,3.9.8,4.1-.9v-11.5c0,0,0-5.9,0-5.9l15.8-4.8v8.3s0,8.3,0,8.3c0,1.4,3.9.5,3.9-1.1v-6.3s.9-.3.9-.3l14.6-4.5Z"/>
        <g id="g17">
          <path id="path19" class="cls-3" d="M35,161.4l2.5-7.2h1.2l2.5,7.2h-1l-.7-2h-2.8l-.7,2h-1ZM39.1,158.6l-1.1-3.4-1.1,3.4h2.2Z"/>
          <path id="path21" class="cls-3" d="M48.3,161.4h-4.2v-7.2h1v6.3h3.3v.8h0Z"/>
          <path id="path23" class="cls-3" d="M53.7,161.6c-.5,0-1,0-1.4-.2-.4-.2-.8-.4-1.1-.7-.3-.3-.5-.7-.7-1.2-.2-.5-.2-1-.2-1.6s0-1.1.2-1.6c.2-.5.4-.9.7-1.2.3-.3.7-.6,1.1-.7.4-.2.9-.3,1.4-.3s.5,0,.7,0c.2,0,.4,0,.6.1.2,0,.3.1.5.2.2,0,.4.2.5.2v1.2h0c-.1-.1-.2-.2-.4-.3-.1,0-.3-.2-.5-.3-.2,0-.4-.2-.7-.2-.3,0-.5,0-.8,0-.7,0-1.3.3-1.7.8s-.6,1.2-.6,2.1,0,.9.2,1.3c.1.4.3.7.5.9.2.2.5.4.8.6s.6.2,1,.2.5,0,.8,0c.3,0,.5,0,.7-.2v-1.9h-1.7v-.8h2.6v3.1c-.1,0-.3.1-.5.2-.2,0-.4.1-.6.2-.2,0-.5.1-.6.2-.2,0-.4,0-.7,0Z"/>
          <polygon class="cls-3" points="60.8 155.1 60.8 157.1 64.2 157.1 64.2 157.9 60.8 157.9 60.8 160.6 64.4 160.6 64.4 161.4 59.9 161.4 59.9 154.2 61.3 154.2 62 152.7 62.6 153.1 62 154.2 64.4 154.2 64.4 155.1 60.8 155.1"/>
          <path id="path27" class="cls-3" d="M72.2,161.4h-1.3l-2.3-2.9h-1.1v2.9h-1v-7.2h1.9c.4,0,.8,0,1.1,0,.3,0,.6.1.8.3.3.2.5.4.6.6s.2.6.2.9-.1,1-.4,1.3c-.3.4-.6.6-1.1.8l2.6,3.1ZM70.1,156.3c0-.2,0-.4-.1-.6,0-.2-.2-.3-.3-.4-.1,0-.3-.2-.5-.2-.2,0-.4,0-.7,0h-1v2.7h.9c.3,0,.5,0,.7,0s.4-.1.6-.3c.1-.1.2-.3.3-.5,0-.2.1-.4.1-.7Z"/>
          <path id="path29" class="cls-3" d="M75.2,161.4h-1v-.7h0v-5.7h0v-.7h1v.7h0v5.7h0v.7Z"/>
          <path id="path31" class="cls-3" d="M78.6,161.4v-7.2h4.6v.8h-3.6v2h3.3v.8h-3.3v2.7h3.6v.8h-4.6Z"/>
        </g>
        <g id="g33">
          <path id="path35" class="cls-3" d="M96.3,156c0,.4,0,.7-.2,1-.1.3-.3.6-.6.8-.2.1-.3.3-.5.4-.2.1-.4.2-.6.3-.2,0-.5.1-.8.2s-.6,0-.9,0h-1.2v2.5h-2.4v-7.7h3.6c.5,0,1,0,1.4.1s.7.2,1.1.4c.4.2.6.5.8.8.2.3.3.7.3,1.2ZM93.9,156.1c0-.2,0-.4-.2-.6s-.3-.3-.5-.3c-.2,0-.4-.1-.6-.1-.2,0-.5,0-.8,0h-.3v2.3h.2c.2,0,.4,0,.6,0,.2,0,.4,0,.5,0,.1,0,.3,0,.4-.1.1,0,.2-.1.3-.2.2-.1.3-.3.3-.4,0-.1,0-.3,0-.6Z"/>
          <path id="path37" class="cls-3" d="M106.9,157.4c0,1.2-.4,2.2-1.2,2.9-.8.7-1.9,1.1-3.3,1.1s-2.5-.4-3.3-1.1c-.8-.7-1.2-1.7-1.2-2.9s.4-2.2,1.2-2.9c.8-.7,1.9-1.1,3.3-1.1s2.5.4,3.3,1.1c.8.7,1.2,1.7,1.2,2.9ZM104.4,157.4c0-.5,0-.8-.2-1.2-.1-.3-.3-.6-.5-.8-.2-.2-.4-.4-.7-.5-.3,0-.5-.1-.8-.1s-.6,0-.8.1c-.2,0-.5.2-.7.5-.2.2-.4.5-.5.8-.1.3-.2.7-.2,1.2s0,.9.2,1.2c.1.3.3.6.5.8.2.2.4.4.7.5.3,0,.5.1.8.1s.5,0,.8-.1c.3,0,.5-.3.7-.5.2-.2.4-.5.5-.8.1-.3.2-.7.2-1.2Z"/>
          <path id="path39" class="cls-3" d="M111.9,161.4c-.7,0-1.3,0-1.9-.2-.5-.1-1-.3-1.5-.4v-1.8h.2c.5.3,1,.6,1.6.8.6.2,1.1.3,1.7.3s.3,0,.5,0c.2,0,.4,0,.5-.1.2,0,.3-.1.4-.2s.2-.2.2-.4,0-.4-.3-.5c-.2-.1-.4-.2-.7-.3-.3,0-.7-.1-1-.2-.4,0-.7-.1-1-.2-.7-.2-1.2-.5-1.6-.8-.3-.4-.5-.8-.5-1.3s.4-1.3,1.1-1.8c.7-.4,1.7-.7,2.8-.7s1.1,0,1.7.1,1,.2,1.5.4v1.8h-.2c-.3-.2-.8-.5-1.3-.6-.5-.2-1-.3-1.5-.3s-.4,0-.6,0-.3,0-.5.1c-.1,0-.3.1-.4.2-.1.1-.2.2-.2.4,0,.2,0,.4.3.5.2.1.5.2,1,.3.3,0,.6.1.9.2.3,0,.6.1.9.2.7.2,1.1.5,1.5.8.3.3.5.8.5,1.3,0,.8-.4,1.4-1.1,1.8-.7.5-1.7.7-3,.7Z"/>
          <path id="path41" class="cls-3" d="M119.7,161.3v-6.2h-2.8v-1.5h7.9v1.5h-2.8v6.2h-2.4Z"/>
          <path id="path43" class="cls-3" d="M126.5,161.3v-7.7h6.3v1.5h-4v1.4h3.7v1.5h-3.7v1.9h4v1.5h-6.3Z"/>
        </g>
      </g>
    </g>
  </g>
</svg>