<?xml version="1.0" encoding="UTF-8"?>
<svg xmlns="http://www.w3.org/2000/svg" version="1.1" viewBox="0 0 400 300">
  <defs>
    <style>
      .cls-1 {
        fill: #fecc0b;
      }

      .cls-2 {
        fill: #fff;
      }

      .cls-3 {
        fill: #22297c;
      }
    </style>
  </defs>
  <!-- Generator: Adobe Illustrator 28.6.0, SVG Export Plug-In . SVG Version: 1.2.0 Build 709)  -->
  <g>
    <g id="Layer_1">
      <path class="cls-3" d="M343.2,80.8H56.9c-9,0-16.4,7.3-16.4,16.4v158.5c0,9,7.3,16.4,16.4,16.4h286.3c9,0,16.3-7.3,16.3-16.4V97.1c0-9-7.3-16.3-16.3-16.3h0Z"/>
      <path class="cls-2" d="M201.3,249.6c-40.4,0-73.2-32.8-73.2-73.2s32.8-73.2,73.2-73.2,73.2,32.8,73.2,73.2-32.8,73.2-73.2,73.2Z"/>
      <path class="cls-1" d="M98.6,147.7h-19.2c-5.5,0-10-4.5-10-10v-19.2c0-5.5,4.5-10,10-10h19.3c5.5,0,10,4.5,10,10v19.3c0,5.5-4.6,9.9-10.1,9.9Z"/>
      <g>
        <path id="path3" class="cls-1" d="M221.9,180.6c-9.9,6.5-18.5,10.5-25.9,12.5v-5.5l-10.5,3.2v3.9c-22.6.3-25.7-23.9-10.3-40-10.3,23.9,24.9,20,40.1,22.3,4,.6,6.6,1.6,6.6,3.7Z"/>
        <polygon id="polygon5" class="cls-3" points="231.9 196.2 231.9 199 225.3 201 225.3 198.2 231.9 196.2"/>
        <polygon id="polygon7" class="cls-3" points="197.5 205.6 197.5 208.8 196 209.2 190.8 210.8 190.8 207.6 196 206 197.5 205.6"/>
        <polygon id="polygon9" class="cls-3" points="189.7 208.3 189.7 211.5 185.5 212.8 183 213.5 183 210.3 185.5 209.6 189.7 208.3"/>
        <path id="path11" class="cls-3" d="M234.9,182.7v5.9c0,1.1-1,2.5-3.3,3.3l-6.7,2-2.5.7v8.9c0,1.7-1.4,2.6-2.5,3l-7.6,2.3-3.4,1.1s-7.5,2.3-7.5,2.3c-1.5.3-2.1-.4-2.2-1.1v-6.1l9.7-3v3.6c0,1.1,3.4.8,3.4-.7v-15.5l9.9-3v3.9c.6,1.1,3,.9,3-.7v-4.1l6.5-2,2.9-.9h.1Z"/>
        <path id="path13" class="cls-3" d="M222.6,179.7c14.9-11.4,24.2-32.9-63.6-41.1,76.8-34.6,103.6,13.3,63.6,41.1Z"/>
        <path id="path15" class="cls-3" d="M209,190.6v6.8c0,.7-.7,1.7-1.9,2l-7.9,2.4-1.7.5-1.5.5-5.2,1.6-1.1.3-4.3,1.3-2.5.7h-.3c0,.1-7,2.3-7,2.3-1.6.3-3.1-.3-3.4-1.5v-5.7l10.4-3.1v4.4c.2.7,2.6.5,2.7-.6v-11.6l10.5-3.2v11.1c0,.9,2.6.3,2.6-.7v-4.2l.6-.2,9.7-3h.2Z"/>
        <g id="g17">
          <path id="path19" class="cls-3" d="M168.4,223.2l1.7-4.8h.8l1.7,4.8h-.7l-.5-1.3h-1.9l-.5,1.3h-.7ZM171.2,221.4l-.7-2.3-.7,2.3s1.5,0,1.5,0Z"/>
          <path id="path21" class="cls-3" d="M177.3,223.2h-2.8v-4.8h.7v4.2h2.2v.5h0Z"/>
          <path id="path23" class="cls-3" d="M180.9,223.4c-.3,0-.7,0-.9-.1s-.5-.3-.7-.5-.3-.5-.5-.8-.1-.7-.1-1.1,0-.7.1-1.1.3-.6.5-.8.5-.4.7-.5c.3-.1.6-.2.9-.2h.5c.1,0,.3,0,.4,0,.1,0,.2,0,.3.1.1,0,.3.1.3.1v.8h0c0,0-.1-.1-.3-.2,0,0-.2-.1-.3-.2-.1,0-.3-.1-.5-.1h-.5c-.5,0-.9.2-1.1.5s-.4.8-.4,1.4,0,.6.1.9c0,.3.2.5.3.6s.3.3.5.4.4.1.7.1h.5c.2,0,.3,0,.5-.1v-1.3h-1.1v-.5h1.7v2.1c0,0-.2,0-.3.1-.1,0-.3,0-.4.1-.1,0-.3,0-.4.1h-.5Z"/>
          <polygon class="cls-3" points="185.7 219 185.7 220.4 187.9 220.4 187.9 220.9 185.7 220.9 185.7 222.7 188.1 222.7 188.1 223.2 185.1 223.2 185.1 218.4 186 218.4 186.5 217.4 186.9 217.7 186.5 218.4 188.1 218.4 188.1 219 185.7 219"/>
          <path id="path27" class="cls-3" d="M193.3,223.2h-.9l-1.5-1.9h-.7v1.9h-.7v-4.8h2c.2,0,.4,0,.5.2.2.1.3.3.4.4s.1.4.1.6,0,.7-.3.9c-.2.3-.4.4-.7.5l1.7,2.1h0ZM191.9,219.8c0-.1,0-.3,0-.4,0-.1-.1-.2-.2-.3,0,0-.2-.1-.3-.1h-1.1v1.8h1.1c.1,0,.3,0,.4-.2,0,0,.1-.2.2-.3,0-.1,0-.3,0-.5Z"/>
          <path id="path29" class="cls-3" d="M195.3,223.2h-.7v-.5h0v-3.8h0v-.5h.7v.5h0v3.8h0v.5Z"/>
          <path id="path31" class="cls-3" d="M197.5,223.2v-4.8h3.1v.5h-2.4v1.3h2.2v.5h-2.2v1.8h2.4v.5h-3.1Z"/>
        </g>
        <g id="g33">
          <path id="path35" class="cls-3" d="M209.3,219.6c0,.3,0,.5-.1.7,0,.2-.2.4-.4.5-.1,0-.2.2-.3.3-.1,0-.3.1-.4.2-.1,0-.3,0-.5.1s-.4,0-.6,0h-.8v1.7h-1.6v-5.1h2.4c.3,0,.7,0,.9,0s.5.1.7.3.4.3.5.5c.1.2.2.5.2.8ZM207.7,219.7c0-.1,0-.3-.1-.4s-.2-.2-.3-.2-.3,0-.4,0h-.7v1.5h.9c0,0,.2,0,.3,0,0,0,.1,0,.2-.1.1,0,.2-.2.2-.3v-.4h0Z"/>
          <path id="path37" class="cls-3" d="M216.4,220.6c0,.8-.3,1.5-.8,1.9-.5.5-1.3.7-2.2.7s-1.7-.3-2.2-.7c-.5-.5-.8-1.1-.8-1.9s.3-1.5.8-1.9c.5-.5,1.3-.7,2.2-.7s1.7.3,2.2.7c.5.5.8,1.1.8,1.9ZM214.7,220.6c0-.3,0-.5-.1-.8,0-.2-.2-.4-.3-.5s-.3-.3-.5-.3c-.2,0-.3,0-.5,0s-.4,0-.5,0c-.1,0-.3.1-.5.3-.1.1-.3.3-.3.5s-.1.5-.1.8,0,.6.1.8c0,.2.2.4.3.5s.3.3.5.3c.2,0,.3,0,.5,0s.3,0,.5,0c.2,0,.3-.2.5-.3s.3-.3.3-.5.1-.5.1-.8Z"/>
          <path id="path39" class="cls-3" d="M219.7,223.2c-.5,0-.9,0-1.3-.1-.3,0-.7-.2-1-.3v-1.2h.1c.3.2.7.4,1.1.5s.7.2,1.1.2.2,0,.3,0,.3,0,.3,0c.1,0,.2,0,.3-.1s.1-.1.1-.3,0-.3-.2-.3c-.1,0-.3-.1-.5-.2-.2,0-.5,0-.7-.1-.3,0-.5,0-.7-.1-.5-.1-.8-.3-1.1-.5-.2-.3-.3-.5-.3-.9s.3-.9.7-1.2c.5-.3,1.1-.5,1.9-.5s.7,0,1.1,0,.7.1,1,.3v1.2h-.1c-.2-.1-.5-.3-.9-.4-.3-.1-.7-.2-1-.2h-.4c-.1,0-.2,0-.3,0,0,0-.2,0-.3.1,0,0-.1.1-.1.3s0,.3.2.3c.1,0,.3.1.7.2.2,0,.4,0,.6.1.2,0,.4,0,.6.1.5.1.7.3,1,.5.2.2.3.5.3.9,0,.5-.3.9-.7,1.2-.5.3-1.1.5-2,.5h0Z"/>
          <path id="path41" class="cls-3" d="M224.9,223.2v-4.1h-1.9v-1h5.3v1h-1.9v4.1h-1.6,0Z"/>
          <path id="path43" class="cls-3" d="M229.5,223.2v-5.1h4.2v1h-2.7v.9h2.5v1h-2.5v1.3h2.7v1h-4.2Z"/>
        </g>
      </g>
    </g>
  </g>
</svg>