<?xml version="1.0" encoding="UTF-8"?>
<svg xmlns="http://www.w3.org/2000/svg" version="1.1" viewBox="0 0 400 300">
  <defs>
    <style>
      .cls-1 {
        fill: #fff;
      }

      .cls-2 {
        fill: #feb836;
      }

      .cls-3 {
        fill: #0d2a75;
      }
    </style>
  </defs>
  <!-- Generator: Adobe Illustrator 28.6.0, SVG Export Plug-In . SVG Version: 1.2.0 Build 709)  -->
  <g>
    <g id="Layer_1">
      <g id="Layer_1-2" data-name="Layer_1">
        <path class="cls-3" d="M343.2,80.8H56.9c-9,0-16.4,7.3-16.4,16.4v158.5c0,9,7.3,16.4,16.4,16.4h286.3c9,0,16.3-7.3,16.3-16.4V97.1c0-9-7.3-16.3-16.3-16.3h0Z"/>
        <path class="cls-1" d="M201.3,249.6c-40.4,0-73.2-32.8-73.2-73.2s32.8-73.2,73.2-73.2,73.2,32.8,73.2,73.2-32.8,73.2-73.2,73.2Z"/>
        <path class="cls-3" d="M251.2,158.3v-2.3c0-10.8-6.3-21-21.4-21h-22.8l-18.5,84.2h35.3c12,0,21.8-9.8,21.8-21.8v-2.6c0-6.9-3.3-13.4-8.8-17.5,8.6-2.4,14.4-10.2,14.4-19h0ZM231.8,195.7c-1,12.3-15,13.9-27.5,12.5l5.5-25.1h8.3c4.5.1,14.7.5,13.7,12.6ZM239.4,158.9c-1,12.3-15,13.9-27.5,12.5l5.5-25.1h8.2c4.6.1,14.8.5,13.8,12.6ZM184.9,146.4c-.7,0-1.3-.1-2-.1-12.2,0-21.7,5.9-21.7,14.9s7,14.5,17.1,16l-2.2,10.2c-19.9-1.5-27.4-13.8-27.4-26.2s14.1-26.3,33.2-26.3,4-.1,5.3,0l-2.3,11.5h0Z"/>
        <path class="cls-2" d="M184.7,146.4l2.5-11.5h12.8l-2.5,11.5h-12.8ZM191.1,177.2l-9.3,41.9h-12.8l9.4-41.9h12.7ZM98.6,147.7h-19.2c-5.5,0-10-4.5-10-10v-19.2c0-5.5,4.5-10,10-10h19.3c5.5,0,10,4.5,10,10v19.3c0,5.5-4.6,9.9-10.1,9.9Z"/>
      </g>
    </g>
  </g>
</svg>