<?xml version="1.0" encoding="UTF-8"?>
<svg id="Layer_2" xmlns="http://www.w3.org/2000/svg" viewBox="0 0 87.99 84.11">
  <defs>
    <style>
      .cls-1 {
        fill: #fff;
      }
    </style>
  </defs>
  <g id="Layer_1-2" data-name="Layer_1">
    <g>
      <path class="cls-1" d="M40.08.14c2.16,0,4.33-.04,6.49.01,1.54.04,3.31-.48,4.29,1.32,1.01,1.85-.44,3-1.35,4.24-7.32,10.02-14.66,20.01-22,30.01-3.77,5.15-3.79,7.58-.07,12.65,7.39,10.08,14.79,20.15,22.17,30.24.86,1.17,2.16,2.26,1.32,4-.84,1.75-2.47,1.43-3.94,1.44-4.7.02-9.41-.07-14.11.05-1.97.05-3.27-.53-4.47-2.18-9.05-12.48-18.17-24.9-27.34-37.28-1.32-1.78-1.48-3.09-.09-4.96C10.22,27.23,19.38,14.72,28.49,2.18,29.63.61,30.87.01,32.74.11c2.44.12,4.89.03,7.33.03Z"/>
      <path class="cls-1" d="M63.71,5.03c1.57-3.68,3.66-5.34,7.53-4.99,4.38.4,8.83.1,13.25.08,1.86,0,3.55.3,3.48,2.63-.07,2.19-1.68,2.3-3.43,2.29-6.86-.05-13.71-.02-20.83-.02Z"/>
      <path class="cls-1" d="M63.23,79.18c7.98,0,15.22,0,22.46,0,1.58,0,2.2.95,2.29,2.29.09,1.41-.67,2.49-2.1,2.51-6.02.09-12.05.22-18.06-.03-2.31-.09-2.71-2.79-4.6-4.77Z"/>
      <path class="cls-1" d="M67.83,30.49c-1.04,3.1-2.87,3.91-5.7,3.82-6.54-.21-13.09-.07-19.89-.07,1.09-2.64,2.44-3.92,5.32-3.83,6.66.23,13.33.07,20.27.07Z"/>
      <path class="cls-1" d="M56.56,14.85c.98-3.04,2.72-3.95,5.58-3.86,6.54.22,13.1.07,19.9.07-.95,2.5-2.13,3.94-5.03,3.85-6.73-.2-13.47-.06-20.44-.06Z"/>
      <path class="cls-1" d="M64.23,35.36c-1.02,3.14-2.84,3.95-5.66,3.86-6.53-.21-13.07-.07-19.98-.07,1.23-2.49,2.31-3.96,5.15-3.87,6.74.23,13.5.07,20.49.07Z"/>
      <path class="cls-1" d="M38.69,45.05c7.53,0,14.68.07,21.82-.04,2.48-.04,2.5,2.13,3.7,3.24-.59.98-1.42.57-2.08.57-6.02.04-12.04-.14-18.05.09-2.84.11-4.29-1.06-5.38-3.87Z"/>
      <path class="cls-1" d="M56.73,69.35c7.29,0,14.57,0,21.86,0,1.91,0,2.32,1.7,3.13,2.87.48.69-.22.91-.84.91-7.04,0-14.08.05-21.11-.03-1.98-.02-2.04-2.21-3.33-3.07.1-.23.2-.46.3-.69Z"/>
      <path class="cls-1" d="M42.3,49.99c7.52,0,14.81,0,22.11,0,2.1,0,2.09,2.13,3.34,2.92-.61,1.13-1.46.72-2.12.73-5.92.04-11.84-.14-17.75.09-2.76.11-4.47-.77-5.58-3.74Z"/>
      <path class="cls-1" d="M85.64,78.02c-7.45,0-14.57-.04-21.69.02-2.34.02-2.68-1.93-3.92-3.41,1.42-.67,2.73-.35,3.96-.36,5.44-.04,10.88-.02,16.33-.02q3.44,0,5.33,3.77Z"/>
      <path class="cls-1" d="M49.23,59.65c7.73,0,15.02-.04,22.3.03,2.08.02,2.36,2.05,3.77,3.76-4.22,0-7.91,0-11.6,0-3.1,0-6.22-.21-9.29.06-2.87.26-3.86-1.45-5.18-3.85Z"/>
      <path class="cls-1" d="M85.72,6.18c-1.13,2.66-2.47,3.95-5.34,3.85-6.64-.23-13.29-.07-20.22-.07.96-2.44,2-3.92,4.85-3.84,6.81.2,13.62.06,20.72.06Z"/>
      <path class="cls-1" d="M49.29,24.56c1.23-2.48,2.31-3.97,5.15-3.87,6.74.22,13.49.07,20.53.07-1.04,2.52-2.18,3.98-5.14,3.88-6.71-.24-13.44-.08-20.54-.08Z"/>
      <path class="cls-1" d="M49.27,43.91c-3.37,0-6.75-.03-10.12.02-1.38.02-2.53-.23-2.5-1.86.03-1.66,1.25-1.79,2.59-1.78,6.84.03,13.68.04,20.52-.01,1.42-.01,1.85.36,1.89,1.87.05,1.68-.69,1.8-1.98,1.78-3.47-.04-6.93-.02-10.4-.02Z"/>
      <path class="cls-1" d="M52.76,64.6c7.76,0,15.03-.02,22.3.02,2.12.01,2.39,1.94,3.6,3.59-7.73,0-15,.03-22.27-.02-2.09-.02-2.35-1.99-3.62-3.59Z"/>
      <path class="cls-1" d="M45.94,29.34c.98-2.55,2.16-3.78,4.84-3.7,6.76.2,13.53.07,20.52.07-.92,2.46-2.12,3.8-4.91,3.7-5.82-.2-11.66-.06-17.49-.06-.9,0-1.8,0-2.97,0Z"/>
      <path class="cls-1" d="M53.01,19.61c1.06-2.69,2.52-3.76,5.22-3.67,6.64.21,13.3.07,20.2.07-1.01,2.42-2.12,3.75-4.83,3.67-6.77-.2-13.54-.07-20.6-.07Z"/>
      <path class="cls-1" d="M71.37,58.5c-7.62,0-15,.05-22.37-.04-1.8-.02-1.95-1.98-3.36-3.14,1.68-.69,2.98-.42,4.22-.43,5.45-.04,10.91.15,16.35-.09,2.77-.12,4.09,1.11,5.16,3.69Z"/>
    </g>
  </g>
</svg>