<?xml version="1.0" encoding="UTF-8"?>
<svg id="Layer_2" xmlns="http://www.w3.org/2000/svg" viewBox="0 0 234.79 58.83">
  <defs>
    <style>
      .cls-1 {
        fill: #6d1a3d;
      }
    </style>
  </defs>
  <g id="Layer_1-2" data-name="Layer_1">
    <g>
      <g>
        <path class="cls-1" d="M28.03.1c1.51,0,3.03-.03,4.54.01,1.08.03,2.31-.34,3,.92.7,1.29-.31,2.1-.94,2.96-5.12,7.01-10.26,14-15.39,21-2.64,3.6-2.65,5.3-.05,8.85,5.17,7.05,10.35,14.1,15.51,21.15.6.82,1.51,1.58.92,2.8-.59,1.22-1.72,1-2.76,1.01-3.29.01-6.58-.05-9.87.03-1.38.03-2.29-.37-3.13-1.53C13.54,48.58,7.16,39.89.74,31.22c-.92-1.25-1.03-2.16-.06-3.47C7.15,19.05,13.56,10.3,19.93,1.52,20.73.43,21.6,0,22.9.07c1.71.09,3.42.02,5.13.02Z"/>
        <path class="cls-1" d="M44.57,3.52c1.1-2.57,2.56-3.73,5.27-3.49,3.07.28,6.18.07,9.27.06,1.3,0,2.48.21,2.43,1.84-.05,1.53-1.17,1.61-2.4,1.6-4.8-.04-9.59-.01-14.57-.01Z"/>
        <path class="cls-1" d="M44.23,55.38c5.59,0,10.65,0,15.71,0,1.1,0,1.54.67,1.6,1.6.07.99-.47,1.74-1.47,1.75-4.21.06-8.43.15-12.63-.02-1.62-.07-1.9-1.95-3.22-3.33Z"/>
        <path class="cls-1" d="M47.44,21.33c-.73,2.17-2.01,2.73-3.99,2.67-4.58-.14-9.16-.05-13.91-.05.76-1.85,1.71-2.74,3.72-2.68,4.66.16,9.32.05,14.18.05Z"/>
        <path class="cls-1" d="M39.56,10.39c.69-2.13,1.9-2.77,3.9-2.7,4.58.15,9.16.05,13.92.05-.66,1.75-1.49,2.76-3.52,2.69-4.71-.14-9.42-.04-14.3-.04Z"/>
        <path class="cls-1" d="M44.93,24.73c-.71,2.2-1.98,2.76-3.96,2.7-4.57-.15-9.15-.05-13.98-.05.86-1.74,1.62-2.77,3.6-2.7,4.72.16,9.44.05,14.33.05Z"/>
        <path class="cls-1" d="M27.06,31.51c5.27,0,10.27.05,15.26-.03,1.73-.03,1.75,1.49,2.59,2.27-.41.69-1,.4-1.46.4-4.21.03-8.43-.1-12.63.07-1.99.08-3-.74-3.76-2.71Z"/>
        <path class="cls-1" d="M39.68,48.51c5.1,0,10.19,0,15.29,0,1.34,0,1.62,1.19,2.19,2.01.33.48-.16.64-.59.64-4.92,0-9.85.03-14.77-.02-1.38-.01-1.42-1.54-2.33-2.15.07-.16.14-.32.21-.48Z"/>
        <path class="cls-1" d="M29.59,34.97c5.26,0,10.36,0,15.47,0,1.47,0,1.46,1.49,2.33,2.05-.43.79-1.02.51-1.48.51-4.14.03-8.28-.09-12.41.06-1.93.07-3.13-.54-3.9-2.62Z"/>
        <path class="cls-1" d="M59.91,54.58c-5.21,0-10.19-.03-15.18.01-1.64.01-1.87-1.35-2.74-2.38.99-.47,1.91-.24,2.77-.25,3.81-.03,7.61-.01,11.42-.01q2.4,0,3.73,2.64Z"/>
        <path class="cls-1" d="M34.44,41.73c5.41,0,10.51-.03,15.6.02,1.45.01,1.65,1.44,2.64,2.63-2.95,0-5.53,0-8.12,0-2.17,0-4.35-.15-6.5.04-2.01.18-2.7-1.01-3.62-2.7Z"/>
        <path class="cls-1" d="M59.96,4.32c-.79,1.86-1.73,2.76-3.73,2.69-4.65-.16-9.3-.05-14.15-.05.67-1.71,1.4-2.74,3.39-2.69,4.76.14,9.53.04,14.49.04Z"/>
        <path class="cls-1" d="M34.48,17.18c.86-1.73,1.61-2.77,3.6-2.71,4.72.16,9.44.05,14.36.05-.73,1.76-1.52,2.78-3.6,2.71-4.7-.17-9.4-.05-14.37-.05Z"/>
        <path class="cls-1" d="M34.47,30.72c-2.36,0-4.72-.02-7.08.01-.96.01-1.77-.16-1.75-1.3.02-1.16.88-1.25,1.81-1.25,4.78.02,9.57.03,14.35,0,.99,0,1.3.25,1.33,1.31.03,1.17-.48,1.26-1.38,1.25-2.42-.03-4.85-.01-7.27-.01Z"/>
        <path class="cls-1" d="M36.9,45.18c5.43,0,10.51-.02,15.6.01,1.48,0,1.67,1.36,2.52,2.51-5.41,0-10.49.02-15.58-.02-1.46-.01-1.65-1.39-2.54-2.51Z"/>
        <path class="cls-1" d="M32.13,20.52c.69-1.78,1.51-2.64,3.39-2.59,4.73.14,9.46.05,14.36.05-.64,1.72-1.48,2.66-3.44,2.59-4.07-.14-8.15-.04-12.23-.04-.63,0-1.26,0-2.07,0Z"/>
        <path class="cls-1" d="M37.08,13.72c.74-1.88,1.76-2.63,3.65-2.57,4.65.14,9.3.05,14.13.05-.71,1.69-1.48,2.63-3.38,2.57-4.73-.14-9.47-.05-14.41-.05Z"/>
        <path class="cls-1" d="M49.92,40.92c-5.33,0-10.49.04-15.65-.03-1.26-.01-1.37-1.39-2.35-2.19,1.18-.48,2.09-.3,2.95-.3,3.81-.02,7.63.11,11.44-.06,1.94-.09,2.86.78,3.61,2.58Z"/>
      </g>
      <g>
        <g>
          <path class="cls-1" d="M74.67,48.28c-.48,0-.86-.13-1.11-.4-.21-.22-.41-.62-.6-1.19-.22.29-.36.46-.41.5-.19.16-.47.24-.84.25-.41.01-.62-.12-.62-.39,0-.5.25-.94.74-1.31.07-.05.34-.21.82-.46.02-.08.03-.22.02-.4s0-.32.02-.41c.04-.17.08-.25.13-.25.04,0,.08.09.11.28.13.8.27,1.38.43,1.74.29.69.72,1.07,1.29,1.13v.91ZM72.86,46.3c-.04-.17-.09-.4-.15-.68-.06.14-.17.28-.33.42l-.54.42c.24.03.42.03.55,0,.12-.02.27-.07.46-.15Z"/>
          <path class="cls-1" d="M75.07,42.52c.02.05,0,.18-.07.37s-.13.29-.18.29c-.06,0-.18-.07-.37-.17-.2-.12-.3-.21-.32-.27-.02-.05.09-.28.32-.69.21.1.42.26.62.49ZM76.87,48.28c-.13,0-.31-.07-.56-.2s-.42-.2-.53-.2c-.09,0-.25.07-.48.2s-.44.2-.63.2v-.92c.28-.06.5-.12.63-.2.16-.09.28-.15.36-.17.03,0,.06-.01.09-.01.11,0,.29.06.55.19s.45.19.56.19v.91ZM76.02,42.13c0,.07-.03.18-.1.35-.08.21-.17.32-.26.33-.09,0-.2-.07-.34-.2-.12-.11-.21-.21-.27-.31.15-.4.28-.63.37-.67.04,0,.14.06.3.17.18.13.28.23.29.32Z"/>
          <path class="cls-1" d="M79.34,48.28c-.08,0-.2-.03-.37-.09-.21-.08-.39-.18-.52-.29-.05-.05-.16-.23-.32-.55-.23.34-.36.53-.39.55-.24.25-.53.38-.87.38v-.91c.26,0,.5-.05.73-.15.15-.06.29-.23.44-.5.13-.24.24-.37.32-.37.03,0,.05,0,.09.03,0,.02,0,.07-.01.15s-.01.15-.01.2c.01.09.13.21.34.38.23.17.42.26.57.26v.91ZM78.05,49.85c.01.06-.01.18-.08.37s-.13.28-.19.28-.18-.06-.37-.18-.29-.21-.3-.27c-.01-.03.03-.15.14-.36.09-.19.16-.29.19-.33.21.11.41.27.62.49ZM79.01,49.52c0,.06-.03.18-.09.34-.08.21-.17.33-.26.34-.09-.01-.2-.08-.34-.2-.13-.11-.22-.21-.27-.3.15-.4.28-.63.38-.68.04,0,.13.06.29.18.18.13.28.24.29.32Z"/>
          <path class="cls-1" d="M79.92,42.58c.01.05-.04.16-.15.33s-.21.27-.29.3c-.16-.12-.36-.28-.62-.48-.03-.06.11-.28.42-.64.23.11.44.27.64.49ZM81.72,46.15c0,.2-.01.37-.04.51-.07.24-.11.38-.14.44-.05.15-.12.27-.2.36-.24.22-.59.42-1.03.59-.41.16-.73.23-.97.23v-.91c.49,0,.93-.09,1.33-.27.31-.15.54-.33.69-.54,0-.03,0-.07,0-.1,0-.31-.11-.59-.34-.83.01.34-.05.58-.17.73-.07.09-.22.15-.43.17-.04,0-.07,0-.1,0-.38,0-.56-.32-.56-.95,0-.22.07-.48.22-.78.17-.35.37-.54.58-.55.26-.02.52.15.76.5.26.39.39.85.39,1.38ZM81,42.39s-.05.11-.16.25c-.12.16-.21.27-.28.33-.17-.12-.38-.29-.63-.5.04-.09.11-.21.22-.36s.18-.24.22-.25c.19.05.4.23.64.54ZM80.81,45.44c-.06-.07-.16-.15-.3-.22-.07.03-.15.09-.24.17s-.13.15-.13.19.05.07.16.07c.26,0,.43-.07.5-.21Z"/>
          <path class="cls-1" d="M85.27,48.28c-.25-.02-.44-.04-.58-.07,0,0,0,.09,0,.29,0,.67-.2,1.29-.6,1.86-.27.38-.63.65-1.09.81-.33.01-.8,0-1.4-.07-.15-.05-.22-.11-.22-.15,0-.06.22-.15.66-.29.57-.18,1.01-.35,1.31-.52.51-.29.84-.64.98-1.05.01-.46-.06-.86-.21-1.18-.11-.2-.22-.4-.32-.6.01-.14.03-.26.05-.37.05-.26.1-.42.16-.49,0,0,.02-.01.03-.02.04,0,.11.09.23.28.13.21.24.35.33.42.13.06.35.14.67.23v.91Z"/>
          <path class="cls-1" d="M85.39,43.52c.01.06-.01.18-.08.36-.07.19-.14.29-.21.29-.05,0-.17-.07-.36-.18-.19-.12-.29-.21-.31-.26-.04-.08.07-.32.32-.69.2.09.41.25.63.48ZM86.25,46.98c0,.36-.07.69-.21.99-.1.21-.36.31-.77.31v-.91c.34,0,.52-.09.56-.27-.04-.12-.12-.27-.24-.43-.09-.13-.15-.27-.17-.41.05-.16.13-.36.25-.62.01,0,.03-.01.04-.01.1,0,.2.11.31.32.12.25.2.6.24,1.03ZM86.45,43.12c0,.07-.03.18-.09.34-.08.21-.17.33-.27.34-.08,0-.2-.07-.34-.2-.13-.12-.22-.22-.26-.31.03-.09.08-.22.17-.38.09-.18.16-.27.21-.29.04,0,.13.06.29.17.17.13.27.23.28.32Z"/>
          <path class="cls-1" d="M90.36,46.97c0,.46-.12,1.07-.36,1.83-.35.6-.67,1.03-.95,1.29-.38.35-.8.53-1.26.53-.19,0-.74-.08-1.66-.24-.07-.01-.11-.05-.11-.1,0-.09.05-.14.15-.14.47,0,.78-.02.93-.06.63-.16,1.2-.44,1.69-.84.51-.41.88-.89,1.11-1.45.05-.11.02-.28-.09-.51-.08.24-.15.39-.19.45-.1.16-.24.24-.42.24-.24,0-.45-.1-.61-.31-.14-.18-.2-.36-.18-.54.04-.34.14-.66.29-.95.17-.32.37-.53.61-.65.23,0,.47.17.7.5.22.33.33.64.33.95ZM89.47,46.84c-.05-.13-.17-.2-.36-.2-.07.11-.1.18-.1.2,0,.1.1.15.28.15.05,0,.11-.05.17-.15Z"/>
          <path class="cls-1" d="M96.18,48.28c-.29,0-.54-.17-.75-.51.06.87.08,1.45.07,1.73.04.38-.1.76-.44,1.16-.42.48-.98.72-1.69.72-1.01,0-1.55-.55-1.63-1.64-.01-.16.07-.5.25-1.02.18-.53.32-.8.43-.8.02,0,.03,0,.05.03.05.07.05.14,0,.21-.21.51-.31.88-.31,1.12,0,.76.41,1.14,1.22,1.14.87,0,1.48-.31,1.82-.92-.05-.87-.16-1.96-.32-3.25-.15-1.19-.3-2.38-.45-3.57.01-.11.05-.34.11-.69,0-.03.02-.05.03-.05.05,0,.12.11.19.33.1.31.21.94.33,1.88.13,1.01.24,1.72.35,2.11.18.68.43,1.06.75,1.13v.91Z"/>
          <path class="cls-1" d="M103.22,45.87c-.08.36-.24.73-.46,1.13-.72.69-1.77,1.06-3.14,1.11-.09,0-.29-.01-.6-.05s-.47-.06-.46-.06c-.07.17-.12.29-.16.35-.06.1-.15.2-.27.31,0,0-.01.01-.02.01-.03,0-.05-.03-.07-.09-.01-.07-.01-.12.01-.16.03-.08.1-.25.23-.52-.2-.12-.39-.27-.57-.45-.1.3-.35.52-.74.68-.29.11-.56.17-.79.17v-.91c.44,0,.8-.1,1.1-.29.03-.01.11-.1.25-.25.11-.11.22-.18.33-.21,0,0,.17.06.48.2s.49.21.52.21c.21-.32.66-.75,1.36-1.29.76-.58,1.31-.88,1.66-.88.24,0,.52.1.84.3.35.21.52.43.52.63,0,.03,0,.05-.01.07ZM102.51,46.4c0-.09-.03-.15-.08-.2-.32-.26-.61-.39-.88-.39s-.61.14-1.02.42c-.38.29-.76.58-1.15.87.4.04.65.05.75.04.89-.1,1.68-.35,2.38-.75Z"/>
          <path class="cls-1" d="M105.15,47.61c.02.23-.02.44-.1.62-.04.09-.08.13-.11.13-.08,0-.16-.29-.23-.87-.08-.72-.16-1.44-.23-2.16-.05-.44-.12-.99-.21-1.64-.07-.48-.1-.76-.1-.84,0-.34.05-.61.16-.81.04-.07.07-.11.09-.11.05,0,.1.2.16.61.01.09.11.83.28,2.23.15,1.22.25,2.17.3,2.84Z"/>
          <path class="cls-1" d="M108.43,48.28h-.25c-.03.28-.22.67-.57,1.16-.43.6-.88.98-1.38,1.14-.42-.04-.88-.13-1.38-.26-.49-.12-.74-.21-.74-.27,0-.02.05-.03.15-.03.3,0,.61,0,.91.01.29,0,.55-.03.77-.1.29-.09.66-.32,1.11-.7.44-.38.71-.69.82-.95-.21.01-.35.02-.42.02-.68,0-1.02-.3-1.02-.91,0-.2.09-.47.26-.79.2-.37.4-.57.61-.61.11-.02.27.12.49.4.22.31.37.63.45.97h.18v.91ZM107.49,47.35c0-.09-.03-.19-.09-.29-.07-.12-.15-.17-.25-.16-.15,0-.23.11-.25.3.09.08.21.13.35.16.12.02.19.02.23-.01Z"/>
          <path class="cls-1" d="M108.84,42.52c.02.05,0,.18-.07.37s-.13.29-.18.29c-.06,0-.18-.07-.37-.17-.2-.12-.3-.21-.32-.27-.02-.05.09-.28.32-.69.21.1.42.26.62.49ZM110.63,48.28c-.13,0-.31-.07-.56-.2s-.42-.2-.53-.2c-.09,0-.25.07-.48.2s-.44.2-.63.2v-.92c.28-.06.5-.12.63-.2.16-.09.28-.15.36-.17.03,0,.06-.01.09-.01.11,0,.29.06.55.19s.45.19.56.19v.91ZM109.78,42.13c0,.07-.03.18-.1.35-.08.21-.17.32-.26.33-.09,0-.2-.07-.34-.2-.12-.11-.21-.21-.27-.31.15-.4.28-.63.37-.67.04,0,.14.06.3.17.18.13.28.23.29.32Z"/>
          <path class="cls-1" d="M113.53,47.38c.01.13,0,.29-.05.5-.04.16-.09.24-.15.24-.03,0-.08-.02-.17-.05-.22-.09-.54-.24-.95-.43-.16.1-.4.22-.72.37-.41.18-.69.27-.85.27v-.91c.22,0,.43-.05.64-.14.36-.16.63-.27.82-.33-.17-.92-.41-2.36-.72-4.32-.08-.15-.13-.36-.15-.63.03-.17.06-.29.08-.34.04-.11.1-.22.19-.34.04-.05.06-.08.08-.08,0,0,.03.09.07.27.04.2.13.34.27.43.08.04.11.11.11.21,0,.09-.03.21-.1.37-.05.11-.1.22-.15.33.08.43.23,1.29.45,2.57.11.71.23,1.16.37,1.34.05.07.15.13.29.2.23.11.39.19.49.25s.15.13.16.23Z"/>
          <path class="cls-1" d="M115.45,47.61c.02.23-.02.44-.1.62-.04.09-.08.13-.11.13-.08,0-.16-.29-.23-.87-.08-.72-.16-1.44-.23-2.16-.05-.44-.12-.99-.21-1.64-.07-.48-.1-.76-.1-.84,0-.34.05-.61.16-.81.04-.07.07-.11.09-.11.05,0,.1.2.16.61.01.09.11.83.28,2.23.15,1.22.25,2.17.3,2.84Z"/>
          <path class="cls-1" d="M135.25,48.28c-.06,0-.1,0-.13.02.03.14.05.37.08.68,0,.44-.09.88-.29,1.34-.18.42-.37.71-.58.86-.79.57-1.98,1.05-3.57,1.42-1.58.37-3.22.56-4.94.59-2.34.04-4.34-.23-6-.81-.4-.14-.87-.41-1.41-.81-.22-.17-.66-.53-1.31-1.08-.21-.18-.31-.34-.31-.49,0-.09.05-.13.14-.13.11,0,.25.06.43.17,1.23.81,2.6,1.38,4.1,1.72,1.21.27,2.64.4,4.3.4,2.02,0,4.02-.26,5.98-.78,2.04-.54,3.06-1.13,3.06-1.75,0-.23-.09-.51-.28-.84-.32-.56-.51-.89-.56-1,.06-.15.16-.43.31-.85.02-.11.05-.16.1-.16.06,0,.22.2.49.6.15,0,.29,0,.4,0v.91ZM133.46,44.22c-.23.42-.38.62-.46.61-.06-.01-.18-.07-.37-.18-.21-.13-.31-.22-.28-.29.03-.09.09-.21.19-.36.11-.19.2-.29.26-.29.01,0,.02,0,.03.01.13.07.25.14.38.21.17.1.26.19.26.25,0,.01,0,.03-.01.04Z"/>
          <path class="cls-1" d="M135.55,52.18c.02.06,0,.18-.07.37s-.13.28-.19.28c-.05,0-.17-.07-.36-.17-.2-.12-.3-.21-.32-.27-.03-.08.08-.3.33-.68.21.09.42.25.61.48ZM136.24,46.98c0,.36-.07.69-.21.99-.1.21-.36.31-.77.31v-.91c.34,0,.52-.09.56-.27-.04-.12-.12-.27-.24-.43-.09-.13-.15-.27-.17-.41.05-.16.13-.36.25-.62.01,0,.03-.01.04-.01.1,0,.2.11.31.32.12.25.2.6.24,1.03ZM136.56,51.87c0,.06-.03.17-.1.34-.08.21-.17.33-.26.34-.09-.01-.2-.08-.34-.21-.13-.12-.22-.22-.26-.3.03-.09.09-.22.17-.39.09-.18.15-.28.19-.29.04,0,.14.06.31.18.18.13.27.24.29.33Z"/>
          <path class="cls-1" d="M139.51,48.28h-.25c-.03.28-.22.67-.57,1.16-.43.6-.88.98-1.38,1.14-.42-.04-.88-.13-1.38-.26-.49-.12-.74-.21-.74-.27,0-.02.05-.03.15-.03.3,0,.61,0,.91.01.29,0,.55-.03.77-.1.29-.09.66-.32,1.11-.7s.71-.69.82-.95c-.21.01-.35.02-.42.02-.68,0-1.02-.3-1.02-.91,0-.2.09-.47.26-.79.2-.37.4-.57.61-.61.11-.02.27.12.49.4.22.31.37.63.45.97h.18v.91ZM138.57,47.35c0-.09-.03-.19-.09-.29-.07-.12-.15-.17-.25-.16-.15,0-.23.11-.25.3.09.08.21.13.35.16.12.02.19.02.23-.01Z"/>
          <path class="cls-1" d="M145.16,38.93c.09,0,.14.07.14.19,0,.09-.06.3-.17.64-.36.26-1.28.87-2.76,1.82-1.05.62-2.2,1.32-3.46,2.11.13.15.54.4,1.23.75.86.43,1.39.72,1.61.86.64.42,1.31.92,2.02,1.51.4.33.76.53,1.07.6v.88c-.23-.04-.48-.09-.75-.16-.32-.23-.84-.64-1.55-1.22-.53-.43-.97-.76-1.33-.97.01.08.05.19.1.33.04.1.05.2.05.31,0,.09-.01.22-.03.37-.07.49-.35.85-.84,1.09-.33.16-.65.25-.96.25v-.91c.62,0,1.11-.23,1.47-.68,0-.22-.21-.5-.64-.85-.23-.19-.66-.49-1.31-.91-.55-.36-.88-.61-1.02-.75-.04-.4.01-.65.16-.76.74-.55,1.72-1.19,2.93-1.92,1.5-.9,2.41-1.46,2.73-1.67.29-.2.73-.49,1.31-.88Z"/>
          <path class="cls-1" d="M145.22,42.52c.02.05,0,.18-.07.37s-.13.29-.18.29c-.06,0-.18-.07-.37-.17-.2-.12-.3-.21-.32-.27-.02-.05.09-.28.32-.69.21.1.42.26.62.49ZM147.02,48.28c-.13,0-.31-.07-.56-.2s-.42-.2-.53-.2c-.09,0-.25.07-.48.2s-.44.2-.63.2v-.92c.28-.06.5-.12.63-.2.16-.09.28-.15.36-.17.03,0,.06-.01.09-.01.11,0,.29.06.55.19s.45.19.56.19v.91ZM146.17,42.13c0,.07-.03.18-.1.35-.08.21-.17.32-.26.33-.09,0-.2-.07-.34-.2-.12-.11-.21-.21-.27-.31.15-.4.28-.63.37-.67.04,0,.14.06.3.17.18.13.28.23.29.32Z"/>
          <path class="cls-1" d="M147.91,47.21c-.05.67-.35,1.03-.88,1.07v-.91c.14,0,.27-.03.39-.1s.18-.15.18-.24c-.18-.84-.41-2.04-.68-3.61-.05-.19-.12-.34-.21-.43,0,0,.03-.19.09-.56.05-.31.11-.47.18-.47.03,0,.05.02.09.06s.06.1.07.18.03.14.07.18.1.1.21.16c.09.06.14.09.14.1,0,.11,0,.19-.02.27-.03.15-.09.34-.19.58.12.54.24,1.08.37,1.62.15.7.22,1.28.22,1.74,0,.12,0,.24-.02.35Z"/>
          <path class="cls-1" d="M149.87,47.61c.02.23-.02.44-.1.62-.04.09-.08.13-.11.13-.08,0-.16-.29-.23-.87-.08-.72-.16-1.44-.23-2.16-.05-.44-.12-.99-.21-1.64-.07-.48-.1-.76-.1-.84,0-.34.05-.61.16-.81.04-.07.07-.11.09-.11.05,0,.1.2.16.61.01.09.11.83.28,2.23.15,1.22.25,2.17.3,2.84Z"/>
          <path class="cls-1" d="M154.81,48.28c-.25-.02-.44-.04-.58-.07,0,0,0,.09,0,.29,0,.67-.2,1.29-.6,1.86-.27.38-.63.65-1.09.81-.33.01-.8,0-1.4-.07-.15-.05-.22-.11-.22-.15,0-.06.22-.15.66-.29.57-.18,1.01-.35,1.31-.52.51-.29.84-.64.98-1.05.01-.46-.06-.86-.21-1.18-.11-.2-.22-.4-.32-.6.01-.14.03-.26.05-.37.05-.26.1-.42.16-.49,0,0,.02-.01.03-.02.04,0,.11.09.23.28.13.21.24.35.33.42.13.06.35.14.67.23v.91Z"/>
          <path class="cls-1" d="M155.11,52.18c.02.06,0,.18-.07.37s-.13.28-.19.28c-.05,0-.17-.07-.36-.17-.2-.12-.3-.21-.32-.27-.03-.08.08-.3.33-.68.21.09.42.25.61.48ZM155.79,46.98c0,.36-.07.69-.21.99-.1.21-.36.31-.77.31v-.91c.34,0,.52-.09.56-.27-.04-.12-.12-.27-.24-.43-.09-.13-.15-.27-.17-.41.05-.16.13-.36.25-.62.01,0,.03-.01.04-.01.1,0,.2.11.31.32.12.25.2.6.24,1.03ZM156.12,51.87c0,.06-.03.17-.1.34-.08.21-.17.33-.26.34-.09-.01-.2-.08-.34-.21-.13-.12-.22-.22-.26-.3.03-.09.09-.22.17-.39.09-.18.15-.28.19-.29.04,0,.14.06.31.18.18.13.27.24.29.33Z"/>
          <path class="cls-1" d="M159.07,48.28h-.25c-.03.28-.22.67-.57,1.16-.43.6-.88.98-1.38,1.14-.42-.04-.88-.13-1.38-.26-.49-.12-.74-.21-.74-.27,0-.02.05-.03.15-.03.3,0,.61,0,.91.01.29,0,.55-.03.77-.1.29-.09.66-.32,1.11-.7s.71-.69.82-.95c-.21.01-.35.02-.42.02-.68,0-1.02-.3-1.02-.91,0-.2.09-.47.26-.79.2-.37.4-.57.61-.61.11-.02.27.12.49.4.22.31.37.63.45.97h.18v.91ZM158.13,47.35c0-.09-.03-.19-.09-.29-.07-.12-.15-.17-.25-.16-.15,0-.23.11-.25.3.09.08.21.13.35.16.12.02.19.02.23-.01Z"/>
          <path class="cls-1" d="M164.14,48.28s-.2,0-.45.03-.48.03-.7.03c-.47,0-.98-.04-1.51-.12-.12-.04-.29-.06-.5-.06-.18,0-.49.02-.93.06s-.77.06-.98.06v-.91c.2-.01.31-.02.34-.02.13-.12.32-.32.56-.6,0-.32-.11-.95-.32-1.88-.25-1.1-.41-1.95-.49-2.57-.1-.21-.18-.47-.25-.78.17-.56.28-.85.34-.85.02,0,.03.03.04.08.04.22.16.41.35.57.18.15.27.25.27.31,0,.09-.03.22-.08.39-.06.2-.13.32-.19.38,0,.12.09.62.26,1.51.16.84.25,1.28.26,1.33.06.44.09.75.08.95,0,0-.02.15-.06.43.48-.4.96-.79,1.45-1.19.41-.32.74-.48,1-.48.18,0,.39.08.64.24.3.19.45.41.45.66,0,.16-.07.37-.2.65-.2.42-.48.76-.86,1.04.19,0,.41-.01.67-.07.29-.06.55-.09.79-.09v.91ZM163.05,46.33c-.19-.18-.29-.27-.29-.27-.12-.08-.32-.12-.57-.12-.37,0-1.01.45-1.93,1.34.51-.01,1.09-.14,1.75-.38.62-.22.96-.41,1.04-.57Z"/>
          <path class="cls-1" d="M164.55,42.52c.02.05,0,.18-.07.37s-.13.29-.18.29c-.06,0-.18-.07-.37-.17-.2-.12-.3-.21-.32-.27-.02-.05.09-.28.32-.69.21.1.42.26.62.49ZM166.34,48.28c-.13,0-.31-.07-.56-.2s-.42-.2-.53-.2c-.09,0-.25.07-.48.2s-.44.2-.63.2v-.92c.28-.06.5-.12.63-.2.16-.09.28-.15.36-.17.03,0,.06-.01.09-.01.11,0,.29.06.55.19s.45.19.56.19v.91ZM165.49,42.13c0,.07-.03.18-.1.35-.08.21-.17.32-.26.33-.09,0-.2-.07-.34-.2-.12-.11-.21-.21-.27-.31.15-.4.28-.63.37-.67.04,0,.14.06.3.17.18.13.28.23.29.32Z"/>
          <path class="cls-1" d="M167.23,47.21c-.05.67-.35,1.03-.88,1.07v-.91c.14,0,.27-.03.39-.1s.18-.15.18-.24c-.18-.84-.41-2.04-.68-3.61-.05-.19-.12-.34-.21-.43,0,0,.03-.19.09-.56.05-.31.11-.47.18-.47.03,0,.05.02.09.06s.06.1.07.18.03.14.07.18.1.1.21.16c.09.06.14.09.14.1,0,.11,0,.19-.02.27-.03.15-.09.34-.19.58.12.54.24,1.08.37,1.62.15.7.22,1.28.22,1.74,0,.12,0,.24-.02.35Z"/>
          <path class="cls-1" d="M186.56,48.28c-.34,0-.63-.07-.87-.2-.14-.08-.31-.21-.52-.41-.19-.18-.34-.29-.46-.34-.09-.04-.31.09-.66.38-.37.31-.55.57-.55.79,0,.05.01.1.03.14.14.26.48.41,1.02.44.51.03.8.07.87.13s.15.15.22.29c.07.12.1.21.1.26,0,.36-.04.6-.13.72-.12.28-.36.53-.69.76-.84.56-2.11,1.05-3.8,1.46-1.5.36-2.76.54-3.76.54-2.82,0-4.96-.36-6.42-1.08-.31-.21-.61-.43-.91-.64-.43-.31-.81-.64-1.13-.99-.16-.18-.25-.31-.25-.39,0-.04.02-.07.07-.07.09,0,.23.07.4.21.76.61,1.92,1.1,3.47,1.45,1.51.35,3.1.52,4.78.5,1.56-.02,3.08-.22,4.58-.6,1.46-.38,2.58-.84,3.37-1.4,0-.04-.07-.09-.17-.15-.12-.06-.24-.09-.35-.08-.09.01-.18.02-.27.02-.38,0-.7-.09-.94-.27-.25-.19-.38-.44-.39-.75,0-.47.15-.98.47-1.52.37-.63.81-.95,1.31-.96.07,0,.27.15.6.44s.65.44.98.44v.91ZM183.73,53.13c.02.06,0,.18-.07.37s-.13.28-.19.28c-.06,0-.18-.06-.37-.18s-.29-.21-.3-.27c-.02-.04.09-.27.32-.68.19.09.4.25.62.49ZM185.2,44.09c-.1.32-.19.52-.27.59-.01,0-.03.01-.05.01-.12,0-.26-.04-.44-.11-.2-.08-.31-.17-.31-.26,0-.03,0-.05.03-.08.03-.05.1-.18.19-.41.06-.16.13-.24.21-.24.03,0,.05,0,.08.02l.39.19c.12.07.17.14.17.22,0,.02,0,.04-.01.07ZM185.11,52.89c0,.06-.03.18-.1.34-.08.21-.17.33-.26.34-.09-.01-.2-.08-.34-.21-.13-.11-.21-.21-.26-.29.16-.41.28-.64.37-.68.04,0,.14.06.3.18.18.13.28.24.29.32Z"/>
          <path class="cls-1" d="M191.43,45.74c-.07.35-.18.65-.35.91s-.33.45-.49.58c-.19.16-.55.33-1.06.51-.48.17-.94.3-1.37.38-.55.1-1.08.16-1.61.17v-.92c.07,0,.24,0,.5-.03.12-.11.27-.27.47-.48-.03-.42-.08-.84-.15-1.27-.24-1.33-.44-2.33-.58-2.98-.07-.17-.15-.43-.23-.78-.01-.16.01-.34.09-.51.03-.09.1-.2.2-.32.05-.01.07.02.08.11.01.12.03.19.05.21.09.08.19.16.28.25s.14.17.14.26c0,.06-.07.32-.22.78.15.59.35,1.58.61,2.97.07.46.07.82.01,1.11.11-.05.29-.22.56-.49.32-.34.56-.57.71-.69.33-.27.7-.4,1.11-.4.2,0,.44.05.72.15.36.13.55.3.55.51ZM190.73,46.37c-.07-.07-.14-.13-.21-.19-.13-.09-.26-.16-.39-.21-.18-.06-.35-.07-.5-.04-.44.08-1.04.53-1.8,1.33.22-.03.68-.12,1.38-.29.7-.21,1.21-.42,1.52-.6Z"/>
          <path class="cls-1" d="M194.73,48.28h-.25c-.03.28-.22.67-.57,1.16-.43.6-.88.98-1.38,1.14-.42-.04-.88-.13-1.38-.26-.49-.12-.74-.21-.74-.27,0-.02.05-.03.15-.03.3,0,.61,0,.91.01.29,0,.55-.03.77-.1.29-.09.66-.32,1.11-.7s.71-.69.82-.95c-.21.01-.35.02-.42.02-.68,0-1.02-.3-1.02-.91,0-.2.09-.47.26-.79.2-.37.4-.57.61-.61.11-.02.27.12.49.4.22.31.37.63.45.97h.18v.91ZM193.79,47.35c0-.09-.03-.19-.09-.29-.07-.12-.15-.17-.25-.16-.15,0-.23.11-.25.3.09.08.21.13.35.16.12.02.19.02.23-.01Z"/>
          <path class="cls-1" d="M195.62,47.21c-.05.67-.35,1.03-.88,1.07v-.91c.14,0,.27-.03.39-.1s.18-.15.18-.24c-.18-.84-.41-2.04-.68-3.61-.05-.19-.12-.34-.21-.43,0,0,.03-.19.09-.56.05-.31.11-.47.18-.47.03,0,.05.02.09.06s.06.1.07.18.03.14.07.18.1.1.21.16c.09.06.14.09.14.1,0,.11,0,.19-.02.27-.03.15-.09.34-.19.58.12.54.24,1.08.37,1.62.15.7.22,1.28.22,1.74,0,.12,0,.24-.02.35Z"/>
          <path class="cls-1" d="M197.58,47.61c.02.23-.02.44-.1.62-.04.09-.08.13-.11.13-.08,0-.16-.29-.23-.87-.08-.72-.16-1.44-.23-2.16-.05-.44-.12-.99-.21-1.64-.07-.48-.1-.76-.1-.84,0-.34.05-.61.16-.81.04-.07.07-.11.09-.11.05,0,.1.2.16.61.01.09.11.83.28,2.23.15,1.22.25,2.17.3,2.84Z"/>
          <path class="cls-1" d="M217.38,46.9c-.01.91-.28,1.61-.8,2.1-.64.6-1.8,1.1-3.45,1.5-1.64.39-3.37.59-5.19.6-1.37,0-2.7-.09-3.97-.3-1.03-.17-1.7-.34-2.02-.51-.4-.16-.84-.42-1.33-.78-.22-.16-.63-.5-1.25-1.02-.29-.24-.44-.43-.44-.57,0-.06.04-.09.11-.09.12,0,.3.07.55.22,2.31,1.35,5.06,2.03,8.26,2.03,1.92,0,3.8-.22,5.62-.67,1.91-.47,3.05-1.03,3.42-1.67.01-.34-.05-.67-.2-.99-.16-.29-.32-.58-.48-.87-.05-.07-.08-.15-.08-.24s.03-.21.09-.36c.1-.27.15-.4.15-.41,0-.13.02-.19.07-.19.11,0,.29.31.55.92s.39,1.04.39,1.28ZM215.56,42.18c-.23.42-.38.62-.45.61-.07-.01-.19-.07-.37-.18-.21-.13-.31-.22-.28-.29.03-.09.09-.21.19-.36.11-.19.2-.29.26-.29.01,0,.02,0,.03.01l.38.21c.17.1.26.19.26.26,0,.01,0,.03-.01.04Z"/>
          <path class="cls-1" d="M219.19,47.61c.02.23-.02.44-.1.62-.04.09-.08.13-.11.13-.08,0-.16-.29-.23-.87-.08-.72-.16-1.44-.23-2.16-.05-.44-.12-.99-.21-1.64-.07-.48-.1-.76-.1-.84,0-.34.05-.61.16-.81.04-.07.07-.11.09-.11.05,0,.1.2.16.61.01.09.11.83.28,2.23.15,1.22.25,2.17.3,2.84Z"/>
          <path class="cls-1" d="M222.47,48.28h-.25c-.03.28-.22.67-.57,1.16-.43.6-.88.98-1.38,1.14-.42-.04-.88-.13-1.38-.26-.49-.12-.74-.21-.74-.27,0-.02.05-.03.15-.03.3,0,.61,0,.91.01.29,0,.55-.03.77-.1.29-.09.66-.32,1.11-.7.44-.38.71-.69.82-.95-.21.01-.35.02-.42.02-.68,0-1.02-.3-1.02-.91,0-.2.09-.47.26-.79.2-.37.4-.57.61-.61.11-.02.27.12.49.4.22.31.37.63.45.97h.18v.91ZM221.53,47.35c0-.09-.03-.19-.09-.29-.07-.12-.15-.17-.25-.16-.15,0-.23.11-.25.3.09.08.21.13.35.16.12.02.19.02.23-.01Z"/>
          <path class="cls-1" d="M222.77,52.18c.02.06,0,.18-.07.37s-.13.28-.19.28c-.05,0-.17-.07-.36-.17-.2-.12-.3-.21-.32-.27-.03-.08.08-.3.33-.68.21.09.42.25.61.48ZM223.46,46.98c0,.36-.07.69-.21.99-.1.21-.36.31-.77.31v-.91c.34,0,.52-.09.56-.27-.04-.12-.12-.27-.24-.43-.09-.13-.15-.27-.17-.41.05-.16.13-.36.25-.62.01,0,.03-.01.04-.01.1,0,.2.11.31.32.12.25.2.6.24,1.03ZM223.78,51.87c0,.06-.03.17-.1.34-.08.21-.17.33-.26.34-.09-.01-.2-.08-.34-.21-.13-.12-.22-.22-.26-.3.03-.09.09-.22.17-.39.09-.18.15-.28.19-.29.04,0,.14.06.31.18.18.13.27.24.29.33Z"/>
          <path class="cls-1" d="M228.64,48.28c-.32,0-.63-.21-.92-.64-.13-.19-.3-.52-.51-.98,0,.05,0,.11,0,.16,0,.51-.14.93-.43,1.27-.34.4-.82.59-1.46.57-.17,0-.32-.08-.45-.23s-.19-.32-.2-.51c0-.23.07-.51.22-.84.03-.06.06-.09.09-.1.04,0,.05.02.05.08,0,.28,0,.45.03.49.04.09.17.14.39.14.39,0,.73-.09,1.01-.27.32-.2.48-.47.48-.8,0-.12-.04-.35-.13-.71s-.18-.64-.26-.83c-.01-.19-.01-.35,0-.46.01-.17.05-.26.09-.26.04,0,.1.08.18.25.23.54.46,1.08.68,1.61.38.76.76,1.15,1.13,1.16v.91Z"/>
          <path class="cls-1" d="M229.52,47.21c-.05.67-.35,1.03-.88,1.07v-.91c.14,0,.27-.03.39-.1s.18-.15.18-.24c-.18-.84-.41-2.04-.68-3.61-.05-.19-.12-.34-.21-.43,0,0,.03-.19.09-.56.05-.31.11-.47.18-.47.03,0,.05.02.09.06s.06.1.07.18.03.14.07.18.1.1.21.16c.09.06.14.09.14.1,0,.11,0,.19-.02.27-.03.15-.09.34-.19.58.12.54.24,1.08.37,1.62.15.7.22,1.28.22,1.74,0,.12,0,.24-.02.35Z"/>
          <path class="cls-1" d="M231.49,47.61c.02.23-.02.44-.1.62-.04.09-.08.13-.11.13-.08,0-.16-.29-.23-.87-.08-.72-.16-1.44-.23-2.16-.05-.44-.12-.99-.21-1.64-.07-.48-.1-.76-.1-.84,0-.34.05-.61.16-.81.04-.07.07-.11.09-.11.05,0,.1.2.16.61.01.09.11.83.28,2.23.15,1.22.25,2.17.3,2.84Z"/>
        </g>
        <g>
          <path class="cls-1" d="M101.74,20.75c-1.2,4.78-2.39,9.54-3.58,14.3q-.53,2.12-2.77,2.12c-1.04,0-2.08-.07-3.1.02-1.18.1-1.39-.22-1.08-1.39,2.2-8.02,4.32-16.06,6.47-24.1.48-1.81,1.01-3.6,1.43-5.43.19-.83.57-1.12,1.42-1.06,1.42.1,3.14-.38,4.18.26,1,.62.82,2.5,1.14,3.83,1.13,4.67,2.22,9.36,3.34,14.09.66-.34.58-.97.72-1.44,1.46-5.11,2.91-10.22,4.3-15.36.28-1.02.66-1.49,1.78-1.39,1.27.11,2.57.09,3.84,0,1.07-.07,1.22.28.95,1.26-2.19,8.18-4.34,16.37-6.5,24.55-.45,1.71-.94,3.42-1.35,5.14-.18.75-.49,1.1-1.3,1.01-.73-.08-1.48,0-2.22-.05-1.85-.14-2.97-1.09-3.52-3.05-1.12-3.98-2.22-7.97-3.33-11.95-.14-.51-.15-1.1-.83-1.39Z"/>
          <path class="cls-1" d="M122.47,36.86c-1.72.09-3.45.15-5.16.28-.88.07-1.03-.22-.73-.99.52-1.33.97-2.68,1.49-4.01.63-1.59,2.01-1.91,3.5-1.95,1.92-.04,3.84,0,5.76,0,2.78-.01,4.81-1.27,6.02-3.77,1.33-2.77,2.08-5.73,2.63-8.73.18-1.01.15-2.06-.17-3.07-.51-1.63-1.31-2.23-3.01-2.24q-3.1-.03-3.89,2.99c-.98,3.71-1.99,7.41-2.92,11.13-.19.76-.51,1.04-1.29,1.04-1.53,0-3.05.08-4.58.15-.62.03-1.03.04-.78-.85,1.89-6.93,3.75-13.86,5.59-20.8.18-.68.54-.8,1.16-.8,3,.02,6.01-.05,9.01.03,3.69.09,7.17,3.24,7.39,7.01.42,7.17-1.39,13.78-5.93,19.45-2.59,3.23-6,5.03-10.26,4.99-1.28-.01-2.56.13-3.84.2,0-.01,0-.03,0-.04Z"/>
          <path class="cls-1" d="M183.97,26.5c.9-5.7,2.16-12,7.18-16.75,1.66-1.57,3.5-2.86,5.65-3.69,6.83-2.63,12.95.97,12.91,8.26-.04,7.44-2.18,14.4-8.32,19.42-1.26,1.03-2.65,1.88-4.17,2.49-7.18,2.9-13.3-1.25-13.26-9.73ZM190.64,24.68c.07,2.45.31,4.53,2.49,5.49,2.15.94,3.9-.2,5.48-1.57.3-.26.57-.54.83-.84,2.75-3.23,3.61-7.13,3.92-11.21.05-.62-.13-1.28-.3-1.89-.76-2.59-2.96-3.62-5.44-2.55-1.39.6-2.47,1.59-3.41,2.76-2.38,2.97-3.03,6.55-3.57,9.8Z"/>
          <path class="cls-1" d="M93.43,16.03c-.86,5.62-2.16,11.9-7.19,16.64-2.22,2.1-4.74,3.69-7.79,4.27-5.61,1.06-10.43-2.09-10.64-7.77-.3-8.39,2.07-15.96,9.22-21.27,1.8-1.34,3.83-2.23,6.06-2.56,6.06-.89,10.38,3.24,10.33,10.69ZM87.01,17.31c-.06-.77-.06-1.27-.13-1.75-.53-3.51-3.36-4.85-6.41-3.05-.94.56-1.75,1.28-2.44,2.13-2.57,3.15-3.43,6.91-3.76,10.83-.07.88.16,1.76.5,2.59.86,2.08,2.68,2.91,4.81,2.19,1.55-.52,2.73-1.55,3.74-2.79,2.48-3.03,3.18-6.69,3.7-10.14Z"/>
          <path class="cls-1" d="M166.38,5.42c-.48,1.84-.99,3.69-1.43,5.55-.18.74-.59.88-1.27.87-2.96-.03-5.92.02-8.87-.03-.9-.02-1.27.24-1.5,1.15-1.35,5.45-2.76,10.88-4.2,16.3-.26.99-.05,1.27.99,1.25,2.86-.06,5.72,0,8.58-.04.88-.01,1.14.2.86,1.1-.46,1.5-.88,3.03-1.21,4.57-.18.86-.6,1.06-1.42,1.05-5.03-.04-10.06-.04-15.09,0-1.01,0-1.28-.21-1-1.24,2.7-9.88,5.35-19.76,8.02-29.65.15-.57.23-1.1,1.08-1.09,5.37.05,10.75.04,16.12.05.09,0,.17.08.33.15Z"/>
          <path class="cls-1" d="M234.79,5.3c-.57,2.05-1.13,3.93-1.62,5.83-.17.65-.6.66-1.11.66-1.87-.01-3.75.06-5.62-.02-1.96-.09-3.59.6-4.94,1.94-3.51,3.49-4.75,7.89-4.65,12.65.06,2.96,1.74,4.25,4.73,4.25,2.02,0,4.04.03,6.06-.01.82-.01,1.02.22.78,1.03-.45,1.51-.81,3.04-1.16,4.58-.15.66-.38,1.01-1.16,1-2.61-.04-5.23.08-7.84,0-4.18-.13-7.38-3.27-8.02-7.7-.18-1.27-.28-2.56-.04-3.83.83-4.36,1.64-8.74,4.25-12.48,3.57-5.1,8.19-8.31,14.75-7.91,1.81.11,3.62.02,5.58.02Z"/>
          <path class="cls-1" d="M180.62,11.71c-1.38,0-2.76.07-4.13-.02-1.08-.08-1.51.3-1.79,1.36-1.98,7.61-4.06,15.2-6.03,22.81-.29,1.11-.76,1.41-1.8,1.33-1.18-.08-2.37-.09-3.54,0-1.25.1-1.47-.26-1.14-1.47,2.39-8.82,4.72-17.67,7.07-26.5.34-1.28.37-2.95,1.2-3.71.92-.84,2.63-.25,3.99-.26,4.14-.04,8.27.02,12.41-.03,1.11-.01,1.54.15,1.07,1.36-.52,1.32-.93,2.7-1.29,4.07-.21.8-.58,1.12-1.43,1.08-1.52-.07-3.05-.02-4.58-.02Z"/>
          <path class="cls-1" d="M177.52,24.13c-1.13,0-2.27-.01-3.4,0-.6.01-.89-.06-.74-.82.7-3.64,2.97-5.57,6.68-5.58.94,0,1.87.03,2.81,0,.71-.03.86.25.65.88-.15.42-.24.85-.38,1.27-.47,1.39-.29,3.34-1.43,4.04-1.03.63-2.77.13-4.19.13,0,.03,0,.06,0,.08Z"/>
          <path class="cls-1" d="M156.71,24.13c-.59,0-1.18,0-1.77,0-2.51-.03-2.44.44-1.69-2.25.73-2.65,2.79-4.12,5.56-4.15q3.73-.05,2.77,3.57-.75,2.83-3.69,2.83c-.39,0-.79,0-1.18,0Z"/>
        </g>
      </g>
    </g>
  </g>
</svg>