<?xml version="1.0" encoding="UTF-8"?>
<svg xmlns="http://www.w3.org/2000/svg" version="1.1" viewBox="0 0 400 300">
  <defs>
    <style>
      .cls-1 {
        fill: #fff;
      }

      .cls-2 {
        fill: #204887;
      }

      .cls-3 {
        fill: #6d1a3d;
      }

      .cls-4 {
        fill: #f4bc0f;
      }
    </style>
  </defs>
  <!-- Generator: Adobe Illustrator 28.6.0, SVG Export Plug-In . SVG Version: 1.2.0 Build 709)  -->
  <g>
    <g id="Isolation_Mode">
      <g>
        <g>
          <path class="cls-3" d="M295.7,73H101.1c-7.2,0-13,5.8-13,13v148.3h220.7V86c0-7.2-5.9-13-13.1-13Z"/>
          <path class="cls-1" d="M295.8,80.5H101.8c-3.5,0-6.4,2.8-6.4,6.4v141h206.7V86.9c0-3.6-2.8-6.4-6.3-6.4Z"/>
          <path class="cls-3" d="M329.9,227.1H70.1c-1.4,0-2.6,1.2-2.6,2.6v4.7c0,4,5.8,7.2,13,7.2h239.1c7.2,0,13-3.2,13-7.2v-4.7c-.1-1.4-1.3-2.6-2.7-2.6Z"/>
        </g>
        <g>
          <circle class="cls-3" cx="94.9" cy="79" r="20.6"/>
          <g>
            <path class="cls-4" d="M102.3,72.6v-2.3c0-3.1-2.6-5.7-5.7-5.7h-3.9c-3.2,0-5.7,2.6-5.7,5.7v2.3c-1.6,0-2.9,1.4-2.9,3v9.8c0,1.6,1.3,3,3,3h15.1c1.7,0,3-1.3,3-3v-9.8c0-1.7-1.3-3-2.9-3ZM92.7,66h3.9c2.4,0,4.3,1.9,4.3,4.3v2.3h-12.4v-2.3c0-2.4,1.9-4.3,4.2-4.3Z"/>
            <path class="cls-2" d="M96.2,78.6c0-.9-.7-1.6-1.6-1.6s-1.6.7-1.6,1.6.3,1.1.8,1.4v3.1h1.4v-3.1c.7-.2,1-.8,1-1.4Z"/>
          </g>
        </g>
        <g>
          <path class="cls-3" d="M255.2,108.4h-17.2l-5.4,20.2h-80.1c-.2,0-.4,0-.7.1-1.1.4-1.6,1.5-1.2,2.6l14.7,41.7h59.7l16.2-60.6h14.1c1.1,0,2-.9,2-2,0-1.1-1-2-2.1-2ZM229.6,139.7h-8.7l1.1-7.1h9.5l-1.9,7.1ZM226.9,149.8h-7.6l1.3-8.1h8.5l-2.2,8.1ZM224.2,159.9h-6.5l1.3-8.1h7.4l-2.2,8.1ZM195.5,169l-1.8-7.1h11l1.1,7.1h-10.3ZM181.3,169l-1.8-7.1h12.1l1.8,7.1h-12.1ZM170.1,132.6l1.8,7.1h-14.1l-2.5-7.1h14.8ZM184.3,132.6l1.8,7.1h-12.1l-1.8-7.1h12.1ZM190.7,149.8l-2-8.1h13l1.2,8.1h-12.2ZM203.2,151.8l1.2,8.1h-11.2l-2-8.1h12ZM188.6,149.8h-12.1l-2-8.1h12.1l2,8.1ZM203.7,141.7h14.8l-1.3,8.1h-12.3l-1.2-8.1ZM203.4,139.7l-1.1-7.1h17.6l-1.1,7.1h-15.4ZM201.4,139.7h-13.2l-1.8-7.1h13.9l1.1,7.1ZM172.4,141.7l2,8.1h-13.1l-2.8-8.1h13.9ZM162,151.8h12.9l2,8.1h-12.1l-2.8-8.1ZM177,151.8h12.1l2,8.1h-12.1l-2-8.1ZM206.8,161.9h8.5l-1.1,6.9v.2h-6.4l-1-7.1ZM206.4,159.9l-1.2-8.1h11.7l-1.3,8.1h-9.2ZM165.6,161.9h11.9l1.8,7.1h-11.3l-2.4-7.1ZM216.2,169l1.1-7.1h6.3l-1.9,7.1h-5.5Z"/>
          <path class="cls-3" d="M214.2,175.1c-4.3,0-7.9,3-8.9,7.1h-20.7c-.9-4-4.5-7.1-8.9-7.1s-9.1,4.1-9.1,9.1,4.1,9.1,9.1,9.1,9.1-4.1,9.1-9.1h20.2c0,5,4.1,9.1,9.1,9.1s9.1-4.1,9.1-9.1c0-5.1-4-9.1-9-9.1ZM175.7,189.2c-2.8,0-5.1-2.3-5.1-5s2.3-5,5.1-5,5.1,2.3,5.1,5-2.3,5-5.1,5ZM214.2,189.2c-2.8,0-5.1-2.3-5.1-5s2.3-5,5.1-5,5.1,2.3,5.1,5c-.1,2.7-2.3,5-5.1,5Z"/>
        </g>
      </g>
    </g>
  </g>
</svg>