<?xml version="1.0" encoding="UTF-8"?>
<svg xmlns="http://www.w3.org/2000/svg" version="1.1" viewBox="0 0 400 300">
  <defs>
    <style>
      .cls-1 {
        fill: #fff;
      }

      .cls-2 {
        fill: #6d1a3d;
      }

      .cls-3 {
        fill: #f4bc0f;
      }
    </style>
  </defs>
  <!-- Generator: Adobe Illustrator 28.6.0, SVG Export Plug-In . SVG Version: 1.2.0 Build 709)  -->
  <g>
    <g id="Isolation_Mode">
      <g>
        <g>
          <path class="cls-2" d="M295.7,74.4H101.1c-7.2,0-13,5.8-13,13v148.7h220.7V87.4c0-7.1-5.9-13-13.1-13Z"/>
          <path class="cls-1" d="M297.3,80.5H99.4c-3.6,0-6.5,2.9-6.5,6.5v144.2h210.9V87c0-3.6-2.9-6.5-6.5-6.5Z"/>
          <path class="cls-2" d="M329.9,228.9H70.1c-1.4,0-2.6,1.2-2.6,2.6v4.7c0,4,5.8,7.3,13,7.3h239.1c7.2,0,13-3.2,13-7.3v-4.7c-.1-1.4-1.3-2.6-2.7-2.6Z"/>
        </g>
        <g>
          <path class="cls-2" d="M157.4,142.6c-2.6,1.9-5.4,4-5.4,7.3v47.1c0,3.3,2.6,5.9,5.9,5.9h81.1c3.3,0,5.9-2.6,5.9-5.9v-47.1c0-3.3-2.3-5.6-5.4-7.5,0,0-3.3-2.3-7.5-5.2v11h2.8c1.2,0,1.9.9,1.9,1.9s-.5,1.6-1.4,2.6c0,0-30.7,22.3-33.7,24.4-2.8,2.1-4.5,2.1-7.3,0-2.8-1.6-31.9-24.4-31.9-24.4-.9-.7-1.6-1.2-1.6-2.3s.9-1.9,1.9-1.9h2.8v-11c-4.8,3-8.1,5.1-8.1,5.1Z"/>
          <path class="cls-2" d="M171.9,98.3c-2.6,0-4.7,2.1-4.7,4.7v50.8c8.4,6.6,24.8,19.2,26.5,20.6,2.8,2.1,4.5,2.1,7.3,0,2.1-1.4,19.7-14.1,28.6-20.6v-50.8c0-2.6-2.1-4.7-4.7-4.7h-53Z"/>
          <path class="cls-3" d="M222.2,135.7h-47.7c-.8,0-1.5-.7-1.5-1.5v-4c0-.8.7-1.5,1.5-1.5h47.7c.8,0,1.5.7,1.5,1.5v4c0,.8-.7,1.5-1.5,1.5Z"/>
          <path class="cls-3" d="M222.2,147.4h-47.7c-.8,0-1.5-.7-1.5-1.5v-4c0-.8.7-1.5,1.5-1.5h47.7c.8,0,1.5.7,1.5,1.5v4c0,.8-.7,1.5-1.5,1.5Z"/>
          <path class="cls-3" d="M222.2,124h-47.7c-.8,0-1.5-.7-1.5-1.5v-4c0-.8.7-1.5,1.5-1.5h47.7c.8,0,1.5.7,1.5,1.5v4c0,.8-.7,1.5-1.5,1.5Z"/>
        </g>
        <circle class="cls-2" cx="92.9" cy="74.4" r="17.9"/>
        <polygon class="cls-3" points="93.8 80.4 89.6 84.6 80.1 75.1 84.3 70.9 89.6 76.2 101.5 64.3 105.7 68.5 93.8 80.4"/>
      </g>
    </g>
  </g>
</svg>