<?xml version="1.0" encoding="UTF-8"?>
<svg xmlns="http://www.w3.org/2000/svg" version="1.1" viewBox="0 0 400 300">
  <defs>
    <style>
      .cls-1 {
        fill: none;
        stroke: #221e1f;
        stroke-miterlimit: 10;
      }

      .cls-2 {
        fill: #fff;
      }

      .cls-3 {
        fill: #334c8a;
      }

      .cls-4 {
        fill: #6d1a3d;
      }

      .cls-5 {
        fill: #f4bc0f;
      }
    </style>
  </defs>
  <!-- Generator: Adobe Illustrator 28.6.0, SVG Export Plug-In . SVG Version: 1.2.0 Build 709)  -->
  <g>
    <g id="Isolation_Mode">
      <g>
        <g>
          <path class="cls-5" d="M177.5,132.6c31.1,0,56.2-25.2,56.2-56.2s-25.2-56.2-56.2-56.2-56.2,25.2-56.2,56.2,25.1,56.1,56.2,56.2Z"/>
          <path class="cls-5" d="M76.6,256.5h210.7c0-60.7-49.2-109.9-109.9-109.9s-57.1,11.6-77.7,32.2c-20.7,20.6-32.3,48.5-32.2,77.7h9.1Z"/>
        </g>
        <g>
          <g>
            <path class="cls-4" d="M182.3,279.9h138.3c6.5,0,11.9-5.3,11.9-11.9v-75.6c0-6.5-5.3-11.9-11.9-11.9h-138.3c-6.5,0-11.9,5.3-11.9,11.9v75.6c0,6.6,5.3,11.9,11.9,11.9Z"/>
            <path class="cls-5" d="M188.4,214.6c-1.3,0-2.4-1.1-2.4-2.4v-12.7c0-1.3,1.1-2.4,2.4-2.4h12.7c1.3,0,2.4,1.1,2.4,2.4v12.7c0,1.3-1.1,2.4-2.4,2.4h-12.7Z"/>
          </g>
          <g>
            <rect class="cls-2" x="295.4" y="237.3" width="11" height="27.6" transform="translate(49.5 551.7) rotate(-89.9)"/>
            <rect class="cls-2" x="261.6" y="237.2" width="11" height="27.6" transform="translate(15.8 517.9) rotate(-89.9)"/>
            <rect class="cls-2" x="227.9" y="237.2" width="11" height="27.6" transform="translate(-17.8 484.1) rotate(-89.9)"/>
            <rect class="cls-2" x="194.3" y="237.1" width="11" height="27.6" transform="translate(-51.4 450.4) rotate(-89.9)"/>
          </g>
          <rect class="cls-2" x="205.5" y="243.5" width="4.2" height="44.5" transform="translate(-58.4 473) rotate(-89.9)"/>
          <rect class="cls-2" x="295.5" y="263.6" width="19.2" height="4.2"/>
        </g>
        <g>
          <path class="cls-2" d="M316.5,216h-14.2c-2.8,0-5-2.2-5-5v-14.2c0-2.8,2.2-5,5-5h14.2c2.8,0,5,2.2,5,5v14.2c0,2.8-2.2,5-5,5Z"/>
          <g>
            <path class="cls-3" d="M317.3,201.3v-.4c0-1.7-1-3.3-3.3-3.3h-3.5l-2.9,13.2h5.5c1.9,0,3.4-1.5,3.4-3.4v-.4c0-1.1-.5-2.1-1.4-2.7,1.3-.4,2.2-1.6,2.2-3ZM314.3,207.1c-.2,1.9-2.3,2.2-4.3,2l.9-3.9h1.3c.7,0,2.2,0,2.1,1.9ZM315.5,201.4c-.2,1.9-2.3,2.2-4.3,2l.9-3.9h1.3c.6-.1,2.2,0,2.1,1.9Z"/>
            <path class="cls-3" d="M306.9,199.4h-.3c-1.9,0-3.4.9-3.4,2.3s1.2,2.3,2.8,2.5l-.3,1.6c-3.1-.2-4.4-2.2-4.4-4.1s2.2-4.1,5.2-4.1h.8l-.4,1.8Z"/>
            <polygon class="cls-5" points="306.9 199.4 307.3 197.6 309.3 197.6 308.9 199.4 306.9 199.4"/>
            <path class="cls-1" d="M307.2,199.4"/>
            <polygon class="cls-5" points="307.9 204.2 306.5 210.8 304.5 210.8 305.9 204.2 307.9 204.2"/>
          </g>
        </g>
      </g>
    </g>
  </g>
</svg>