<?xml version="1.0" encoding="UTF-8"?>
<svg id="Layer_1" xmlns="http://www.w3.org/2000/svg" width="512" height="512" version="1.1" xmlns:xlink="http://www.w3.org/1999/xlink" viewBox="0 0 512 512">
  <!-- Generator: Adobe Illustrator 29.8.2, SVG Export Plug-In . SVG Version: 2.1.1 Build 3)  -->
  <defs>
    <clipPath id="clippath">
      <polygon points="226.7 379.8 366 188.9 417.8 257.4 325.9 379.8 226.7 379.8" clip-rule="evenodd" fill="#fff"/>
    </clipPath>
    <linearGradient id="linear-gradient" x1="-101.3" y1="632.6" x2="66" y2="555.7" gradientTransform="translate(326.7 -313.3)" gradientUnits="userSpaceOnUse">
      <stop offset="0" stop-color="#fff"/>
      <stop offset="1" stop-color="#000"/>
    </linearGradient>
    <mask id="mask" x="302.3" y="188.9" width="115.5" height="137" maskUnits="userSpaceOnUse">
      <rect x="302.3" y="188.9" width="115.5" height="137" fill="url(#linear-gradient)"/>
    </mask>
    <clipPath id="clippath-1">
      <polygon points="226.7 135 366 325.9 417.8 257.4 325.9 135 226.7 135" clip-rule="evenodd" fill="#fff"/>
    </clipPath>
    <linearGradient id="linear-gradient1" x1="231" y1="482.7" x2="-91.4" y2="578.8" gradientTransform="translate(290.7 -345.9)" xlink:href="#linear-gradient"/>
    <mask id="mask-1" x="226.7" y="135" width="191.1" height="122.4" maskUnits="userSpaceOnUse">
      <rect x="226.7" y="135" width="191.1" height="122.4" fill="url(#linear-gradient1)"/>
    </mask>
    <clipPath id="clippath-2">
      <polygon points="95.8 379.8 235 188.9 286.9 257.4 195 379.8 95.8 379.8" clip-rule="evenodd" fill="#fff"/>
    </clipPath>
    <linearGradient id="linear-gradient2" x1="-16.4" y1="556.3" x2="-93.6" y2="615.6" gradientTransform="translate(265.6 -313.3)" xlink:href="#linear-gradient"/>
    <mask id="mask-2" x="174.1" y="188.9" width="112.8" height="137" maskUnits="userSpaceOnUse">
      <rect x="174.1" y="188.9" width="112.8" height="137" fill="url(#linear-gradient2)"/>
    </mask>
    <linearGradient id="linear-gradient3" x1="231.6" y1="351.7" x2="-104.4" y2="590" gradientTransform="translate(228.2 -345.9)" xlink:href="#linear-gradient"/>
    <mask id="mask-3" x="95.8" y="135" width="191.1" height="122.4" maskUnits="userSpaceOnUse">
      <rect x="95.8" y="135" width="191.1" height="122.4" fill="url(#linear-gradient3)"/>
    </mask>
    <clipPath id="clippath-3">
      <polygon points="95.8 379.8 235 188.9 286.9 257.4 195 379.8 95.8 379.8" clip-rule="evenodd" fill="#fff"/>
    </clipPath>
    <linearGradient id="linear-gradient4" x1="-232.2" y1="632.6" x2="-64.9" y2="555.7" xlink:href="#linear-gradient"/>
    <mask id="mask-4" x="171.4" y="188.9" width="115.5" height="137" maskUnits="userSpaceOnUse">
      <rect x="171.4" y="188.9" width="115.5" height="137" fill="url(#linear-gradient4)"/>
    </mask>
    <clipPath id="clippath-4">
      <polygon points="95.8 135 235 325.9 286.9 257.4 195 135 95.8 135" clip-rule="evenodd" fill="#fff"/>
    </clipPath>
    <linearGradient id="linear-gradient5" x1="100.1" y1="482.7" x2="-222.3" y2="578.8" gradientTransform="translate(290.7 -345.9)" xlink:href="#linear-gradient"/>
    <mask id="mask-5" x="95.8" y="135" width="191.1" height="122.4" maskUnits="userSpaceOnUse">
      <rect x="95.8" y="135" width="191.1" height="122.4" fill="url(#linear-gradient5)"/>
    </mask>
  </defs>
  <rect width="512" height="512" fill="#6d1b3d"/>
  <g>
    <g>
      <g>
        <polygon points="226.7 379.8 366 188.9 417.8 257.4 325.9 379.8 226.7 379.8" fill="#fff" fill-rule="evenodd"/>
        <g clip-path="url(#clippath)">
          <rect x="226.7" y="188.9" width="191.1" height="190.9" fill="#fff"/>
        </g>
      </g>
      <g mask="url(#mask)">
        <polygon points="302.3 276.1 366 325.9 417.8 257.4 366 188.9 302.3 276.1" fill="#fff" fill-rule="evenodd"/>
      </g>
      <g>
        <polygon points="226.7 135 366 325.9 417.8 257.4 325.9 135 226.7 135" fill="#fff" fill-rule="evenodd"/>
        <g clip-path="url(#clippath-1)">
          <rect x="226.7" y="135" width="191.1" height="190.9" fill="#fff"/>
        </g>
      </g>
      <g mask="url(#mask-1)">
        <polygon points="226.7 135 417.8 257.4 325.9 135 226.7 135" fill="#fff" fill-rule="evenodd"/>
      </g>
    </g>
    <g>
      <g>
        <polygon points="95.8 379.8 235 188.9 286.9 257.4 195 379.8 95.8 379.8" fill="#fff" fill-rule="evenodd"/>
        <g clip-path="url(#clippath-2)">
          <rect x="95.8" y="188.9" width="191.1" height="190.9" fill="#fff"/>
        </g>
      </g>
      <g mask="url(#mask-2)">
        <polygon points="174.1 273.5 235 325.9 286.9 257.4 235 188.9 174.1 273.5" fill="#fff" fill-rule="evenodd"/>
      </g>
      <g mask="url(#mask-3)">
        <polygon points="95.8 135 286.9 257.4 195 135 95.8 135" fill="#fff" fill-rule="evenodd"/>
      </g>
      <g>
        <g>
          <polygon points="95.8 379.8 235 188.9 286.9 257.4 195 379.8 95.8 379.8" fill="#fff" fill-rule="evenodd"/>
          <g clip-path="url(#clippath-3)">
            <rect x="95.8" y="188.9" width="191.1" height="190.9" fill="#fff"/>
          </g>
        </g>
        <g mask="url(#mask-4)">
          <polygon points="171.4 276.1 235 325.9 286.9 257.4 235 188.9 171.4 276.1" fill="#fff" fill-rule="evenodd"/>
        </g>
        <g>
          <polygon points="95.8 135 235 325.9 286.9 257.4 195 135 95.8 135" fill="#fff" fill-rule="evenodd"/>
          <g clip-path="url(#clippath-4)">
            <rect x="95.8" y="135" width="191.1" height="190.9" fill="#fff"/>
          </g>
        </g>
        <g mask="url(#mask-5)">
          <polygon points="95.8 135 286.9 257.4 195 135 95.8 135" fill="#fff" fill-rule="evenodd"/>
        </g>
      </g>
    </g>
    <rect x="95.8" y="146.7" width="116.1" height="5.2" fill="#6d1b3d"/>
    <rect x="94.2" y="137.2" width="116.1" height="5.2" fill="#6d1b3d"/>
    <rect x="100.1" y="156.2" width="116.1" height="5.2" fill="#6d1b3d"/>
    <rect x="105.2" y="165.9" width="123.9" height="5.2" fill="#6d1b3d"/>
    <rect x="114.6" y="175.6" width="116.1" height="5.2" fill="#6d1b3d"/>
    <rect x="118.9" y="185.1" width="127.9" height="5.2" fill="#6d1b3d"/>
    <rect x="124" y="194.8" width="127.5" height="5.2" fill="#6d1b3d"/>
    <rect x="134" y="204.5" width="122.9" height="5.2" fill="#6d1b3d"/>
    <rect x="138.3" y="214" width="126" height="5.2" fill="#6d1b3d"/>
    <rect x="143.4" y="223.6" width="124.8" height="5.2" fill="#6d1b3d"/>
    <rect x="153.8" y="233.3" width="124.8" height="5.2" fill="#6d1b3d"/>
    <rect x="157.3" y="243" width="124.8" height="5.2" fill="#6d1b3d"/>
    <rect x="166.7" y="252.7" width="124.8" height="5.2" fill="#6d1b3d"/>
    <g>
      <path d="M347.1,199.6c-2.4,0-4.7-1-6.5-2.7-1.7-1.7-2.7-4-2.7-6.5s1-4.7,2.7-6.5c1.7-1.7,4-2.7,6.5-2.7s4.7.9,6.5,2.7c3.6,3.6,3.6,9.4,0,12.9-1.7,1.7-4,2.7-6.5,2.7Z" fill="#6d1b3d"/>
      <path d="M297.4,150.9c-2.4,0-4.7-1-6.5-2.7-1.7-1.7-2.7-4-2.7-6.5s.9-4.7,2.7-6.5c1.7-1.7,4-2.7,6.5-2.7s4.7.9,6.5,2.7c1.7,1.7,2.7,4,2.7,6.5s-1,4.7-2.7,6.5c-1.7,1.7-4,2.7-6.5,2.7Z" fill="#6d1b3d"/>
      <path d="M346.7,150.6c-2.4,0-4.7-1-6.5-2.7-3.6-3.6-3.6-9.4,0-12.9,1.7-1.7,4-2.7,6.5-2.7s4.7,1,6.5,2.7c3.6,3.6,3.6,9.4,0,12.9-1.7,1.7-4,2.7-6.5,2.7Z" fill="#6d1b3d"/>
      <path d="M297.7,199.6c-2.4,0-4.7-1-6.5-2.7-1.7-1.7-2.7-4-2.7-6.5,0-2.4,1-4.7,2.7-6.5.4-.4.8-.7,1.3-1,.2-.1.3-.2.4-.3.3-.2.7-.4,1-.5.2,0,.3-.2.5-.2.3-.1.7-.2,1.1-.3,0,0,.2,0,.2,0,0,0,0,0,.1,0h2c.3-.1.5,0,.8,0h.1c0,0,.2,0,.3,0h0s0,0,0,0h0c.1,0,.3,0,.4,0,3.5,0,7-1.5,9.5-4.1,2.5-2.6,3.9-6.1,3.8-9.6h0c0-.1,0-.2,0-.2,0,0,0-.2,0-.3,0-.1,0-.2,0-.4v-.2c0-.2,0-.3,0-.5l.2-2c0,0,0,0,0-.1h0c0-.5.2-.9.3-1.3,0-.2.1-.4.2-.5.2-.4.3-.7.5-1,0-.1.2-.3.3-.4.4-.5.7-.9,1.1-1.3,1.7-1.7,4-2.7,6.5-2.7s4.7.9,6.5,2.7c3.6,3.6,3.6,9.4,0,12.9-.4.4-.8.7-1.3,1-.2.1-.3.2-.4.3-.3.2-.7.4-1,.5-.2,0-.4.2-.5.2-.3.1-.7.2-1.1.3h-.2c0,0,0,0-.1.1h-2.1c-.2.1-.5.1-.8,0h-.2c0,0-.2,0-.3,0h0s-.1,0-.1,0h0c-.1,0-.3,0-.4,0-3.5,0-7,1.5-9.5,4.1-2.5,2.6-3.9,6.1-3.8,9.6h0c0,.1,0,.2,0,.2,0,0,0,.2,0,.3,0,.1,0,.2,0,.3,0,0,0,.2,0,.3,0,.1,0,.3,0,.4h0s-.1,2-.1,2c0,0,0,.3,0,.3,0,.4-.2.8-.3,1.1,0,.2-.1.3-.2.5-.2.3-.3.7-.5,1,0,.1-.2.3-.3.5-.3.5-.7.9-1,1.3-1.7,1.7-4,2.7-6.5,2.7h0Z" fill="#6d1b3d"/>
      <path d="M322.4,199.6c-2.4,0-4.7-1-6.5-2.7-1.7-1.7-2.7-4-2.7-6.5,0-2.4.9-4.7,2.7-6.5.4-.4.8-.7,1.3-1.1.1,0,.3-.2.4-.3.3-.2.7-.4,1-.5.2,0,.4-.2.5-.2.3-.1.7-.2,1.1-.3,0,0,.3,0,.4-.1l2.1-.2c.2,0,.5,0,.8,0h.2c.1,0,.2,0,.3,0,0,0,0,0,.1,0h0s0,0,0,0c.2,0,.3,0,.5,0,3.5,0,7-1.5,9.5-4.1,2.5-2.6,3.9-6.1,3.8-9.6v-.4s0,0,0,0c0,0,0,0,0,0,0,0,0-.2,0-.3v-.3c0-.2,0-.3,0-.5v-2c.2,0,.2-.3.2-.4.1-.5.2-.8.3-1.1,0-.2.1-.4.2-.5.1-.3.3-.6.5-1h0c0-.2.1-.3.2-.4.4-.5.7-1,1.1-1.3,1.7-1.7,4-2.7,6.5-2.7s4.7.9,6.5,2.7c3.6,3.6,3.6,9.4,0,12.9-.3.3-.8.7-1.3,1-.1,0-.2.1-.3.2h-.2c-.3.3-.6.5-1,.6-.2,0-.4.2-.5.2-.3.1-.7.2-1.1.3,0,0-.2,0-.2,0,0,0,0,0-.1,0h-2c-.3.1-.6,0-.9,0-.1,0-.2,0-.3,0,0,0,0,0,0,0h-.2c-.2,0-.3,0-.5,0-3.5,0-7,1.5-9.5,4.1-2.5,2.6-3.9,6.1-3.8,9.6h0c0,.1,0,.2,0,.2,0,.1,0,.2,0,.3,0,.1,0,.2,0,.3,0,0,0,.2,0,.3,0,.2,0,.3,0,.5v2c-.2,0-.2.3-.2.3,0,.4-.2.8-.3,1.1,0,.2-.1.3-.2.5h0c-.2.4-.3.7-.5,1,0,.2-.2.3-.3.5-.4.5-.7.9-1.1,1.3-1.7,1.7-4,2.7-6.4,2.7h0Z" fill="#6d1b3d"/>
      <path d="M297.7,175c-2.4,0-4.7-.9-6.5-2.7-1.7-1.7-2.7-4-2.7-6.5,0-2.4.9-4.7,2.7-6.5.4-.4.8-.7,1.3-1.1.1,0,.3-.2.4-.3.3-.2.6-.4,1-.5.2,0,.4-.2.5-.2.3-.1.7-.2,1.1-.3h.2c0,0,0,0,.1-.1h2.1c.3-.1.6,0,.9,0h0c.1,0,.2,0,.3,0,0,0,0,0,0,0h0s0,0,0,0c.2,0,.3,0,.5,0,3.5,0,7-1.5,9.5-4.1,2.5-2.6,3.9-6.1,3.8-9.6h0c0-.1,0-.2,0-.2,0-.1,0-.2,0-.3,0,0,0-.2,0-.3v-.3c0-.2,0-.3,0-.5v-1.9c.1,0,.2,0,.2,0h0c0,0,0-.3,0-.3.1-.5.2-.8.3-1.2,0-.2.1-.3.2-.5.1-.3.3-.7.5-1h0c0-.2.2-.3.2-.4.4-.5.7-.9,1-1.3,1.7-1.7,4-2.7,6.5-2.7s4.7.9,6.5,2.7c3.6,3.6,3.6,9.4,0,12.9-.4.4-.8.7-1.3,1-.1,0-.3.2-.4.2h0c-.3.2-.7.4-1,.6-.2,0-.4.2-.5.2-.3.1-.7.2-1.1.3,0,0-.2,0-.2,0,0,0,0,0-.1,0h-2c-.3.1-.5,0-.8,0h-.1c0,0-.2,0-.3,0,0,0,0,0-.1,0h0s0,0,0,0c-.2,0-.3,0-.5,0-3.5,0-7,1.5-9.5,4.1-2.5,2.6-3.9,6.1-3.8,9.6h0c0,.1,0,.2,0,.2,0,.1,0,.2,0,.3,0,.1,0,.2,0,.3,0,0,0,.2,0,.3,0,.2,0,.3,0,.5v2c-.2,0-.2.1-.2.2v.2c-.2.4-.3.8-.4,1.1,0,.2-.1.4-.2.5-.1.3-.3.7-.5,1,0,.2-.2.3-.3.4-.4.5-.7.9-1.1,1.3-1.7,1.7-4,2.7-6.5,2.7h0Z" fill="#6d1b3d"/>
    </g>
  </g>
</svg>