<?xml version="1.0" encoding="UTF-8"?>
<svg xmlns="http://www.w3.org/2000/svg" version="1.1" xmlns:cc="http://creativecommons.org/ns#" xmlns:dc="http://purl.org/dc/elements/1.1/" xmlns:inkscape="http://www.inkscape.org/namespaces/inkscape" xmlns:rdf="http://www.w3.org/1999/02/22-rdf-syntax-ns#" xmlns:sodipodi="http://sodipodi.sourceforge.net/DTD/sodipodi-0.dtd" xmlns:svg="http://www.w3.org/2000/svg" viewBox="0 0 1718.3 2050">
  <defs>
    <style>
      .cls-1 {
        fill: #fecc0b;
      }

      .cls-2 {
        fill: #22297c;
      }
    </style>
  </defs>
  <!-- Generator: Adobe Illustrator 28.6.0, SVG Export Plug-In . SVG Version: 1.2.0 Build 709)  -->
  <g>
    <g id="Layer_1">
      <g>
        <sodipodi:namedview id="namedview45" bordercolor="#666666" borderopacity="1" gridtolerance="10" guidetolerance="10" inkscape:current-layer="Layer_1" inkscape:cx="859.16998" inkscape:cy="1025" inkscape:pageopacity="0" inkscape:pageshadow="2" inkscape:window-height="480" inkscape:window-maximized="0" inkscape:window-width="640" inkscape:window-x="368" inkscape:window-y="134" inkscape:zoom="0.11512195" objecttolerance="10" pagecolor="#ffffff" showgrid="false"/>
        <path id="path3" class="cls-1" d="M1147.4,1069.3c-124.7,81.3-232.6,131-323.9,156.1l-.2-69.2-132,40.1-.2,49.4c-283.2,3.5-321.5-300.2-128.1-501.3-129.6,300,312,251,501.9,278.9,50.1,7.4,82.7,20.1,82.7,45.9Z"/>
        <polygon id="polygon5" class="cls-2" points="1272.9 1263.6 1272.9 1300.1 1190.7 1325.2 1190.7 1288.6 1272.9 1263.6"/>
        <polygon id="polygon7" class="cls-2" points="842.3 1381.9 842.3 1421.9 823.3 1427.7 758.2 1447.5 758.2 1407.5 823.3 1387.6 842.3 1381.9"/>
        <polygon id="polygon9" class="cls-2" points="744.7 1415.6 744.7 1455.6 691.3 1471.9 660.7 1481.2 660.7 1441.2 691.3 1431.9 744.7 1415.6"/>
        <path id="path11" class="cls-2" d="M1310.1,1095.2v74c0,13.9-12.4,31.5-40.6,41.7l-83.4,25.4-31,9.4v111.4c-.8,21.7-17.8,32.5-31.7,38l-94.9,28.9-42.6,13s-93.9,28.6-94.7,28.8c-19.2,4.2-26.7-5.2-27.7-14.1v-76.2l122.4-37.2v44.7c0,13.4,42.2,10.2,42.6-8.4v-193.6l124.6-37.9v49.1c7.7,14.6,37.4,10.5,37.7-9.4v-51.1l82.1-25,37.2-11.4Z"/>
        <path id="path13" class="cls-2" d="M1156.7,1057.4c185.9-142.5,303.6-413.1-797.3-514.3,962.6-433.8,1297.2,167.3,797.3,514.3Z"/>
        <path id="path15" class="cls-2" d="M986,1193.9v85.1c0,8.9-8.4,21.3-24,25.5l-98.3,29.9-21.3,6.5-19,5.8-65.1,19.8-13.6,4.2-53.4,16.2-30.6,9.4-4.3,1.3-87.4,26.6c-20,3.3-39.6-3.7-42.7-18.6v-71.7l130.1-39.6v55.5c2.2,8.8,32.9,6.4,34.1-7.7l.6-96.1.2-49.4,132-40.1.2,69.2.3,69.7c.6,11.6,32.7,4.5,32.6-9.5l-.2-52.3,7.4-2.2,122.4-37.2Z"/>
        <g id="g17">
          <path id="path19" class="cls-2" d="M477.8,1603.4l20.5-60.1h10l20.5,60.1h-8.6l-5.5-16.8h-23.3l-5.5,16.8h-8.2ZM512.6,1579.7l-9.4-28.3-9.4,28.3h18.8Z"/>
          <path id="path21" class="cls-2" d="M589.3,1603.4h-35.3v-60.1h8.1v53h27.2v7.1h0Z"/>
          <path id="path23" class="cls-2" d="M634.2,1604.5c-4.3,0-8.3-.7-11.8-1.9-3.6-1.3-6.6-3.3-9.2-5.9-2.6-2.7-4.5-6-5.9-9.9-1.4-3.9-2-8.4-2-13.6s.7-9.2,2.1-13c1.4-3.8,3.3-7.1,5.9-9.8,2.5-2.6,5.5-4.7,9.2-6.1,3.6-1.4,7.6-2.1,11.9-2.1s4,.1,5.9.4c1.9.3,3.7.7,5.4,1.2,1.4.4,2.9,1,4.6,1.7,1.7.7,3,1.3,4.1,1.8v9.7h-.7c-1-.9-2.1-1.7-3.1-2.5-1.1-.8-2.6-1.7-4.6-2.6-1.6-.8-3.5-1.5-5.7-2-2.1-.5-4.4-.8-6.9-.8-5.9,0-10.6,2.2-14.2,6.5s-5.4,10.2-5.4,17.4.5,7.6,1.4,10.6c1,3,2.3,5.6,4.1,7.7,1.7,2.1,3.9,3.7,6.3,4.7s5.2,1.6,8.3,1.6,4.6-.2,6.8-.5c2.3-.3,4.2-.8,5.7-1.4v-15.5h-14.1v-7h22.1v26.2c-1,.5-2.4,1-4.2,1.7-1.7.7-3.4,1.3-4.9,1.7-2,.6-3.8,1-5.4,1.3-1.6.3-3.6.4-5.8.4Z"/>
          <polygon class="cls-2" points="693.9 1550.4 693.9 1566.8 721.9 1566.8 721.9 1573.9 693.9 1573.9 693.9 1596.3 723.9 1596.3 723.9 1603.4 685.8 1603.4 685.8 1543.3 697.7 1543.3 703.8 1530.2 708.8 1533.3 703.7 1543.3 723.9 1543.3 723.9 1550.4 693.9 1550.4"/>
          <path id="path27" class="cls-2" d="M788.8,1603.4h-10.5l-19.3-23.9h-9.3v23.9h-8.1v-60.1h15.7c3.5,0,6.4.2,8.8.6,2.4.4,4.6,1.3,6.7,2.6,2.1,1.4,3.8,3.1,5.1,5.2s1.9,4.8,1.9,7.9-1.1,8.1-3.4,11.1c-2.3,3-5.3,5.2-9.3,6.6l21.7,26.2ZM771.3,1560.2c0-1.7-.3-3.3-.9-4.7-.6-1.4-1.6-2.5-2.9-3.3-1.1-.7-2.5-1.3-4-1.6-1.5-.3-3.4-.5-5.7-.5h-8v22.7h7.1c2.3,0,4.4-.2,6.3-.6s3.4-1.2,4.7-2.5c1.2-1.1,2-2.5,2.6-4,.6-1.6.8-3.4.8-5.5Z"/>
          <path id="path29" class="cls-2" d="M814,1603.4h-8.1v-6.1h0v-47.8h0v-6.1h8.2v6.1h0v47.8h0v6.1Z"/>
          <path id="path31" class="cls-2" d="M842.4,1603.4v-60.1h38.1v7.1h-30v16.5h28v7.1h-28v22.3h30v7.1h-38.1Z"/>
        </g>
        <g id="g33">
          <path id="path35" class="cls-2" d="M990.5,1558.1c0,3-.6,5.9-1.7,8.6-1.2,2.7-2.8,5-5,6.8-1.3,1.1-2.8,2.2-4.4,3.1-1.6.9-3.4,1.8-5.3,2.4-1.9.7-4,1.2-6.3,1.6s-4.8.6-7.6.6h-10.3v21.1h-19.7v-64.4h30.4c4.5,0,8.4.3,11.7,1,3.3.7,6.3,1.7,8.9,3.2,2.9,1.6,5.2,3.8,6.8,6.5,1.6,2.7,2.4,5.9,2.4,9.6ZM970.3,1558.4c0-1.8-.5-3.4-1.6-4.7s-2.3-2.2-3.8-2.7c-1.9-.7-3.6-1-5.3-1.1-1.7-.1-4-.1-6.9-.1h-2.8v19.3h1.4c1.9,0,3.6,0,5.3,0,1.6,0,3.1-.1,4.3-.3,1.1-.1,2.2-.4,3.3-.8,1.2-.4,2.1-.9,2.7-1.4,1.3-1.1,2.2-2.2,2.7-3.3.5-1.1.7-2.7.7-4.7Z"/>
          <path id="path37" class="cls-2" d="M1078.5,1569.9c0,10.4-3.4,18.6-10.2,24.6-6.8,6-16.1,8.9-27.8,8.9s-21.1-3-27.8-9.1c-6.7-6-10.1-14.2-10.1-24.5s3.4-18.5,10.1-24.5c6.7-6,16-9,27.8-9s21.1,3,27.8,9c6.8,6,10.2,14.2,10.2,24.6ZM1058.2,1569.9c0-3.8-.5-7.1-1.4-9.8-1-2.7-2.3-4.9-3.9-6.6-1.7-1.8-3.6-3-5.7-3.8-2.1-.8-4.3-1.1-6.6-1.1s-4.6.4-6.6,1.1c-2,.7-3.9,2-5.7,3.8-1.6,1.7-2.9,3.9-3.9,6.7-1,2.8-1.5,6.1-1.5,9.9s.5,7.2,1.4,9.8c.9,2.6,2.2,4.8,3.9,6.5,1.7,1.8,3.6,3.1,5.7,3.8,2.1.8,4.3,1.1,6.6,1.1s4.6-.4,6.7-1.2c2.2-.8,4.1-2.1,5.6-3.8,1.7-1.9,3-4.1,3.9-6.5.9-2.5,1.4-5.8,1.4-9.8Z"/>
          <path id="path39" class="cls-2" d="M1120.6,1603.3c-6,0-11.3-.5-15.8-1.4-4.5-.9-8.8-2.1-12.7-3.5v-15.3h1.8c3.9,2.7,8.3,4.8,13,6.3,4.7,1.5,9.3,2.2,13.8,2.2s2.6,0,4.5-.3c1.8-.2,3.3-.5,4.4-1,1.4-.5,2.5-1.2,3.5-2.1s1.4-2,1.4-3.5-.8-2.9-2.3-3.9c-1.5-1-3.4-1.7-5.5-2.2-2.7-.6-5.5-1.1-8.6-1.6-3-.5-5.9-1.2-8.5-1.9-6.1-1.8-10.4-4.1-13-7.1-2.6-3-4-6.7-4-11.2s3.1-10.9,9.3-14.6c6.2-3.7,14-5.6,23.3-5.6s9.3.4,13.9,1.2,8.7,1.8,12.4,3.2v14.7h-1.7c-2.9-2.1-6.5-3.8-10.7-5.2-4.2-1.4-8.5-2.1-12.9-2.1s-3.3.1-4.6.3-2.8.6-4.3,1.2c-1.2.5-2.3,1.2-3.2,2.1-.9.9-1.3,1.9-1.3,3,0,1.6.7,2.9,2.1,3.9,1.4,1,4.2,1.8,8.2,2.6,2.6.5,5.2,1,7.6,1.4,2.4.5,5,1.1,7.8,1.9,5.4,1.6,9.5,3.8,12.1,6.5,2.7,2.7,4,6.3,4,10.8,0,6.4-3.1,11.5-9.2,15.4-6.1,3.9-14.4,5.8-24.8,5.8Z"/>
          <path id="path41" class="cls-2" d="M1185.8,1602.1v-52.1h-23.1v-12.3h66v12.3h-23.1v52.1h-19.7Z"/>
          <path id="path43" class="cls-2" d="M1243,1602.1v-64.4h53v12.3h-33.4v11.3h30.8v12.3h-30.8v16.3h33.4v12.3h-53Z"/>
        </g>
      </g>
    </g>
  </g>
</svg>