<?xml version="1.0" encoding="utf-8"?>
<!-- Generator: Adobe Illustrator 28.6.0, SVG Export Plug-In . SVG Version: 9.03 Build 54939)  -->
<svg version="1.1" baseProfile="tiny" id="Layer_1" xmlns="http://www.w3.org/2000/svg" xmlns:xlink="http://www.w3.org/1999/xlink"
	 x="0px" y="0px" viewBox="0 0 250 288" overflow="visible" xml:space="preserve">
<g>
	<path fill="#015344" d="M138.6,208c0,0-1.5,5.4-4.6,3c0,0-2.4-1.6-5.3,6.2c0,0-2,4.2-4.4,4.9c0,0,3.3,0.5,6.7-6.2
		c0,0,1-1.9,2.8-1.4c0,0,2.5,1.3,4-1.4c0,0,4.4,1.7,3.6-6.4c0,0-0.6,3.7-2.7,3C138.7,209.7,138.8,209.1,138.6,208 M146.5,199
		c3.9,0.3,5.9-6.5,5.9-6.5c6.8-5.8,7.8-23.2,7.8-23.2c1.4-30-18-56.9-18-56.9l3.3,54.8c2.1-7.5,1.9-12,1.9-12
		c0.1-4.8-1.7-25.5-1.7-25.5c9.7,14.9,11.5,30,11.5,30c1.6,12.7-3.9,20.5-3.9,20.5c0.1-3,0.1-5.5-0.2-6.5c-0.4-1.3-0.8-0.3-0.8-0.3
		c0.4,11.9-4.5,15.2-4.5,15.2c0.1-2.2,0.1-4.6-0.1-5.7c-0.3-1.4-0.9-0.8-0.9-0.8c-0.1,11-5.7,12.8-5.7,12.8c0.8-1.8,1.3-5,1-6.5
		c-0.3-1.2-0.7-0.6-0.7-0.6c-0.8,8.4-6.3,9.4-6.3,9.4c-10.9,1.8-10.3-20.5-10.3-20.5C125.7,146,117,119,117,119l-3.1,6.3
		c4.5,16.5,6.8,44.2,6.8,44.2l-0.3,8.4c-0.1,5.4-2.2,13-5.8,13.9c-1.3,0.2-2.6-0.8-3.2-2.3c2.9-7.2,3.8-15.6,4-24.5
		c0-8.6-2.5-15.6-4.9-23.2c-0.6-1.9-0.9-3-1.7-5.7c-0.4-1.3-1-3.1-1.3-4.3c-0.7,7-1.6,11.6-2.5,18.4c-1.4,8.4-2.3,23.8-0.9,33.4
		c0.4,2,1,6.1,0.8,6.2c-3.3,4.5-9.2,7-13.2,7.4c1.1,1.2,10.6,1.6,14.9-1.1c0.6,1.9,1.5,3.3,2.5,4.5c0.9,1,1.9,1.7,3,2.3
		c2.5,1.1,4.8,0.3,6.6-2.6c1-1.2,2.3-4.7,3-7.4c3.7,23.2,14.6,11.4,14.6,11.4C143.4,206.9,146.5,199,146.5,199 M108.7,185.1
		c-0.4-0.3-0.6-1.5-0.9-2c-3.2-10.2-1.8-23.4-1.2-26.7c0.6-3.4,1-4.7,1-4.7c0.7,1.7,1.5,3.4,2.2,5.1c2.3,5.4,4.3,11,3,17.7
		c-0.5,4.4-2,6.7-3.6,9.5C109.1,184.4,108.9,184.8,108.7,185.1 M122.1,216c0.6-1.8-0.1-4.5-1.1-6.3c-0.5-1.3-1.3-2.7-1.3-4
		c0.5-1,1-0.4,1.5-0.2c0.1-0.2,0-0.4,0.1-0.5c-0.1-0.8-0.3-2-1-2.3c-0.6-0.1-0.9,0.5-1.1,1.1c-0.4,2.5,1,5.4,2.1,7.4
		c0.5,1.1,0.4,2.2,0,3.2c-1.7-4.6-3.4-5.2-4.3-5.7c-0.8-0.3-1.5-0.6-1.6,0.5c0,1,0.3,2.8,1.6,3.2c0.5,0.1,0.6-0.4,0.7-0.8
		c0.9-0.6,2.6,2,3.6,3c-0.9,2.1-2.9,3.9-3.1,4.5C118,219.1,121.3,217.7,122.1,216 M133.8,175.7c0.1,1.5,1.3,2.2,2.3,1.9
		c0.8-0.3,1.6-1.2,2.1-2c-0.1,0.6,0.1,1.2,0.4,1.4c1,0.5,2.6,1.1,3.4,0c1.4-2.7,0.9-5.4,0.4-8.5c0,0,0-0.6-0.3-2.1
		c-0.8,1.1-1,2.2-0.9,3.5c0.1,1.7,0.6,3.4,0.5,5c-0.8,0.1-1.8,0-2.3-0.9c-0.1-2.3-0.4-4.6-0.4-7c-0.7,0.5-1.1,2-1.3,2.9l0.1-0.1
		c0.6,1.1,0.4,2.8,0.4,4.1c-0.7,1.1-1.9,1.5-2.7,0.9c-1.7-1.8,0.3-5.3,0.1-7.6c-0.8,0.3-1.7,1.9-1.5,3l0.3-0.2
		C134.4,171.7,133.6,173.9,133.8,175.7 M138.4,148.4l-2.1,3.6c0,0,2.7,5.4,1.7,14.3C138,166.4,141.2,157.9,138.4,148.4 M126.7,147.4
		c-0.7,0-0.9,2.4-0.8,3.5c0.3,0.8,1,0.6,1.6,0.4c1.3,1.7,1.6,4.6,2.2,6.9c0.7-3.1,0.8-5.6,1.5-8.2c0.2-0.7,0.6-0.6,0.9-0.3
		c0.6,0.7,0.8,1,0.8,1.7c0.5,0.3,1.4-2.6,0.8-4c-0.3-0.7-0.8-1.3-1.6-1.1c-0.8,0.3-1.5,3.1-1.8,4.8c-0.2,1.2-0.3,2.5-0.6,3.4
		c-0.1-0.4-0.1-0.8-0.2-1.3C128.9,151.1,128.2,148.5,126.7,147.4 M96.9,136c0.3-2.3,1.1-4.5,1.7-6.6c0.5-2,1.1-3.5,1.6-5.6l-0.4,0.3
		c-1.2,3.1-2.4,6.3-3.3,9.6c-0.6,2.9-1.4,6.5-0.3,9.4c0.4,0.8,1,1.8,1.8,1.5c2.3-1.2,2.3-5.3,2.7-8.4c0.1-1-0.2-0.1-0.2,0.2
		c0,0.1-0.1,0.8-0.1,0.8c-0.4,1.8-1,2.7-2,2.6c-0.6-0.1-1.1-0.6-1.3-1.5c0,0,0-0.1,0-0.2c0,0,0-0.1,0-0.2c-0.1-0.4-0.1-0.9-0.1-1.4
		C96.8,136.4,96.8,136.2,96.9,136 M125.2,118.5c0.3-2.3,1.1-4.5,1.7-6.6c0.5-2,1.1-3.5,1.6-5.6l-0.4,0.3c-1.2,3.1-2.4,6.3-3.3,9.6
		c-0.6,2.9-1.4,6.5-0.3,9.3c0.4,0.8,1,1.8,1.8,1.5c2.3-1.2,2.3-5.3,2.7-8.4c0.1-1-0.2-0.1-0.2,0.2c0,0.1-0.1,0.8-0.1,0.8
		c-0.4,1.8-1,2.7-2,2.6c-0.6-0.1-1.1-0.7-1.3-1.5c0,0,0-0.1,0-0.1c0,0,0-0.1,0-0.2c-0.1-0.4-0.1-0.9-0.1-1.4
		C125.1,118.9,125.1,118.7,125.2,118.5 M85.7,190.8C72.5,159,95,122.4,105.9,106c13.4-19,14.2-18.6,19.2-28.1
		c4.3-8.3,3.8-16.1,1.6-24.9c0,0-0.8,4.9-5,9.9c-4.3,5.1-5.7,5.7-9.1,7.7c0.3,2.2,1.3,3.2,1.2,9.3c0,0.3,0,1-0.1,1.5
		c-2.8,4.4-13.3,16.1-22.1,33.1c-7.6,14.8-10.5,24.2-12.2,33.2c-3.2,16.8-1.9,28,3.8,45.1c18.1,46.3,40,50.2,47.2,70.8
		c0.8,1.8,0.6,1.6,1.1,2.5c-1-4.3-2.1-8.7-5-13.6C112.8,229.2,102,229.9,85.7,190.8 M127.8,241.9c0.5-0.2,1,0.1,1.4,0.6
		c0,0,0,0.1,0.1,0.1c0,0,0,0.1,0.1,0.1c0.2,0.3,0.3,0.6,0.4,1c0,0.2,0.1,0.3,0.1,0.5c0.3,1.6,0.2,3.5,0.3,5.1
		c0.1,1.5,0.1,2.8,0.2,4.5l0.2-0.4c0.2-2.6,0.3-5.2,0.2-7.8c-0.2-2.2-0.5-5-2.1-6.6c-0.5-0.5-1.2-0.9-1.7-0.5
		c-1.4,1.7-0.4,4.5,0,6.8c0.2,0.7,0.1,0,0.1-0.2c0,0-0.1-0.6-0.1-0.6C126.8,243,127.1,242.2,127.8,241.9 M172.3,162.7
		c-0.2-24.4-13.4-52.4-13.4-52.4c-6.6-14.2-28.3-57.2-28.3-57.2l3.2,90.2c3-6.7,2.8-15.9,2.8-15.9c0.2-9.8-2.3-49.9-2.3-49.9
		c38.2,63.3,33.4,94.7,33.4,94.7c-2.9,33.1-21.2,46.4-21.2,46.4c-30.3,20.8-53.8-18.8-53.8-18.8c23.7,49.7,51.2,30.5,51.2,30.5
		C174.7,209.5,172.3,162.7,172.3,162.7 M90.2,173.9c0.8,5.6,2.4,10.9,2.5,16.8c0.1,0.1,0.1,0.1,0.2-0.1c0.9-6.6-1.3-12.5-1.9-18.8
		c1-1.3,2.7-0.9,4-0.9c0.3-0.6,0.5-1.3,0.4-2.1c-0.9-1.3-2-3-3.4-3c-0.5,0-1,1-1.3,1.8c-0.2,0.7-0.1,1.7-0.1,2.2
		c0.3-0.6,0.3-1.3,0.9-1.6c0.5-0.2,1.2,0,1.6,0.5c-0.3,0.2-0.6,0.2-1,0.2C90.1,169.1,90.2,172.1,90.2,173.9 M94.4,153.2
		c-1.2,1.1-1.5,3.1-1.8,4.8c-0.2,1.2-0.2,2.4-0.6,3.4c-0.1-0.4-0.1-0.7-0.2-1.3c-0.6-2.2-1.3-4.9-2.8-6c-0.7-0.4-1,3.1-0.8,3.5
		c0.4,0.6,1,0.7,1.6,0.5c1.3,1.7,1.5,4.4,2.2,6.6l0.2,0c0.6-2.8,0.6-5.4,1.4-8c0.2-0.7,0.5-0.4,0.8-0.2c0.5,0.5,0.9,0.9,1,1.6
		c0.5-1.1,1.4-2.6,0.8-4C95.7,153.4,94.8,152.9,94.4,153.2 M118.4,95l-2,2.4c0,0,1.3,4.4-0.6,11C115.8,108.4,119.3,102.6,118.4,95
		 M110.3,124.1c3.1-7.1,7-10.6,7-10.6c8-7.4,6.5-13.9,6.5-13.9c-2.3,6.8-7.6,10.7-7.6,10.7C110.3,115.9,110.3,124.1,110.3,124.1"/>
	<path fill="#6E938B" d="M113.8,24.7c-1.5-1-2.6-1.9-4.3-2.8l-2.6,3.8c1.4,1.2,4.2,2.7,4.4,2.9C111.4,28.5,113.9,24.9,113.8,24.7
		 M161.3,37.8c-0.3-0.2-1.1-0.4-2.1-0.1c-1,0.2-2.2,0.9-3.4,2.5c-0.9,1.1-2.9,3.4-4.8,5.4c-1.1,0.7-2.4,1.4-5.1,0.6
		c0.3-0.1,0.5-0.3,0.7-0.5c2.2-1.8,4.4-5.9,2.8-8c-1.6-2-4.3-3.2-7.1-2.3c-0.6,0.1-1.4,0.5-2.2,1.1c-3.3,2.3-7.8,7.4-8.9,9.1
		c-1.4,0.2-2.3-0.2-3-0.9v0c-1.5-1.6-3.6-3.8-8.2-1c-3.4,2.1-5.9,5.5-10.7,12.2c-2.5,3.5-9.4,3.5-7.5-5.1c0-0.1,0-0.4,0.1-0.5
		c4.6-0.3,9.4-1.3,12.2-3.5c0.8-0.6,1.5-1.4,1.9-2c0.6-1,0.9-1.5,1.4-2.7c0.2-0.5,1.7-4.7-1.7-9.3c-0.4-0.6-1.9-2.6-3.6-2.3
		c-1,0-2.5,2.1-3,3.2c-0.9,1.8-2.5,6.1,0,6.9c0.6,0.2,1.4,0.3,2.1,0.3c2.5-0.1,2.9-1.3,3.4-3.1c0,0,0.6,0.8,0.8,2.2
		c0.2,1.5-0.1,2.3-0.1,2.3c-1.5,1.4-10,4.7-24,3c-4.5-0.8-2.1-8.4-1.3-10.6l-0.4-0.2c-3.6,7.7-4.7,12.7,0,14.7
		c1.2,0.7,6.3,1.3,11.7,1.1c-0.3,1.1-0.5,2.2-0.6,3.2V55c0.1,1.2,0.4,2.4,0.9,3.5c1.6,3.3,4.8,3.6,7,2.2c3.1-2.1,5.5-8,8.8-11.2
		c2.7-2.7,5.6-3.3,7.3-2.3c1.7,1,1.8,2.6,4.7,2.5c2.1,0.8,4.8,0.6,8.7-0.6c0.7-0.2,1.4-0.4,2-0.6c1.6-0.4,2.9-0.7,2.9-0.7
		s0.5,2.7,3.7,2.5c2.4-0.1,4.3-1.3,5.3-3.2c0.7-1,2.3-2.7,2.3-2.7c0,0.2,0.6,0.5,0.7,0.7c0.7,0.7,2.6,2.5,4.3,3.3
		c1,0.5,1.9,0.6,2.5,0.1C164.2,46.3,164.4,39.6,161.3,37.8 M113.1,36c-0.9,1.7-2.7,1.3-2.7,0.1c-0.1-1.2,0.5-1.7,1-1.8
		C112.4,34.2,113.2,35.7,113.1,36 M140,44.6c-2.2,0.6-4.5,0.9-7.1,1.2c0,0,1-1.2,2.4-2.8c1-1.1,2.5-3.2,4.7-4.1
		c1-0.4,2.2-0.6,3.5-0.2c1.6,0.6,3.4,1.3,3.7,3C144.7,43.1,142.5,44,140,44.6 M161.2,44.4v0.1c-0.4,0-1.2-0.3-1.9-0.8
		c-0.8-0.5-1.6-1.2-1.9-1.6c-0.1,0-0.1,0-0.1-0.1h0.1c0-0.2,0.7-0.7,1.4-0.8c0.2,0,0.4,0,0.5,0.1c1.4,0.3,1.9,1.5,2,3H161.2z
		 M155.3,51.2c-0.1-0.1-0.3-0.1-0.5-0.1c0,0,0,0,0,0c-0.2,0.1-0.4,0.2-0.5,0.3c-0.1,0.1-0.2,0.2-0.3,0.3c-0.1,0.1-0.2,0-0.3,0.1
		c-0.1,0.1-0.1,0.2-0.2,0.3c-0.1,0.2-0.2,0.5-0.3,0.7c-0.3,0.5-0.8,1-1.3,1.3c-1.1,0.7-2.2,1.3-3.4,1.8c-0.5,0.2-0.9,0.3-1.4,0.5
		c-0.2,0.1-0.5,0.1-0.6,0.3h0c0,0.1,0.3,0,0.3,0c0.9,0,1.7-0.3,2.6-0.4c0.7-0.1,1.2-0.4,1.7-0.8c0.4-0.3,0.8-0.5,1.2-0.9
		c0.2-0.2,0.5-0.4,0.7-0.7c0.3-0.3,0.5-0.9,0.6-1.4h0.1c0,0,0.1,0.1,0.2,0.2c0.2,0.2,0.6,0.6,1.1,0.8c0.2,0.1,0.4,0.2,0.6,0
		C156,53.1,156.1,51.6,155.3,51.2 M155.3,52.7C155.3,52.7,155.3,52.7,155.3,52.7c-0.1,0-0.3,0-0.4-0.2c-0.2-0.1-0.4-0.3-0.5-0.4
		c0,0,0,0,0,0h0c0-0.1,0.3-0.1,0.3-0.2h0.1C155.1,52,155.3,52.3,155.3,52.7L155.3,52.7z"/>
	<path fill="#6E938B" d="M36.2,252h-1.4v14.2h7.1V265h-5.7V252z M80,252l-5.8,14.2h1.4l1.5-3.8h7.2l1.5,3.8h1.5L81.6,252H80z
		 M77.6,261.1l3.1-7.8l3.1,7.8H77.6z M58.2,255.5c0-1.8,1.6-2.4,3.1-2.4c1,0,1.9,0.2,2.6,0.5l0.2-1.2c-1-0.4-2.1-0.5-2.8-0.5
		c-2.5,0-4.5,1.4-4.5,3.6c0,3.6,6.5,3.9,6.5,6.6c0,1.9-1.4,2.8-3.2,2.8c-1.3,0-2.3-0.3-3.1-0.8l-0.1,1.4c0.8,0.3,1.8,0.6,3.2,0.6
		c2.2,0,4.7-1.1,4.7-3.9C64.7,258.3,58.2,258.3,58.2,255.5 M17.2,252l-5.8,14.2h1.4l1.5-3.8h7.2l1.5,3.8h1.5L18.8,252H17.2z
		 M14.8,261.1l3.1-7.8l3.1,7.8H14.8z M192.9,252l-5.8,14.2h1.4l1.5-3.8h7.2l1.5,3.8h1.5l-5.6-14.2H192.9z M190.5,261.1l3.1-7.8
		l3.1,7.8H190.5z M217.8,264.5L217.8,264.5l-7.3-12.5h-1.8v14.2h1.4v-12.3h0l7.1,12.3h1.9V252h-1.4V264.5z M175.8,258.7L175.8,258.7
		c1.7-0.4,2.6-1.5,2.6-3.3c0-2.7-2.2-3.5-4.5-3.5h-3.4v14.2h2.8c2.9,0,5.5-1,5.5-4.1C178.8,260.2,177.6,259.1,175.8,258.7
		 M172,253.2h1.9c1.2,0,3.1,0.3,3.1,2.3c0,2.2-2,2.6-3.5,2.6H172V253.2z M173.4,265h-1.5v-5.6h1.2c2.1,0,4.3,0.3,4.3,2.8
		C177.4,264.4,175.3,265,173.4,265 M231.2,258.6l6.9-6.7h-1.8l-6.4,6.4V252h-1.4v14.2h1.4v-7.1l6.9,7.1h1.9L231.2,258.6z M118.4,252
		l-5.8,14.2h1.3l1.5-3.8h7.2l1.5,3.8h1.5l-5.6-14.2H118.4z M115.9,261.1l3.1-7.8l3.1,7.8H115.9z M148.8,264.5l-5.2-12.5h-2.2v14.2
		h1.4v-12.8h0l5.3,12.8h1.2l5.2-12.8h0v12.8h1.4V252h-2L148.8,264.5z M97.4,252H96v14.2h7.1V265h-5.7V252z"/>
</g>
</svg>
