<?xml version="1.0" encoding="UTF-8"?>
<svg xmlns="http://www.w3.org/2000/svg" version="1.1" viewBox="0 0 250 288">
  <defs>
    <style>
      .cls-1 {
        fill: #6e938b;
      }

      .cls-2 {
        fill: #015344;
      }
    </style>
  </defs>
  <!-- Generator: Adobe Illustrator 28.6.0, SVG Export Plug-In . SVG Version: 1.2.0 Build 709)  -->
  <g>
    <g id="Layer_1">
      <g>
        <path class="cls-2" d="M136.8,199.5s-1.3,4.7-4,2.6c0,0-2.1-1.4-4.6,5.4,0,0-1.7,3.6-3.8,4.3,0,0,2.9.4,5.8-5.4,0,0,.9-1.6,2.4-1.2,0,0,2.2,1.1,3.5-1.2,0,0,3.8,1.5,3.1-5.6,0,0-.5,3.2-2.3,2.6,0,0,0-.5,0-1.5M143.6,191.7c3.4.3,5.1-5.6,5.1-5.6,5.9-5,6.8-20.1,6.8-20.1,1.2-26-15.6-49.4-15.6-49.4l2.9,47.6c1.8-6.5,1.6-10.4,1.6-10.4,0-4.2-1.5-22.1-1.5-22.1,8.4,12.9,10,26,10,26,1.4,11-3.4,17.8-3.4,17.8,0-2.6,0-4.8-.2-5.6-.3-1.1-.7-.3-.7-.3.3,10.3-3.9,13.2-3.9,13.2,0-1.9,0-4,0-4.9-.3-1.2-.8-.7-.8-.7,0,9.5-4.9,11.1-4.9,11.1.7-1.6,1.1-4.3.9-5.6-.3-1-.6-.5-.6-.5-.7,7.3-5.5,8.2-5.5,8.2-9.5,1.6-8.9-17.8-8.9-17.8.8-26.6-6.8-50.1-6.8-50.1l-2.7,5.5c3.9,14.3,5.9,38.4,5.9,38.4l-.3,7.3c0,4.7-1.9,11.3-5,12.1-1.1.2-2.3-.7-2.8-2,2.5-6.2,3.3-13.5,3.5-21.3,0-7.5-2.2-13.5-4.3-20.1-.5-1.6-.8-2.6-1.5-4.9-.3-1.1-.9-2.7-1.1-3.7-.6,6.1-1.4,10.1-2.2,16-1.2,7.3-2,20.7-.8,29,.3,1.7.9,5.3.7,5.4-2.9,3.9-8,6.1-11.5,6.4,1,1,9.2,1.4,12.9-1,.5,1.6,1.3,2.9,2.2,3.9.8.9,1.6,1.5,2.6,2,2.2,1,4.2.3,5.7-2.3.9-1,2-4.1,2.6-6.4,3.2,20.1,12.7,9.9,12.7,9.9,6.2,2.3,8.9-4.6,8.9-4.6M110.8,179.6c-.3-.3-.5-1.3-.8-1.7-2.8-8.9-1.6-20.3-1-23.2.5-3,.9-4.1.9-4.1.6,1.5,1.3,3,1.9,4.4,2,4.7,3.7,9.5,2.6,15.4-.4,3.8-1.7,5.8-3.1,8.2,0,.3-.3.7-.4,1M122.4,206.5c.5-1.6,0-3.9-1-5.5-.4-1.1-1.1-2.3-1.1-3.5.4-.9.9-.3,1.3-.2,0-.2,0-.3,0-.4,0-.7-.3-1.7-.9-2-.5,0-.8.4-1,1-.3,2.2.9,4.7,1.8,6.4.4,1,.3,1.9,0,2.8-1.5-4-3-4.5-3.7-4.9-.7-.3-1.3-.5-1.4.4,0,.9.3,2.4,1.4,2.8.4,0,.5-.3.6-.7.8-.5,2.3,1.7,3.1,2.6-.8,1.8-2.5,3.4-2.7,3.9-.2,0,2.7-1.2,3.4-2.7M132.6,171.5c0,1.3,1.1,1.9,2,1.6.7-.3,1.4-1,1.8-1.7,0,.5,0,1,.3,1.2.9.4,2.3,1,3,0,1.2-2.3.8-4.7.3-7.4,0,0,0-.5-.3-1.8-.7,1-.9,1.9-.8,3,0,1.5.5,3,.4,4.3-.7,0-1.6,0-2-.8,0-2-.3-4-.3-6.1-.6.4-1,1.7-1.1,2.5h0c.5.9.3,2.3.3,3.5-.6,1-1.6,1.3-2.3.8-1.5-1.6.3-4.6,0-6.6-.7.3-1.5,1.6-1.3,2.6l.3-.2c0,1.5-.7,3.4-.5,4.9M136.6,147.8l-1.8,3.1s2.3,4.7,1.5,12.4c0,0,2.8-7.3.3-15.5M126.4,146.9c-.6,0-.8,2.1-.7,3,.3.7.9.5,1.4.3,1.1,1.5,1.4,4,1.9,6,.6-2.7.7-4.9,1.3-7.1.2-.6.5-.5.8-.3.5.6.7.9.7,1.5.4.3,1.2-2.3.7-3.5-.3-.6-.7-1.1-1.4-1-.7.3-1.3,2.7-1.6,4.2-.2,1-.3,2.2-.5,3,0-.3,0-.7-.2-1.1-.5-1.8-1.1-4.1-2.4-5M100.6,137c.3-2,1-3.9,1.5-5.7.4-1.7,1-3,1.4-4.9l-.3.3c-1,2.7-2.1,5.5-2.9,8.3-.5,2.5-1.2,5.6-.3,8.2.3.7.9,1.6,1.6,1.3,2-1,2-4.6,2.3-7.3,0-.9-.2,0-.2.2s0,.7,0,.7c-.3,1.6-.9,2.3-1.7,2.3-.5,0-1-.5-1.1-1.3v-.3c0-.3,0-.8,0-1.2-.2,0-.2-.3,0-.4M125.1,121.8c.3-2,1-3.9,1.5-5.7.4-1.7,1-3,1.4-4.9l-.3.3c-1,2.7-2.1,5.5-2.9,8.3-.5,2.5-1.2,5.6-.3,8.1.3.7.9,1.6,1.6,1.3,2-1,2-4.6,2.3-7.3,0-.9-.2,0-.2.2s0,.7,0,.7c-.3,1.6-.9,2.3-1.7,2.3-.5,0-1-.6-1.1-1.3h0v-.3c0-.3,0-.8,0-1.2-.2,0-.2-.3,0-.4M90.8,184.6c-11.5-27.6,8.1-59.4,17.5-73.6,11.6-16.5,12.3-16.1,16.7-24.4,3.7-7.2,3.3-14,1.4-21.6,0,0-.7,4.3-4.3,8.6-3.7,4.4-4.9,4.9-7.9,6.7.3,1.9,1.1,2.8,1,8.1,0,.3,0,.9,0,1.3-2.4,3.8-11.5,14-19.2,28.7-6.6,12.8-9.1,21-10.6,28.8-2.8,14.6-1.6,24.3,3.3,39.1,15.7,40.2,34.7,43.6,41,61.5.7,1.6.5,1.4,1,2.2-.9-3.7-1.8-7.6-4.3-11.8-11.9-20.2-21.3-19.6-35.4-53.6M127.4,228.9c.4-.2.9,0,1.2.5,0,0,0,0,0,0,0,0,0,0,0,0,.2.3.3.5.3.9,0,.2,0,.3,0,.4.3,1.4.2,3,.3,4.4,0,1.3,0,2.4.2,3.9l.2-.3c.2-2.3.3-4.5.2-6.8-.2-1.9-.4-4.3-1.8-5.7s-1-.8-1.5-.4c-1.2,1.5-.3,3.9,0,5.9.2.6,0,0,0-.2v-.5c-.3-1.3,0-2,.6-2.3M166,160.2c-.2-21.2-11.6-45.5-11.6-45.5-5.7-12.3-24.6-49.7-24.6-49.7l2.8,78.3c2.6-5.8,2.4-13.8,2.4-13.8.2-8.5-2-43.3-2-43.3,33.2,54.9,29,82.2,29,82.2-2.5,28.7-18.4,40.3-18.4,40.3-26.3,18.1-46.7-16.3-46.7-16.3,20.6,43.1,44.4,26.5,44.4,26.5,26.7-18.1,24.7-58.7,24.7-58.7M94.7,169.9c.7,4.9,2.1,9.5,2.2,14.6q0,0,.2,0c.8-5.7-1.1-10.9-1.6-16.3.9-1.1,2.3-.8,3.5-.8.3-.5.4-1.1.3-1.8-.8-1.1-1.7-2.6-3-2.6s-.9.9-1.1,1.6c-.2.6,0,1.5,0,1.9.3-.5.3-1.1.8-1.4.4-.2,1,0,1.4.4-.3.2-.5.2-.9.2-1.7.2-1.6,2.8-1.6,4.3M98.4,151.9c-1,1-1.3,2.7-1.6,4.2-.2,1-.2,2.1-.5,3,0-.3,0-.6-.2-1.1-.5-1.9-1.1-4.3-2.4-5.2-.6-.3-.9,2.7-.7,3,.3.5.9.6,1.4.4,1.1,1.5,1.3,3.8,1.9,5.7h.2c.5-2.4.5-4.7,1.2-6.9.2-.6.4-.3.7-.2.4.4.8.8.9,1.4.4-1,1.2-2.3.7-3.5-.4-.6-1.2-1-1.6-.8M119.2,101.4l-1.7,2.1s1.1,3.8-.5,9.5c0,0,3-5,2.3-11.6M112.2,126.7c2.7-6.2,6.1-9.2,6.1-9.2,6.9-6.4,5.6-12.1,5.6-12.1-2,5.9-6.6,9.3-6.6,9.3-5.1,4.9-5.1,12-5.1,12"/>
        <path class="cls-1" d="M115.2,40.4c-1.3-.9-2.3-1.6-3.7-2.4l-2.3,3.3c1.2,1,3.6,2.3,3.8,2.5,0,0,2.3-3.2,2.2-3.4M156.5,51.8c-.3-.2-1-.3-1.8,0-.9.2-1.9.8-3,2.2-.8,1-2.5,3-4.2,4.7-1,.6-2.1,1.2-4.4.5.3,0,.4-.3.6-.4,1.9-1.6,3.8-5.1,2.4-6.9-1.4-1.7-3.7-2.8-6.2-2-.5,0-1.2.4-1.9,1-2.9,2-6.8,6.4-7.7,7.9-1.2.2-2-.2-2.6-.8h0c-1.3-1.4-3.1-3.3-7.1-.9-3,1.8-5.1,4.8-9.3,10.6-2.2,3-8.2,3-6.5-4.4,0,0,0-.3,0-.4,4-.3,8.2-1.1,10.6-3,.7-.5,1.3-1.2,1.6-1.7.5-.9.8-1.3,1.2-2.3.2-.4,1.5-4.1-1.5-8.1-.3-.5-1.6-2.3-3.1-2-.9,0-2.2,1.8-2.6,2.8-.8,1.6-2.2,5.3,0,6,.5.2,1.2.3,1.8.3,2.2,0,2.5-1.1,3-2.7,0,0,.5.7.7,1.9.2,1.3,0,2,0,2-1.3,1.2-8.7,4.1-20.8,2.6-3.9-.7-1.8-7.3-1.1-9.2l-.3-.2c-3.1,6.7-4.1,11,0,12.8,1,.6,5.5,1.1,10.2,1-.3,1-.4,1.9-.5,2.8v1.3c0,1,.3,2.1.8,3,1.4,2.9,4.2,3.1,6.1,1.9,2.7-1.8,4.8-6.9,7.6-9.7,2.3-2.3,4.9-2.9,6.3-2,1.5.9,1.6,2.3,4.1,2.2,1.8.7,4.2.5,7.6-.5.6-.2,1.2-.3,1.7-.5,1.4-.3,2.5-.6,2.5-.6,0,0,.4,2.3,3.2,2.2,2.1,0,3.7-1.1,4.6-2.8.6-.9,2-2.3,2-2.3,0,.2.5.4.6.6.6.6,2.3,2.2,3.7,2.9.9.4,1.6.5,2.2,0,2.1-1.9,2.3-7.7-.4-9.3M114.6,50.2c-.8,1.5-2.3,1.1-2.3,0,0-1,.4-1.5.9-1.6.9,0,1.6,1.2,1.5,1.5M138,57.7c-1.9.5-3.9.8-6.2,1,0,0,.9-1,2.1-2.4.9-1,2.2-2.8,4.1-3.6.9-.3,1.9-.5,3-.2,1.4.5,3,1.1,3.2,2.6-2.2,1.2-4.1,2-6.2,2.5M156.4,57.5h0c-.3,0-1-.2-1.6-.6-.7-.4-1.4-1-1.6-1.4q0,0,0,0h0c0-.2.6-.6,1.2-.7.2,0,.3,0,.4,0,1.2.3,1.6,1.3,1.7,2.6h0ZM151.3,63.4c0,0-.3,0-.4,0h0c-.2,0-.3.2-.4.3s-.2.2-.3.3-.2,0-.3,0,0,.2-.2.3c0,.2-.2.4-.3.6-.3.4-.7.9-1.1,1.1-1,.6-1.9,1.1-3,1.6-.4.2-.8.3-1.2.4-.2,0-.4,0-.5.3h0c0,0,.3,0,.3,0,.8,0,1.5-.3,2.3-.3.6,0,1-.3,1.5-.7.3-.3.7-.4,1-.8s.4-.3.6-.6c.3-.3.4-.8.5-1.2h0s0,0,.2.2c.2.2.5.5,1,.7.2,0,.3.2.5,0,.3-.3.4-1.6-.3-2M151.3,64.7h0c0,0-.3,0-.3-.2-.2,0-.3-.3-.4-.3h0c0,0,.3,0,.3-.2h0c.3,0,.4.3.4.7h0Z"/>
        <path class="cls-1" d="M47.9,237.7h-1.2v12.3h6.2v-1h-4.9s0-11.3,0-11.3ZM85.9,237.7l-5,12.3h1.2l1.3-3.3h6.2l1.3,3.3h1.3l-4.9-12.3h-1.4ZM83.8,245.6l2.7-6.8,2.7,6.8h-5.4ZM67,240.7c0-1.6,1.4-2.1,2.7-2.1s1.6.2,2.3.4l.2-1c-.9-.3-1.8-.4-2.4-.4-2.2,0-3.9,1.2-3.9,3.1,0,3.1,5.6,3.4,5.6,5.7s-1.2,2.4-2.8,2.4-2-.3-2.7-.7v1.2c.6.3,1.5.5,2.7.5,1.9,0,4.1-1,4.1-3.4,0-3.4-5.7-3.4-5.7-5.8M31.4,237.7l-5,12.3h1.2l1.3-3.3h6.2l1.3,3.3h1.3l-4.9-12.3h-1.4ZM29.3,245.6l2.7-6.8,2.7,6.8h-5.4ZM183.9,237.7l-5,12.3h1.2l1.3-3.3h6.2l1.3,3.3h1.3l-4.9-12.3h-1.5ZM181.8,245.6l2.7-6.8,2.7,6.8h-5.4ZM205.5,248.6h0l-6.3-10.9h-1.6v12.3h1.2v-10.7h0l6.2,10.7h1.6v-12.3h-1.2v10.9h0ZM169.1,243.5h0c1.5-.3,2.3-1.3,2.3-2.9,0-2.3-1.9-3-3.9-3h-3v12.3h2.4c2.5,0,4.8-.9,4.8-3.6,0-1.6-1-2.5-2.6-2.9M165.8,238.7h1.6c1,0,2.7.3,2.7,2s-1.7,2.3-3,2.3h-1.3v-4.3ZM167,249h-1.3v-4.9h1c1.8,0,3.7.3,3.7,2.4s-1.8,2.4-3.5,2.4M217.1,243.4l6-5.8h-1.6l-5.6,5.6v-5.5h-1.2v12.3h1.2v-6.2l6,6.2h1.6l-6.5-6.6ZM119.2,237.7l-5,12.3h1.1l1.3-3.3h6.2l1.3,3.3h1.3l-4.9-12.3h-1.4ZM117.1,245.6l2.7-6.8,2.7,6.8h-5.4ZM145.6,248.6l-4.5-10.9h-1.9v12.3h1.2v-11.1h0l4.6,11.1h1l4.5-11.1h0v11.1h1.2v-12.3h-1.7l-4.4,10.9ZM101,237.7h-1.2v12.3h6.2v-1h-4.9v-11.3Z"/>
      </g>
    </g>
  </g>
</svg>