<?xml version="1.0" encoding="UTF-8" standalone="no"?>
<!-- Created with Inkscape (http://www.inkscape.org/) -->

<svg
   xmlns:dc="http://purl.org/dc/elements/1.1/"
   xmlns:cc="http://creativecommons.org/ns#"
   xmlns:rdf="http://www.w3.org/1999/02/22-rdf-syntax-ns#"
   xmlns:svg="http://www.w3.org/2000/svg"
   xmlns="http://www.w3.org/2000/svg"
   xmlns:sodipodi="http://sodipodi.sourceforge.net/DTD/sodipodi-0.dtd"
   xmlns:inkscape="http://www.inkscape.org/namespaces/inkscape"
   id="svg2"
   version="1.1"
   inkscape:version="0.48.1 "
   width="142"
   height="110"
   sodipodi:docname="BEA.svg">
  <title
     id="title3773">Reda Kerbouche</title>
  <metadata
     id="metadata8">
    <rdf:RDF>
      <cc:Work
         rdf:about="">
        <dc:format>image/svg+xml</dc:format>
        <dc:type
           rdf:resource="http://purl.org/dc/dcmitype/StillImage" />
        <dc:title>Reda Kerbouche</dc:title>
      </cc:Work>
    </rdf:RDF>
  </metadata>
  <defs
     id="defs6" />
  <sodipodi:namedview
     pagecolor="#ffffff"
     bordercolor="#666666"
     borderopacity="1"
     objecttolerance="10"
     gridtolerance="10"
     guidetolerance="10"
     inkscape:pageopacity="0"
     inkscape:pageshadow="2"
     inkscape:window-width="1280"
     inkscape:window-height="750"
     id="namedview4"
     showgrid="false"
     inkscape:zoom="4.02996"
     inkscape:cx="92.583049"
     inkscape:cy="32.771609"
     inkscape:window-x="-8"
     inkscape:window-y="-8"
     inkscape:window-maximized="1"
     inkscape:current-layer="svg2" />
  <path
     sodipodi:type="arc"
     style="fill:#00a9ed;fill-opacity:1;stroke:#00a9ed;stroke-width:1.07999051;stroke-linecap:butt;stroke-linejoin:miter;stroke-miterlimit:4;stroke-opacity:1;stroke-dasharray:none;stroke-dashoffset:0"
     id="path2987"
     sodipodi:cx="27.83993"
     sodipodi:cy="130.37334"
     sodipodi:rx="51.412422"
     sodipodi:ry="49.989944"
     d="m 79.252352,130.37334 a 51.412422,49.989944 0 1 1 -102.824845,0 51.412422,49.989944 0 1 1 102.824845,0 z"
     transform="matrix(0.90909091,0,0,0.94308943,59.791673,-74.099427)" />
  <path
     style="fill:#ffffff;stroke:#ffffff;stroke-width:1px;stroke-linecap:butt;stroke-linejoin:miter;stroke-opacity:1"
     d="m 104.43465,49.76575 c 1.3277,1.69452 3.74212,2.55587 5.89312,2.64175 1.61627,0.0645 3.33785,-0.58036 4.57225,-1.6257 1.33051,-1.12672 2.54014,-4.57224 2.54014,-4.57224 0,0 7.46691,-6.87628 7.72202,-11.48144 0.2832,-5.11247 -7.11239,-13.61514 -7.11239,-13.61514 C 107.96256,11.70557 100.28454,8.43545 85.739216,6.88819 c -7.53068,0.6599 -14.52373,0.0653 -23.572495,4.26744 -4.100873,2.93066 -7.658374,5.96012 -5.893124,9.95735 l 7.672201,4.54967 c 0.727847,0.71082 2.065328,0.34518 3.097991,1.54666 l 11.786247,2.64175 -0.20321,5.89312 -15.037627,-0.60963 c 0,0 -4.765969,-5.51297 -6.604363,-7.62042 -0.73471,-0.84224 -2.704672,-0.91042 -3.352984,0 -3.302262,4.63732 -7.11239,16.15528 -7.11239,16.15528 l 1.219267,10.7702 c 0,0 -0.273264,1.90315 3.454589,2.54014 2.368194,0.40466 4.673857,-3.5562 4.673857,-3.5562 l 2.438534,0.40642 0.812845,9.95735 5.28349,3.86101 1.016056,15.54566 7.925236,0.30481 c 1.90478,0.0733 3.8852,-2.68873 7.51881,-9.34771 0,0 0.69547,-8.75322 2.23532,-12.8023 1.37312,-3.61066 6.09634,-9.85574 6.09634,-9.85574 l 1.8289,-5.99473 12.599094,-0.20321 c 0,0 -0.12132,3.27838 0.81285,4.47064 z"
     id="path3759"
     inkscape:connector-curvature="0"
     sodipodi:nodetypes="aaacssccccccccssccscccccscsccca" />
  <path
     style="fill:#ffffff;stroke:#ffffff;stroke-width:1px;stroke-linecap:butt;stroke-linejoin:miter;stroke-opacity:1"
     d="m 121.30117,64.39695 -2.43853,0 c 0,0 0.91089,-4.40433 -0.10161,-6.70597 -0.62197,-1.41388 -2.15705,-2.47933 -3.6578,-2.84495 -1.80714,-0.44025 -3.15265,-0.521 -4.36904,0.50803 -1.74454,1.47583 -1.11766,6.40115 -1.11766,6.40115 l 4.57225,1.42248 c 0,0 1.5282,1.93191 1.42248,3.04816 -0.14181,1.49731 -2.64175,3.65781 -2.64175,3.65781 0,0 -2.70378,-0.36482 -3.6578,0.40642 -0.99947,0.80799 -1.21926,3.6578 -1.21926,3.6578 l 1.42248,6.50276 6.70596,4.06422 11.27822,-14.12318 -0.71123,-4.67385 z"
     id="path3761"
     inkscape:connector-curvature="0"
     sodipodi:nodetypes="ccsssccacscccccc" />
  <path
     style="fill:#ffffff;stroke:#ffffff;stroke-width:1px;stroke-linecap:butt;stroke-linejoin:miter;stroke-opacity:1"
     d="m 91.632336,69.07081 c -0.88439,-0.50479 -2.09492,-0.56138 -3.04816,-0.20321 -1.79347,0.67387 -4.06423,4.06422 -4.06423,4.06422 l 0.30482,4.77546 3.55619,0.50803 c 0,0 2.86703,-1.51808 3.65781,-2.84495 0.42188,-0.70788 0.23364,-1.6328 0.40642,-2.43854 0.13952,-0.65062 0.50803,-1.9305 0.50803,-1.9305 0,0 -0.64371,-1.54399 -1.32088,-1.93051 z"
     id="path3763"
     inkscape:connector-curvature="0"
     sodipodi:nodetypes="sscccaacs" />
  <path
     sodipodi:nodetypes="ccccccc"
     inkscape:connector-curvature="0"
     id="path3765"
     d="m 129.71448,14.38851 -3.87969,12.5012 c 2.50602,2.82375 3.76846,6.56414 3.5923,9.77106 l -71.414924,5.60399 2.87384,9.05259 79.461674,-6.46614 c -0.0987,-16.28966 -6.17099,-22.35209 -10.6332,-30.4627 z"
     style="fill:#01398e;fill-opacity:1;stroke:#01398e;stroke-width:1px;stroke-linecap:butt;stroke-linejoin:miter;stroke-opacity:1" />
  <path
     style="fill:#01398e;stroke:#01398e;stroke-width:1px;stroke-linecap:butt;stroke-linejoin:miter;stroke-opacity:1;fill-opacity:1"
     d="m 51.137757,43.162377 2.94569,9.19628 -16.116922,2.549168 c 0.190471,3.779031 1.757975,10.018638 3.926662,14.54987 2.531421,5.289126 6.344933,10.63271 10.352053,14.222573 4.491075,4.023424 9.076502,7.362169 14.407068,9.547647 6.032009,2.473063 13.376435,3.907729 19.195046,3.749778 6.356125,-0.172543 13.557408,-1.504216 20.152086,-4.759844 4.90054,-2.419272 9.71424,-6.302821 13.34912,-9.966523 4.61811,-4.654737 8.33065,-10.737831 10.63277,-17.268185 1.68234,-4.772267 2.49584,-9.212402 2.80934,-13.887694 l 8.00386,-0.617501 c 1.10253,4.820941 -0.74093,12.071285 -2.79453,17.669577 -2.53165,6.901489 -6.38555,13.522556 -11.45774,18.84352 -5.40925,5.674555 -12.23505,10.191023 -19.48808,13.166617 -6.74748,2.7682 -14.216884,3.86226 -21.508569,4.01296 -6.770536,0.13993 -13.672766,-0.78956 -20.108214,-2.89782 C 60.746992,99.736224 56.447789,97.088746 52.372919,94.303713 48.482927,91.645037 44.662281,88.718612 41.644499,85.100106 37.462939,80.086159 34.287534,74.209168 31.76836,68.185974 29.623528,63.057809 28.137525,57.599049 27.420505,52.086858 c -0.301262,-2.315986 0.03552,-7.006402 0.03552,-7.006402 z"
     id="path3767"
     inkscape:connector-curvature="0"
     sodipodi:nodetypes="cccasassssccaaaaaaaaacc" />
  <text
     xml:space="preserve"
     style="font-size:36px;font-style:normal;font-variant:normal;font-weight:bold;font-stretch:normal;text-align:start;line-height:125%;letter-spacing:0px;word-spacing:0px;writing-mode:lr-tb;text-anchor:start;fill:#01398e;fill-opacity:1;stroke:none;font-family:Times New Roman;-inkscape-font-specification:'Times New Roman, Bold'"
     x="2.2990777"
     y="25.509109"
     id="text3769"
     sodipodi:linespacing="125%"><tspan
       sodipodi:role="line"
       id="tspan3771"
       x="2.2990777"
       y="25.509109">BEA</tspan></text>
  <path
     sodipodi:type="arc"
     style="fill:#01398e;fill-opacity:1;fill-rule:nonzero;stroke:#01398e;stroke-width:1;stroke-linecap:butt;stroke-linejoin:miter;stroke-miterlimit:4;stroke-opacity:1;stroke-dasharray:none;stroke-dashoffset:0"
     id="path2990"
     sodipodi:cx="164.6319"
     sodipodi:cy="71.545837"
     sodipodi:rx="3.605078"
     sodipodi:ry="3.4715567"
     d="m 168.23697,71.545837 a 3.605078,3.4715567 0 1 1 -7.21015,0 3.605078,3.4715567 0 1 1 7.21015,0 z"
     transform="translate(-45.664322,-9.880584)" />
</svg>
