<?xml version="1.0" encoding="utf-8"?>
<!-- Generator: Adobe Illustrator 28.6.0, SVG Export Plug-In . SVG Version: 9.03 Build 54939)  -->
<svg version="1.1" baseProfile="tiny" id="Calque_1"
	 xmlns="http://www.w3.org/2000/svg" xmlns:xlink="http://www.w3.org/1999/xlink" x="0px" y="0px" viewBox="0 0 300 300"
	 overflow="visible" xml:space="preserve">
<g>
	<rect fill="#4C8C1E" width="300" height="300"/>
	<path fill-rule="evenodd" fill="#FFFFFF" d="M186.5,142.6c-21.6,11.9-45.5,8.4-45.5,8.4c-46.9-6.8-32.5-50.9-32.5-50.9
		c18.6-52.4,92-48.4,92-48.4c-9.4-4.9-8.6-23.1-8.6-23.1c-49.3,14.5-95.9,0-95.9,0c2.1,22.1-3.5,25.9-3.5,25.9
		c14.8-7.6,59-4.5,59-4.5c-25.1,5.6-45.2,32.6-45.2,32.6s-48,77.2,36.1,84.2c0,0,31.3,0.3,42.6-22.3L186.5,142.6"/>
	<path fill-rule="evenodd" fill="#FFFFFF" d="M186.6,78.6v-5.9c0,0-5.7-0.2-5.7,5.9H186.6 M114.1,90.6h72.5v-6.5h-14.4
		c0.5-15.8,15.8-18.3,15.8-18.3c5.7-2.2,9.8-6.8,9.8-6.8v38.5H125C118.7,92.2,114.1,90.6,114.1,90.6"/>
	<path fill-rule="evenodd" fill="#FFFFFF" d="M93.1,125.5H215V92.5c0,0-10.6,10.3-14.8,12.3v1.6h4.7v9.9H84
		C84,116.3,93.1,121.9,93.1,125.5"/>
	<path fill-rule="evenodd" fill="#FFFFFF" d="M161.3,75.2c0,3-2.4,5.5-5.3,5.5c-2.9,0-5.3-2.5-5.3-5.5c0-3,2.4-5.5,5.3-5.5
		S161.3,72.2,161.3,75.2"/>
	<path fill-rule="evenodd" fill="#FFFFFF" d="M207.4,133.6c0,3-2.4,5.5-5.3,5.5c-2.9,0-5.3-2.5-5.3-5.5c0-3,2.4-5.5,5.3-5.5
		S207.4,130.6,207.4,133.6"/>
	<path fill-rule="evenodd" fill="#FFFFFF" d="M50.8,251.5h2.6c6.1,0,16.4,0.4,16.4-9.6c0-10.9-10.2-9.8-17-9.8h-2.1V251.5
		 M50.8,214.6h2.3c5.5,0,11.2-1.1,11.2-8.7c0-8.2-6.5-8.7-12-8.7h-1.5V214.6z M30.1,269.4v-90.1h29.5c14.2,0,23.6,6.2,23.6,23.4
		c0,8.1-2.3,14.7-8.8,18.4v0.2c11.4,1.7,16.2,10.4,16.2,23c0,18.9-14.2,25.1-28.8,25.1H30.1z"/>
	<polygon fill-rule="evenodd" fill="#FFFFFF" points="98.7,179.3 119.9,179.3 158.9,234.4 159.1,234.4 159.1,179.3 180.4,179.3 
		180.4,269.4 159.1,269.4 120.1,214.2 119.9,214.2 119.9,269.4 98.7,269.4 	"/>
	<path fill-rule="evenodd" fill="#FFFFFF" d="M230,207.1h-0.2l-8.5,28.7h17.1L230,207.1z M215.6,253.7l-5.5,15.6h-21.9l30.4-90.1
		h22.5l29.8,90.1H249l-5.2-15.6H215.6z"/>
</g>
</svg>
