<?xml version="1.0" encoding="UTF-8" standalone="no"?>
<!-- Created with Inkscape (http://www.inkscape.org/) -->

<svg
   xmlns:dc="http://purl.org/dc/elements/1.1/"
   xmlns:cc="http://creativecommons.org/ns#"
   xmlns:rdf="http://www.w3.org/1999/02/22-rdf-syntax-ns#"
   xmlns:svg="http://www.w3.org/2000/svg"
   xmlns="http://www.w3.org/2000/svg"
   xmlns:sodipodi="http://sodipodi.sourceforge.net/DTD/sodipodi-0.dtd"
   xmlns:inkscape="http://www.inkscape.org/namespaces/inkscape"
   id="svg2"
   version="1.1"
   inkscape:version="0.48.1 "
   width="344"
   height="312"
   sodipodi:docname="Crédit_populaire_d'Algérie_logo.svg">
  <title
     id="title5317">Reda Kerbouche</title>
  <metadata
     id="metadata8">
    <rdf:RDF>
      <cc:Work
         rdf:about="">
        <dc:format>image/svg+xml</dc:format>
        <dc:type
           rdf:resource="http://purl.org/dc/dcmitype/StillImage" />
        <dc:title>Reda Kerbouche</dc:title>
      </cc:Work>
    </rdf:RDF>
  </metadata>
  <defs
     id="defs6" />
  <sodipodi:namedview
     pagecolor="#ffffff"
     bordercolor="#666666"
     borderopacity="1"
     objecttolerance="10"
     gridtolerance="10"
     guidetolerance="10"
     inkscape:pageopacity="0"
     inkscape:pageshadow="2"
     inkscape:window-width="1280"
     inkscape:window-height="750"
     id="namedview4"
     showgrid="false"
     inkscape:snap-midpoints="true"
     inkscape:zoom="1.1598884"
     inkscape:cx="186.43192"
     inkscape:cy="102.27332"
     inkscape:window-x="-8"
     inkscape:window-y="-8"
     inkscape:window-maximized="1"
     inkscape:current-layer="svg2" />
  <rect
     style="fill:#dadc12;fill-opacity:1;stroke:#73baa9;stroke-width:0;stroke-linecap:round;stroke-linejoin:miter;stroke-miterlimit:4;stroke-opacity:0;stroke-dasharray:none;stroke-dashoffset:0"
     id="rect5287"
     width="323.71509"
     height="298.11047"
     x="11.58303"
     y="7.1832604"
     rx="35.604607"
     ry="34.994972" />
  <rect
     style="fill:#024eac;fill-opacity:1;stroke:#73baa9;stroke-width:0;stroke-linecap:round;stroke-linejoin:miter;stroke-miterlimit:4;stroke-opacity:0;stroke-dasharray:none;stroke-dashoffset:0"
     id="rect5287-2"
     width="312.13205"
     height="285.91782"
     x="17.374685"
     y="13.584556"
     rx="35.604607"
     ry="34.994972" />
  <path
     sodipodi:nodetypes="ccaaaaccaac"
     inkscape:connector-curvature="0"
     id="path5307"
     d="m 114.96205,23.979983 -34.055,32.330698 c 0,0 16.668597,16.093003 26.29563,22.41595 7.35873,4.833149 15.3375,8.914114 23.70918,11.639051 14.28681,4.650279 29.40375,8.668014 44.40083,7.759364 21.28024,-1.289337 42.76642,-7.847829 61.21278,-18.536263 9.05894,-5.249053 22.84703,-21.553798 22.84703,-21.553798 l -31.89963,-33.19285 c 0,0 -21.51365,19.130541 -34.91715,22.847026 -14.41128,3.995922 -30.61151,2.905278 -44.8319,-1.724303 -12.50551,-4.071286 -32.76177,-21.984875 -32.76177,-21.984875 z"
     style="fill:#f8c603;fill-opacity:1;stroke:#000000;stroke-width:0;stroke-linecap:butt;stroke-linejoin:miter;stroke-miterlimit:4;stroke-opacity:1;stroke-dasharray:none" />
  <path
     sodipodi:nodetypes="ccaaaaccaac"
     inkscape:connector-curvature="0"
     id="path5311"
     d="M 296.44209,95.27859 262.91676,62.398966 c 0,0 -15.48794,17.232245 -21.46333,27.078775 -4.56749,7.526517 -8.36114,15.645829 -10.7856,24.109419 -4.13751,14.44364 -7.61325,29.69433 -6.17002,44.64944 2.04788,21.22067 9.36891,42.45914 20.70878,60.51234 5.56896,8.86587 22.35534,22.06336 22.35534,22.06336 l 32.0334,-33.06377 c 0,0 -19.88606,-20.8173 -24.07846,-34.07965 -4.50763,-14.25951 -3.99578,-30.48834 0.12342,-44.86487 3.62244,-12.64283 20.8018,-33.52542 20.8018,-33.52542 z"
     style="fill:#f8c603;fill-opacity:1;stroke:#000000;stroke-width:0;stroke-linecap:butt;stroke-linejoin:miter;stroke-miterlimit:4;stroke-opacity:1;stroke-dasharray:none" />
  <path
     sodipodi:nodetypes="ccaasasccaacc"
     inkscape:connector-curvature="0"
     id="path5313"
     d="m 47.368021,206.71946 33.57363,32.83029 c 0,0 15.462606,-17.25499 21.423509,-27.1103 4.55641,-7.53322 8.33811,-15.6581 10.75013,-24.12524 4.11626,-14.44972 7.56957,-29.7055 6.10436,-44.65846 -1.13332,-11.56592 -3.97891,-23.16777 -7.89671,-34.1882 C 108.05277,100.26884 103.59239,91.378564 98.421921,83.173913 92.83992,74.316241 76.034151,61.143442 76.034151,61.143442 l -31.98475,33.110841 c 0,0 19.916636,20.788047 24.12855,34.044207 4.5286,14.25287 4.040641,30.48243 -0.0574,44.86501 -3.603846,12.64814 -20.75249,33.55596 -20.75249,33.55596 z"
     style="fill:#f8c603;fill-opacity:1;stroke:#000000;stroke-width:0;stroke-linecap:butt;stroke-linejoin:miter;stroke-miterlimit:4;stroke-opacity:1;stroke-dasharray:none" />
  <path
     transform="matrix(1.1473685,0,0,1.0824743,154.88922,-36.658689)"
     d="m 55.177724,174.48677 a 40.952217,41.814369 0 1 1 -81.904434,0 40.952217,41.814369 0 1 1 81.904434,0 z"
     sodipodi:ry="41.814369"
     sodipodi:rx="40.952217"
     sodipodi:cy="174.48677"
     sodipodi:cx="14.225507"
     id="path5315"
     style="fill:#f8c603;fill-opacity:1;stroke:#000000;stroke-width:0;stroke-linecap:round;stroke-linejoin:miter;stroke-miterlimit:4;stroke-opacity:1;stroke-dasharray:none;stroke-dashoffset:0"
     sodipodi:type="arc" />
  <path
     sodipodi:nodetypes="ccaasaaccaac"
     inkscape:connector-curvature="0"
     id="path5307-4"
     d="m 119.38664,279.23852 -34.054998,-32.3307 c 0,0 16.668598,-16.093 26.295628,-22.41595 7.35873,-4.83315 15.3375,-8.91411 23.70918,-11.63905 14.28681,-4.65028 29.40375,-8.66801 44.40083,-7.75936 12.47079,0.75558 25.08491,3.36953 36.97131,7.46619 8.54502,2.94506 16.76978,7.06203 24.24147,12.14776 8.45406,5.7544 22.84703,20.47611 22.84703,20.47611 l -31.89963,33.19285 c 0,0 -21.51365,-19.13054 -34.91715,-22.84703 -14.41128,-3.99592 -30.61151,-2.90528 -44.8319,1.72431 -12.50551,4.07128 -32.76177,21.98487 -32.76177,21.98487 z"
     style="fill:#f8c603;fill-opacity:1;stroke:#000000;stroke-width:0;stroke-linecap:butt;stroke-linejoin:miter;stroke-miterlimit:4;stroke-opacity:1;stroke-dasharray:none" />
</svg>
