<?xml version="1.0" encoding="utf-8"?>
<!-- Generator: Adobe Illustrator 28.6.0, SVG Export Plug-In . SVG Version: 9.03 Build 54939)  -->
<svg version="1.1" baseProfile="tiny" id="Calque_1"
	 xmlns="http://www.w3.org/2000/svg" xmlns:xlink="http://www.w3.org/1999/xlink" x="0px" y="0px" viewBox="0 0 123 25.3"
	 overflow="visible" xml:space="preserve">
<path fill="#E73137" d="M40.5,3.4c-1.2-0.5-2.5-0.9-3.9-0.9c-1.8,0-2.7,0.4-2.7,1.1c0,2,8,0.4,8,4.6c0,1.8-1.6,3.1-4.9,3.1
	c-1.8,0-3.6-0.4-5.2-1.4l0.7-1.6c1.4,0.8,2.9,1.2,4.5,1.2c2,0,3-0.6,3-1.4c0-2.2-8-0.6-8-4.5c0-1.7,1.7-2.9,4.6-2.9
	c1.6,0,3.2,0.4,4.7,1.1L40.5,3.4z"/>
<path fill="#E73137" d="M49.4,2.4c-2-0.1-3.7,1.4-3.9,3.4c0,0.1,0,0.1,0,0.2c0,2,1.6,3.6,3.5,3.6c0,0,0,0,0,0h0.4
	c2,0.1,3.7-1.3,3.9-3.3c0.1-2-1.3-3.7-3.3-3.9C49.8,2.4,49.6,2.4,49.4,2.4 M49.5,11.3c-3.2,0-5.8-2.1-5.8-5.3s2.6-5.3,5.8-5.3
	s5.8,2.2,5.8,5.3S52.7,11.3,49.5,11.3"/>
<path fill="#E73137" d="M62.9,11.3C59.5,11.3,57,9.2,57,6s2.5-5.3,5.9-5.3c1.7,0,3.3,0.5,4.7,1.5l-1,1.5c-1-0.8-2.3-1.2-3.6-1.2
	c-2.4,0-4,1.5-4,3.5s1.5,3.6,4,3.6c1.3,0,2.6-0.4,3.7-1.2l1,1.5C66.2,10.8,64.5,11.3,62.9,11.3"/>
<rect x="69.6" y="1" fill="#E73137" width="1.9" height="10"/>
<polygon fill="#E73137" points="74.2,11 74.2,1 83.3,1 83.3,2.7 76.1,2.7 76.1,5.1 81.7,5.1 81.7,6.8 76.1,6.8 76.1,9.4 83.7,9.4 
	83.7,11 "/>
<polygon fill="#E73137" points="90.6,2.7 90.6,11 88.7,11 88.7,2.7 84.7,2.7 84.7,1 94.7,1 94.7,2.7 "/>
<polygon fill="#E73137" points="96.2,11 96.2,1 105.3,1 105.3,2.7 98,2.7 98,5.1 103.7,5.1 103.7,6.8 98,6.8 98,9.4 105.6,9.4 
	105.6,11 "/>
<path d="M37.5,22.9c1,0,2-0.2,2.9-0.6v-2.9h1.8v3.9c-1.4,0.9-3.1,1.4-4.7,1.4c-3.3,0-5.9-2.1-5.9-5.3s2.6-5.3,5.9-5.3
	c1.7,0,3.3,0.5,4.7,1.5l-1,1.5c-1-0.8-2.3-1.2-3.6-1.1c-1.9-0.2-3.7,1.1-4,3.1c0,0.1,0,0.3,0,0.4C33.5,21.4,35,22.9,37.5,22.9"/>
<polygon points="44.6,24.4 44.6,14.3 53.8,14.3 53.8,16 46.5,16 46.5,18.4 52.1,18.4 52.1,20.1 46.5,20.1 46.5,22.7 54.1,22.7 
	54.1,24.4 "/>
<path d="M57.7,24.4h-1.8v-10h1.9l6.5,7.5l0,0c-0.1-1.9-0.1-3.4-0.1-4.9v-2.7H66v10h-1.8l-6.5-7.5l0,0c0.1,1.5,0.1,4.1,0.1,4.9
	L57.7,24.4L57.7,24.4L57.7,24.4z"/>
<polygon points="68.7,24.4 68.7,14.3 77.8,14.3 77.8,16 70.5,16 70.5,18.4 76.2,18.4 76.2,20.1 70.5,20.1 70.5,22.7 78.1,22.7 
	78.1,24.4 "/>
<path d="M86.3,19c0.8,0.1,1.6-0.4,1.8-1.3c0-0.1,0-0.1,0-0.2c0.1-0.8-0.5-1.5-1.3-1.5h-4.9v3H86.3z M84.9,20.7h-3v3.7h-1.8v-10h6.4
	c1.7-0.2,3.3,1.1,3.4,2.8c0,0.1,0,0.3,0,0.4c0,1.6-1.3,3-2.9,3.1l3,3.7h-2.3L84.9,20.7z"/>
<path d="M94.6,20.3h3.9l-1.9-4.1L94.6,20.3z M93.9,21.9l-1.2,2.4h-2l4.9-10h2l4.9,10h-2l-1.2-2.4H93.9z"/>
<polygon points="103.8,24.4 103.8,14.3 105.6,14.3 105.6,22.7 112.3,22.7 112.3,24.4 "/>
<polygon points="113.6,24.4 113.6,14.3 122.7,14.3 122.7,16 115.4,16 115.4,18.4 121.1,18.4 121.1,20.1 115.4,20.1 115.4,22.7 
	123,22.7 123,24.4 "/>
<rect fill="#FFFFFF" width="25.3" height="25.3"/>
<rect x="0.7" y="0.7" fill="#E73137" width="23.9" height="12.2"/>
<rect x="0.7" y="12.7" width="23.9" height="12"/>
<rect x="4.9" y="11.9" fill="#FFFFFF" width="15.6" height="1.5"/>
</svg>
