<?xml version="1.0" encoding="UTF-8"?>
<svg xmlns="http://www.w3.org/2000/svg" version="1.1" viewBox="0 0 601.4 663.1">
  <defs>
    <style>
      .cls-1 {
        fill: #676566;
      }

      .cls-2 {
        fill: #0c9091;
      }

      .cls-3 {
        fill: #055c5b;
      }
    </style>
  </defs>
  <!-- Generator: Adobe Illustrator 28.6.0, SVG Export Plug-In . SVG Version: 1.2.0 Build 709)  -->
  <g>
    <g id="Calque_1">
      <g>
        <path class="cls-1" d="M232.6,548.1c-.5,0-1-.1-1.6-.5-.5-.3-.9-.7-1.1-1.2l-2.2-4.9h-9.3l-2.6,5.6c0,.1,0,.2,0,.3,0,.3.1.5.3.6h-3.1c.2-.1.3-.3.5-.5.1-.1.3-.3.3-.5l10.3-22.8,10.7,23.8h-2.2ZM223.1,531.2l-3.9,8.7h7.8l-3.9-8.7Z"/>
        <path class="cls-1" d="M243.9,548.1c.6-.3,1-1,.9-1.7v-19.4c0-.7-.3-1.3-.9-1.6h5.6c-.6.3-.9,1-.9,1.6v19.4h8.4c1.5,0,2.6-.5,3.2-1.6v3.3h-16.4Z"/>
        <path class="cls-1" d="M287.7,540.4v6.5c-1.1.5-2.2.9-3.4,1.2-1.4.3-2.9.5-4.5.5s-3.5-.3-5.2-.9c-1.6-.5-3.1-1.4-4.3-2.5-1.2-1-2.2-2.3-2.9-3.8-1.4-3.1-1.4-6.6,0-9.6.7-1.4,1.7-2.7,2.9-3.8,1.3-1,2.7-1.9,4.3-2.4,1.7-.6,3.5-.9,5.2-.9s4.9.3,7.2,1.2v3.6c-.5-1.1-1.4-2-2.5-2.4-2.5-1-5.3-1-7.8,0-2.4,1-4.3,3-5.3,5.5-2.2,5.2.1,11.1,5.3,13.4,1.2.5,2.6.8,3.9.8s1.2,0,1.8-.1c.5,0,.9-.2,1.3-.3v-6.1c0-.7-.3-1.3-.9-1.6h5.7c-.6.3-.9.9-.9,1.6Z"/>
        <path class="cls-1" d="M298.9,548.1v-21.1c0-.3,0-.7-.3-.9s-.5-.5-.7-.7h14.8v3.5c-.2-.5-.7-1-1.1-1.2-.6-.3-1.3-.5-2-.5h-6.8v8.4h6.4c.6,0,1.2-.3,1.4-.8v3.3c-.3-.5-.9-.9-1.4-.9h-6.4v9.2h7.7c1.3.1,2.6-.5,3.2-1.6v3.3h-14.8Z"/>
        <path class="cls-1" d="M341.6,548.1c-.8,0-1.6-.2-2.3-.5-.7-.4-1.2-.9-1.7-1.5l-7.4-10h1.6c.6,0,1.2-.1,1.8-.4.5-.2,1-.5,1.4-1s.7-.9,1-1.4c.3-.6.3-1.2.3-1.8s-.1-1.2-.3-1.8c-.2-.5-.5-1-.9-1.4-.4-.4-.9-.7-1.4-1-.5-.3-1.1-.4-1.7-.3h-4.3v19.5c0,.7.3,1.3.9,1.6h-5.6c.6-.3,1-1,.9-1.7v-19.5c0-.7-.3-1.3-.9-1.6h10c1,0,2.1.1,3.1.5.9.3,1.7.7,2.5,1.3.7.5,1.2,1.2,1.6,1.9.4.7.6,1.5.6,2.3s-.1,1.3-.4,1.9-.7,1.2-1.1,1.6c-.5.5-1,1-1.7,1.3-.7.4-1.4.7-2.1.8l8.2,11.1h-2.1Z"/>
        <path class="cls-1" d="M352.2,548.1c.6-.3,1-1,.9-1.7v-19.4c0-.7-.3-1.3-.9-1.6h5.7c-.6.3-.9,1-.9,1.6v19.5c0,.7.3,1.3.9,1.7h-5.7Z"/>
        <path class="cls-1" d="M386.2,548.1c-.5,0-1.1-.1-1.6-.5-.5-.3-.9-.7-1.1-1.2l-2.2-4.9h-9.3l-2.6,5.6c0,.1,0,.2,0,.3,0,.2,0,.5.3.6h-3.1c.2-.1.4-.3.5-.5.1-.2.3-.3.3-.5l10.3-22.8,10.7,23.8h-2.2ZM376.7,531.3l-3.9,8.7h7.8l-3.9-8.7Z"/>
        <path class="cls-1" d="M174.4,428.7c-2.6-1.6-5.9-2.4-10-2.4h-14.5v71.6c0,3.5,1.6,6.8,4.5,8.8h-25c2.9-2,4.5-5.4,4.5-8.8v-71.6h-14.3c-4.1,0-7.5.8-10,2.4-2.6,1.6-4.5,4-5.6,6.8v-16.4h76.1v16.4c-1-2.8-3-5.2-5.6-6.8Z"/>
        <path class="cls-1" d="M266.1,506.8c-4.5.1-8.9-1-12.8-3.1-3.8-2.3-7.1-5.4-9.5-9.2l-22.6-32.3h3.5c4.6.1,8.9-2,11.5-5.7,1.3-1.8,2.3-3.7,3-5.8.7-2.2,1-4.4,1-6.6,0-5-1.3-9.2-4-12.8-2.5-3.4-6.5-5.4-10.7-5.3h-17.5v72.6c-.3,3.3,1.3,6.4,4.1,8.1h-24.1c2.7-1.8,4.3-4.8,4.1-8.1v-71.4c0-3.5-1.1-6.2-3.3-8.1h41.4c8.2,0,14.9,2.2,19.9,6.6,4.9,4.1,7.7,10.2,7.7,16.6,0,4.7-1.5,9.4-4.3,13.2-2.9,4-7.2,6.8-12,8.2l30.8,43h-6Z"/>
        <path class="cls-1" d="M347.9,428.2v48.6c0,4.3-.9,8.6-2.5,12.6-3.3,8.1-9.9,14.5-18,17.5-4.6,1.8-9.4,2.7-14.3,2.6-5.4,0-10.7-.9-15.7-2.6-4.4-1.6-8.5-3.9-12-7-6.7-5.8-10.5-14.2-10.4-23v-48.8c0-3.6-1.7-7-4.6-9h25.4c-2.9,2-4.7,5.4-4.6,9v48.2c0,6.5,2.4,12.9,6.9,17.7,2.2,2.3,4.8,4.1,7.7,5.4,3.1,1.3,6.4,2,9.6,1.9,3.3,0,6.7-.7,9.8-1.9,2.9-1.2,5.7-3.1,7.9-5.4s4-5,5.2-8c1.2-3.1,1.8-6.4,1.8-9.7v-48.2c.1-3.5-1.5-6.9-4.4-9h17c-2.9,2.1-4.7,5.5-4.6,9.1Z"/>
        <path class="cls-1" d="M411.5,494.1c-1.8,3.2-4.3,6-7.3,8.2-3.3,2.4-7,4.2-11,5.3-4.5,1.2-9,1.8-13.7,1.8s-6.8-.4-10.1-1.2c-2.7-.7-5.5-1.5-8.2-2.5v-17.3c1.4,4.8,3.9,8.4,7.3,10.7,3.5,2.3,7.7,3.5,12.5,3.5,4.5.1,9-1.2,12.7-3.7,3.6-2.5,5.4-6.4,5.4-11.7s-.3-3.9-.7-5.8c-.6-2-1.5-3.9-2.8-5.5-1.6-2-3.5-3.6-5.6-5-2.9-1.8-6-3.3-9.3-4.3-7.7-2.6-13.2-6.2-16.6-10.7-3.3-4.6-5-10.1-5-16.6s.8-6.2,2.3-8.8c1.6-2.9,3.8-5.4,6.5-7.4,3-2.2,6.5-3.9,10.1-5,4.3-1.2,8.8-1.9,13.3-1.8,3.1,0,6.2.4,9.2,1.2,3.1.8,6.1,1.7,9,2.9v16.5c-1.4-3.8-3.9-7.2-6.9-9.9-2.9-2.5-6.9-3.7-11.9-3.7s-9,1.2-12.3,3.7c-3.3,2.4-5,5.6-5,9.4,0,2.4.4,4.6,1.4,6.7.9,1.8,2.2,3.3,3.7,4.5,1.6,1.2,3.3,2.3,5.2,3.1l5.8,2.7c3.3,1.4,6.5,3.1,9.7,5,2.9,1.7,5.5,3.7,7.8,6.2,2.2,2.4,3.9,5.1,5.2,8.1,1.3,3.4,2,7.1,1.9,10.8,0,3.7-.9,7.3-2.7,10.5Z"/>
        <path class="cls-1" d="M492,428.7c-2.6-1.6-5.9-2.4-10-2.4h-14.5v71.6c-.1,3.5,1.6,6.8,4.5,8.8h-25c2.9-2,4.5-5.3,4.5-8.8v-71.6h-14.3c-4.1,0-7.5.8-10,2.4-2.6,1.6-4.5,4-5.6,6.8v-16.4h76.1v16.4c-1-2.8-3-5.2-5.6-6.8Z"/>
        <path class="cls-3" d="M313.7,139.9v228.3h-25.4v-228.3h-114.8v-25.4h254.5v25.4h-114.2Z"/>
        <path class="cls-2" d="M275.4,368.3h-13.2v-202.7h-88.7v-13.2h101.9v215.8Z"/>
        <path class="cls-2" d="M250.2,368.3h-13.2v-177.1h-63.6v-13.2h76.7v190.3Z"/>
        <path class="cls-2" d="M224.6,368.3h-13.2v-151.9h-38v-13.2h51.1v165Z"/>
        <path class="cls-2" d="M199,368.3h-13.2v-126.1h-12.4v-13.2h25.5v139.2Z"/>
        <path class="cls-2" d="M326.1,152.5h101.8v13.2h-88.6v202.7h-13.2v-215.8Z"/>
        <path class="cls-2" d="M351.3,178h76.7v13.2h-63.5v177.1h-13.2v-190.3Z"/>
        <path class="cls-2" d="M376.9,203.3h51.1v13.2h-37.9v151.9h-13.2v-165Z"/>
        <path class="cls-2" d="M402.5,229.1h25.5v13.2h-12.3v126.1h-13.2v-139.2Z"/>
      </g>
    </g>
  </g>
</svg>