<?xml version="1.0" encoding="utf-8"?>
<!-- Generator: Adobe Illustrator 28.6.0, SVG Export Plug-In . SVG Version: 9.03 Build 54939)  -->
<svg version="1.1" baseProfile="tiny" id="Calque_1"
	 xmlns="http://www.w3.org/2000/svg" xmlns:xlink="http://www.w3.org/1999/xlink" x="0px" y="0px" viewBox="0 0 601.4 663.1"
	 overflow="visible" xml:space="preserve">
<path fill="#676566" d="M196.6,662.3c-0.8,0-1.6-0.2-2.4-0.7c-0.7-0.4-1.3-1.1-1.7-1.8l-3.3-7.5H175l-3.9,8.6
	c-0.1,0.2-0.1,0.3-0.1,0.5c0,0.4,0.2,0.7,0.4,0.9h-4.8c0.3-0.2,0.5-0.4,0.8-0.7c0.2-0.2,0.4-0.5,0.5-0.8l15.8-34.9l16.3,36.4H196.6z
	 M182.1,636.5l-6,13.3h11.9L182.1,636.5z"/>
<path fill="#676566" d="M213.9,662.3c0.9-0.5,1.5-1.5,1.4-2.6V630c0-1-0.5-2-1.4-2.5h8.6c-0.9,0.5-1.4,1.5-1.3,2.5v29.6H234
	c2.3,0,3.9-0.8,4.9-2.4v5.1H213.9z"/>
<path fill="#676566" d="M280.8,650.5v10c-1.7,0.8-3.4,1.4-5.2,1.8c-2.2,0.5-4.5,0.8-6.8,0.8c-2.7,0-5.4-0.4-8-1.3
	c-2.4-0.8-4.7-2.1-6.6-3.8c-1.9-1.6-3.4-3.5-4.5-5.8c-2.2-4.7-2.2-10.1,0-14.7c1.1-2.2,2.6-4.2,4.5-5.8c2-1.6,4.2-2.9,6.6-3.7
	c2.6-0.9,5.3-1.3,8-1.3c3.7,0,7.5,0.5,11,1.8v5.5c-0.7-1.7-2.1-3-3.8-3.6c-3.8-1.6-8.1-1.5-11.9,0.1c-3.7,1.6-6.6,4.6-8.1,8.4
	c-3.4,7.9,0.2,17,8.1,20.5c1.9,0.8,3.9,1.2,6,1.2c0.9,0,1.8-0.1,2.7-0.2c0.7-0.1,1.3-0.3,2-0.5v-9.3c0-1-0.5-2-1.4-2.5h8.7
	C281.2,648.5,280.7,649.5,280.8,650.5z"/>
<path fill="#676566" d="M297.9,662.3V630c0-0.5-0.1-1-0.4-1.4c-0.3-0.4-0.7-0.8-1.1-1.1H319v5.3c-0.3-0.8-1-1.5-1.7-1.9
	c-0.9-0.5-2-0.8-3.1-0.7h-10.4v12.8h9.7c0.9,0,1.8-0.4,2.2-1.2v5.1c-0.4-0.8-1.3-1.3-2.2-1.3h-9.7v14h11.8c2,0.2,3.9-0.8,4.9-2.4
	v5.1L297.9,662.3z"/>
<path fill="#676566" d="M363.2,662.3c-1.2,0-2.4-0.3-3.5-0.8c-1-0.6-1.9-1.4-2.6-2.3l-11.3-15.2h2.5c0.9,0,1.8-0.2,2.7-0.6
	c0.8-0.3,1.6-0.8,2.2-1.5c0.6-0.7,1.1-1.4,1.5-2.2c0.4-0.9,0.5-1.8,0.5-2.7c0-0.9-0.2-1.8-0.5-2.7c-0.3-0.8-0.8-1.6-1.4-2.2
	c-0.6-0.6-1.3-1.1-2.1-1.5c-0.8-0.4-1.7-0.6-2.6-0.5h-6.6v29.8c0,1,0.5,2,1.4,2.5h-8.6c0.9-0.5,1.5-1.5,1.4-2.6V630
	c0-1-0.5-2-1.4-2.5H350c1.6,0,3.2,0.2,4.7,0.7c1.4,0.4,2.6,1.1,3.8,2c1,0.8,1.9,1.8,2.5,2.9c0.6,1.1,0.9,2.3,0.9,3.5
	c0,1-0.2,2-0.6,2.9c-0.4,0.9-1,1.8-1.7,2.5c-0.7,0.8-1.6,1.5-2.6,2c-1,0.6-2.1,1-3.2,1.2l12.6,17L363.2,662.3z"/>
<path fill="#676566" d="M379.4,662.3c0.9-0.5,1.5-1.5,1.4-2.6V630c0-1-0.5-2-1.4-2.5h8.7c-0.9,0.5-1.4,1.5-1.4,2.5v29.8
	c0,1,0.5,2,1.4,2.6H379.4z"/>
<path fill="#676566" d="M431.3,662.3c-0.8,0-1.7-0.2-2.4-0.7c-0.7-0.4-1.3-1.1-1.7-1.8l-3.4-7.5h-14.2l-3.9,8.6
	c-0.1,0.2-0.1,0.3-0.1,0.5c0,0.3,0.1,0.7,0.4,0.9h-4.8c0.3-0.2,0.6-0.4,0.8-0.7c0.2-0.3,0.4-0.5,0.5-0.8l15.8-34.9l16.3,36.4H431.3z
	 M416.8,636.6l-6,13.3h11.9L416.8,636.6z"/>
<path fill="#676566" d="M107.7,480c-3.9-2.4-9-3.7-15.3-3.7H70.3v109.4c-0.1,5.3,2.4,10.4,6.8,13.5H38.9c4.4-3.1,6.9-8.2,6.8-13.5
	V476.3H23.9c-6.3,0-11.4,1.2-15.3,3.7c-3.9,2.4-6.9,6.1-8.6,10.4v-25h116.2v25C114.6,486.1,111.6,482.4,107.7,480z"/>
<path fill="#676566" d="M247.8,599.2c-6.8,0.2-13.6-1.5-19.6-4.8c-5.8-3.5-10.8-8.3-14.5-14l-34.5-49.3h5.3c7,0.2,13.6-3,17.6-8.7
	c2-2.7,3.5-5.6,4.6-8.8c1.1-3.3,1.6-6.7,1.6-10.1c0-7.6-2-14.1-6.1-19.5c-3.8-5.2-9.9-8.3-16.4-8.1h-26.8v110.9
	c-0.4,5,2,9.7,6.2,12.3h-36.8c4.2-2.7,6.5-7.4,6.2-12.3V477.7c0-5.3-1.7-9.4-5-12.3h63.2c12.5,0,22.7,3.4,30.4,10.1
	c7.5,6.3,11.8,15.6,11.7,25.4c0.1,7.2-2.3,14.3-6.6,20.1c-4.5,6.1-11,10.4-18.3,12.5l47,65.7H247.8z"/>
<path fill="#676566" d="M372.8,479.2v74.2c0,6.6-1.3,13.2-3.8,19.3c-5.1,12.4-15.1,22.1-27.5,26.8c-7,2.7-14.4,4.1-21.9,4
	c-8.2,0.1-16.3-1.3-24-4c-6.7-2.4-13-6-18.4-10.7c-10.2-8.9-16-21.7-15.9-35.2v-74.5c0.1-5.5-2.6-10.7-7.1-13.8H293
	c-4.5,3.1-7.2,8.3-7.1,13.8v73.6c-0.1,10,3.7,19.7,10.6,27c3.3,3.5,7.3,6.3,11.8,8.2c4.7,2,9.7,3,14.7,2.9c5.1,0,10.2-1,14.9-2.9
	c4.5-1.9,8.7-4.7,12.1-8.2c3.4-3.5,6.1-7.6,7.9-12.2c1.9-4.7,2.8-9.7,2.8-14.8v-73.6c0.2-5.4-2.3-10.6-6.7-13.8h25.9
	C375.4,468.5,372.7,473.7,372.8,479.2z"/>
<path fill="#676566" d="M469.9,579.9c-2.8,4.9-6.6,9.2-11.2,12.6c-5,3.7-10.7,6.4-16.8,8.1c-6.8,1.9-13.8,2.8-20.9,2.8
	c-5.2,0-10.4-0.6-15.4-1.8c-4.2-1-8.4-2.3-12.5-3.8v-26.4c2.2,7.4,5.9,12.9,11.2,16.4s11.7,5.3,19.1,5.3c6.9,0.2,13.7-1.8,19.4-5.7
	c5.5-3.8,8.3-9.7,8.3-17.8c0-3-0.4-5.9-1.1-8.8c-0.9-3-2.3-5.9-4.3-8.4c-2.4-3-5.3-5.5-8.5-7.6c-4.4-2.8-9.2-5-14.2-6.6
	c-11.8-3.9-20.2-9.4-25.3-16.4c-5.1-7-7.6-15.5-7.6-25.3c0-4.7,1.2-9.4,3.5-13.5c2.5-4.4,5.8-8.3,9.9-11.3c4.6-3.4,9.9-6,15.4-7.6
	c6.6-1.9,13.4-2.9,20.3-2.8c4.8,0,9.5,0.6,14.1,1.8c4.7,1.2,9.3,2.6,13.8,4.4v25.2c-2.2-5.8-5.9-11-10.6-15.1
	c-4.5-3.8-10.6-5.7-18.2-5.7c-7.4,0-13.7,1.9-18.8,5.6c-5.1,3.7-7.6,8.5-7.6,14.4c-0.1,3.6,0.6,7.1,2.2,10.3c1.4,2.7,3.4,5,5.7,6.9
	c2.4,1.9,5.1,3.5,7.9,4.8l8.8,4.1c5.1,2.2,10,4.8,14.8,7.6c4.4,2.6,8.4,5.7,11.9,9.4c3.3,3.6,6,7.8,7.9,12.3c2,5.2,3,10.8,2.9,16.5
	C474.1,569.4,472.7,575,469.9,579.9z"/>
<path fill="#676566" d="M592.9,480c-3.9-2.4-9-3.7-15.3-3.7h-22.1v109.4c-0.2,5.4,2.4,10.4,6.8,13.5h-38.2c4.4-3.1,6.9-8.1,6.8-13.5
	V476.3H509c-6.2,0-11.4,1.2-15.3,3.7c-3.9,2.4-6.9,6.1-8.5,10.4v-25h116.2v25C599.8,486.1,596.8,482.4,592.9,480z"/>
<path fill="#055C5B" d="M320.6,38.8v348.8h-38.8V38.8H106.4V0h388.7v38.8H320.6z"/>
<path fill="#0C9091" d="M262,387.7h-20.1V78.1H106.4V58H262V387.7z"/>
<path fill="#0C9091" d="M223.6,387.7h-20.1V117.1h-97.1V97h117.2L223.6,387.7z"/>
<path fill="#0C9091" d="M184.5,387.7h-20.1v-232h-58v-20.1h78.1L184.5,387.7z"/>
<path fill="#0C9091" d="M145.4,387.7h-20.1V195.1h-18.9V175h39L145.4,387.7z"/>
<path fill="#0C9091" d="M339.5,58H495v20.1H359.6v309.6h-20.1L339.5,58z"/>
<path fill="#0C9091" d="M378,97h117.1v20.1h-97v270.6h-20.1L378,97z"/>
<path fill="#0C9091" d="M417.1,135.6h78v20.1h-57.9v232h-20.1V135.6z"/>
<path fill="#0C9091" d="M456.2,175h38.9v20.1h-18.8v192.6h-20.1L456.2,175z"/>
</svg>
